<svg width="368" height="418" viewBox="0 0 368 418" fill="none" xmlns="http://www.w3.org/2000/svg">
<path d="M26.8916 402.073C25.7781 401.121 23.2963 398.095 25.1917 394.585C25.8971 393.293 27.3845 392.655 28.7359 392.086C30.1254 391.616 31.4352 390.936 32.6201 390.072C34.7195 388.287 35.306 385.312 36.6999 382.924C38.3062 380.178 41.298 378.121 44.4598 378.266C48.0805 378.427 51.1063 381.394 52.4747 384.759C53.8431 388.125 53.8941 391.882 53.9196 395.528C53.9196 397.543 53.8431 399.778 52.3642 401.172C50.8853 402.566 48.99 402.421 47.1031 402.421L27.308 401.809" fill="#F5F5F5"/>
<path d="M64.7391 347.634H12.6719L22.0212 403.56C22.2157 404.724 22.7367 405.81 23.5236 406.69C24.3104 407.57 25.3309 408.209 26.4664 408.532C26.5247 408.553 26.5843 408.57 26.6449 408.583C26.7983 408.631 26.9543 408.671 27.1123 408.702C27.4593 408.775 27.8119 408.817 28.1662 408.829V408.88L28.4212 408.838H51.6245C53.2015 408.834 54.7257 408.269 55.9246 407.244C57.1235 406.22 57.919 404.802 58.1691 403.245L62.6907 364.718L62.8947 363.188L64.6881 347.931L64.7391 347.634ZM54.9393 383.306H49.5762L50.1116 367.08H56.2992L54.9393 383.306ZM56.8432 367.08H61.9428L60.0389 383.306H55.4323L56.8432 367.08ZM41.5443 401.299L41.2213 387.198H48.8707L48.4033 401.299H41.5443ZM33.2319 387.198H40.7028L41.0343 401.299H34.3368L33.2319 387.198ZM33.8098 401.299H27.5458C26.9508 397.491 26.1774 392.545 25.336 387.198H32.7219L33.8098 401.299ZM32.9599 383.306L31.702 367.08H40.2524L40.6263 383.306H32.9599ZM41.1703 383.306L40.7963 367.08H49.5932L49.0577 383.306H41.1703ZM40.7028 363.188L40.3544 348.161H50.2221L49.7207 363.188H40.7028ZM40.1844 363.188H31.3705L30.2061 348.161H39.8189L40.1844 363.188ZM30.8351 363.188H21.5537C21.2223 361.114 20.9163 359.142 20.6358 357.374C19.6584 351.297 19.2929 349.019 19.0974 348.161H29.6876L30.8351 363.188ZM31.141 367.08L32.3989 383.306H24.7495C24.4945 381.657 24.231 379.991 23.9676 378.325C23.3641 374.5 22.7606 370.676 22.1997 367.08H31.141ZM24.1885 383.306H19.1824L16.4626 367.08H21.6472C22.4377 372.095 23.3216 377.679 24.2055 383.306H24.1885ZM24.8005 387.198C25.5654 392.077 26.3219 396.888 27.0103 401.299H22.1997L19.8369 387.198H24.8005ZM48.9897 401.299L49.4572 387.198H54.5568L53.3499 401.299H48.9897ZM50.2561 363.188L50.7576 348.161H57.9311L56.6392 363.188H50.2561ZM18.6044 348.161C18.8084 349.24 19.7604 355.156 21.0353 363.188H15.8421L13.2923 348.161H18.6044ZM57.9226 401.299H53.8939L55.1008 387.198H59.5715L57.9226 401.299ZM62.3933 363.188H57.1491L58.441 348.161H64.1526L62.3933 363.188Z" fill="#E0E0E0"/>
<path d="M233.129 308.478H99.417V370.149H233.129V308.478Z" fill="#F5F5F5"/>
<path d="M229.95 367.234H102.459V311.716H229.95V367.234ZM103.309 366.384H229.1V312.549H103.309V366.384Z" fill="#E0E0E0"/>
<path d="M265.801 308.478H233.138V370.149H265.801V308.478Z" fill="#E0E0E0"/>
<path d="M102.893 328.901H229.533C229.579 328.901 229.622 328.883 229.654 328.851C229.686 328.819 229.703 328.776 229.703 328.731C229.703 328.686 229.686 328.643 229.654 328.611C229.622 328.579 229.579 328.561 229.533 328.561H102.893C102.848 328.561 102.804 328.579 102.772 328.611C102.741 328.643 102.723 328.686 102.723 328.731C102.723 328.776 102.741 328.819 102.772 328.851C102.804 328.883 102.848 328.901 102.893 328.901Z" fill="#E0E0E0"/>
<path d="M166.63 328.732C166.984 323.154 166.999 317.559 166.673 311.98C166.673 311.934 166.655 311.891 166.623 311.859C166.591 311.827 166.548 311.81 166.503 311.81C166.458 311.81 166.415 311.827 166.383 311.859C166.351 311.891 166.333 311.934 166.333 311.98C166.007 317.559 166.021 323.154 166.375 328.732C166.375 328.766 166.389 328.798 166.413 328.822C166.437 328.846 166.469 328.859 166.503 328.859C166.537 328.859 166.569 328.846 166.593 328.822C166.617 328.798 166.63 328.766 166.63 328.732Z" fill="#E0E0E0"/>
<path d="M200.721 320.36C200.721 320.696 200.621 321.025 200.434 321.304C200.247 321.584 199.982 321.802 199.671 321.931C199.361 322.059 199.019 322.093 198.689 322.027C198.359 321.962 198.056 321.8 197.819 321.562C197.581 321.324 197.419 321.021 197.353 320.692C197.288 320.362 197.322 320.02 197.45 319.71C197.579 319.399 197.797 319.133 198.076 318.947C198.356 318.76 198.684 318.66 199.021 318.66C199.471 318.66 199.904 318.839 200.223 319.158C200.541 319.477 200.721 319.909 200.721 320.36Z" fill="#E0E0E0"/>
<path d="M134.256 320.36C134.256 320.696 134.157 321.025 133.97 321.304C133.783 321.584 133.517 321.802 133.207 321.931C132.896 322.059 132.554 322.093 132.225 322.027C131.895 321.962 131.592 321.8 131.354 321.562C131.117 321.324 130.955 321.021 130.889 320.692C130.824 320.362 130.857 320.02 130.986 319.71C131.115 319.399 131.332 319.133 131.612 318.947C131.891 318.76 132.22 318.66 132.556 318.66C133.007 318.66 133.44 318.839 133.758 319.158C134.077 319.477 134.256 319.909 134.256 320.36Z" fill="#E0E0E0"/>
<path d="M167.982 339.474C167.982 339.81 167.882 340.139 167.695 340.419C167.509 340.698 167.243 340.916 166.932 341.045C166.622 341.173 166.28 341.207 165.95 341.142C165.621 341.076 165.318 340.914 165.08 340.676C164.842 340.439 164.68 340.136 164.615 339.806C164.549 339.476 164.583 339.134 164.711 338.824C164.84 338.513 165.058 338.248 165.338 338.061C165.617 337.874 165.946 337.774 166.282 337.774C166.733 337.774 167.165 337.954 167.484 338.272C167.803 338.591 167.982 339.023 167.982 339.474Z" fill="#E0E0E0"/>
<path d="M115.405 370.141L108.52 408.855H112.396L125.085 370.141H115.405Z" fill="#E0E0E0"/>
<path d="M223.678 370.141L229.432 408.923H225.557L213.998 370.141H223.678Z" fill="#E0E0E0"/>
<path d="M249.525 370.141L256.044 408.923H252.176L239.844 370.141H249.525Z" fill="#E0E0E0"/>
<path d="M167.828 356.932C167.828 357.269 167.729 357.597 167.542 357.877C167.355 358.156 167.09 358.374 166.779 358.503C166.468 358.631 166.127 358.665 165.797 358.599C165.467 358.534 165.164 358.372 164.927 358.134C164.689 357.897 164.527 357.594 164.461 357.264C164.396 356.934 164.429 356.592 164.558 356.282C164.687 355.971 164.905 355.706 165.184 355.519C165.464 355.332 165.792 355.232 166.129 355.232C166.579 355.232 167.012 355.412 167.331 355.73C167.649 356.049 167.828 356.481 167.828 356.932Z" fill="#E0E0E0"/>
<path d="M102.893 348.025H229.533C229.579 348.025 229.622 348.007 229.654 347.975C229.686 347.943 229.703 347.9 229.703 347.855C229.703 347.81 229.686 347.767 229.654 347.735C229.622 347.703 229.579 347.685 229.533 347.685H102.893C102.848 347.685 102.804 347.703 102.772 347.735C102.741 347.767 102.723 347.81 102.723 347.855C102.723 347.9 102.741 347.943 102.772 347.975C102.804 348.007 102.848 348.025 102.893 348.025Z" fill="#E0E0E0"/>
<path d="M192.768 287.526L192.725 279.298L152.294 279.51L152.337 287.737L192.768 287.526Z" fill="#E0E0E0"/>
<path d="M197.629 308.289L197.562 295.498L152.499 295.734L152.566 308.525L197.629 308.289Z" fill="#F5F5F5"/>
<path d="M188.958 308.214C188.734 306.091 188.66 303.955 188.737 301.822C188.66 299.687 188.734 297.548 188.958 295.422C189.171 297.549 189.242 299.687 189.17 301.822C189.242 303.955 189.171 306.091 188.958 308.214Z" fill="#E0E0E0"/>
<path d="M190.845 308.214C190.632 306.091 190.561 303.955 190.632 301.822C190.561 299.687 190.632 297.549 190.845 295.422C191.064 297.548 191.138 299.687 191.066 301.822C191.137 303.955 191.064 306.091 190.845 308.214Z" fill="#E0E0E0"/>
<path d="M159.354 308.214C159.136 306.091 159.062 303.955 159.133 301.822C159.062 299.687 159.136 297.548 159.354 295.422C159.573 297.548 159.647 299.687 159.575 301.822C159.647 303.955 159.573 306.091 159.354 308.214Z" fill="#E0E0E0"/>
<path d="M161.25 308.214C161.026 306.091 160.952 303.955 161.029 301.822C160.952 299.687 161.026 297.548 161.25 295.422C161.463 297.549 161.534 299.687 161.462 301.822C161.534 303.955 161.463 306.091 161.25 308.214Z" fill="#E0E0E0"/>
<path d="M165.38 302.027C165.38 301.908 169.919 301.806 175.529 301.806C181.138 301.806 185.728 301.908 185.728 302.027C185.728 302.146 181.181 302.248 175.529 302.248C169.877 302.248 165.38 302.129 165.38 302.027Z" fill="#E0E0E0"/>
<path d="M214.549 295.432L214.506 287.205L158.904 287.496L158.947 295.723L214.549 295.432Z" fill="#EBEBEB"/>
<path d="M206.594 294.419C206.067 294.426 205.549 294.275 205.107 293.987C204.665 293.699 204.319 293.286 204.112 292.801C203.906 292.315 203.848 291.779 203.947 291.261C204.046 290.743 204.296 290.265 204.667 289.89C205.038 289.514 205.512 289.258 206.029 289.152C206.546 289.047 207.082 289.098 207.57 289.298C208.058 289.498 208.476 289.839 208.77 290.277C209.064 290.715 209.22 291.231 209.221 291.759C209.223 292.106 209.157 292.45 209.026 292.772C208.895 293.093 208.702 293.386 208.458 293.633C208.214 293.88 207.924 294.076 207.604 294.211C207.285 294.346 206.941 294.417 206.594 294.419Z" fill="#E0E0E0"/>
<path d="M199.37 292.584V290.935H162.151V292.584H199.37Z" fill="#E0E0E0"/>
<path d="M248.782 191.856C284.102 156.537 284.102 99.272 248.782 63.9522C213.462 28.6324 156.198 28.6324 120.878 63.9522C85.5581 99.272 85.5581 156.537 120.878 191.856C156.198 227.176 213.462 227.176 248.782 191.856Z" fill="#FF2F2F"/>
<path d="M235.993 179.067C264.249 150.811 264.249 104.998 235.993 76.7414C207.736 48.4849 161.923 48.4849 133.667 76.7414C105.41 104.998 105.41 150.811 133.667 179.067C161.923 207.324 207.736 207.324 235.993 179.067Z" fill="#FAFAFA"/>
<path d="M236.594 144.16C245.575 115.57 229.679 85.1132 201.09 76.1319C172.5 67.1506 142.043 83.0461 133.062 111.636C124.081 140.225 139.976 170.682 168.566 179.663C197.155 188.645 227.612 172.749 236.594 144.16Z" fill="#FF2F2F"/>
<path d="M217.877 142.644C226.013 124.397 217.816 103.01 199.569 94.8749C181.323 86.7396 159.936 94.9363 151.801 113.183C143.665 131.429 151.862 152.816 170.109 160.952C188.355 169.087 209.742 160.89 217.877 142.644Z" fill="#FAFAFA"/>
<path d="M193.025 144.029C201.929 139.502 205.477 128.614 200.95 119.71C196.423 110.805 185.535 107.257 176.63 111.784C167.726 116.311 164.178 127.2 168.705 136.104C173.232 145.008 184.12 148.556 193.025 144.029Z" fill="#FF2F2F"/>
<path d="M187.615 130.568L162.508 123.947L168.933 117.352L116.985 74.6935L119.858 71.8887L172.078 114.292L177.118 107.399L187.615 130.568Z" fill="#E8B931"/>
<path d="M116.986 74.6932L116.204 75.1351C114.291 76.216 112.126 76.7698 109.929 76.7399C107.733 76.7101 105.583 76.0976 103.701 74.9651L81.9341 61.8931L96.587 59.5898L95.0061 44.1719L115.039 57.8899C117.241 59.3971 118.898 61.5733 119.766 64.0961C120.634 66.6189 120.666 69.3542 119.858 71.8969L116.986 74.6932Z" fill="#C0BEB9"/>
<path d="M332.785 345.849C332.883 340.576 334.919 335.523 338.505 331.655C340.23 338.778 332.785 345.849 332.785 345.849Z" fill="#EBEBEB"/>
<path d="M341.08 341.837C345.954 339.819 351.401 339.667 356.379 341.412C350.54 345.832 341.08 341.837 341.08 341.837Z" fill="#EBEBEB"/>
<path d="M342.032 337.214C341.238 333.128 341.977 328.892 344.106 325.315C346.613 330.542 342.032 337.214 342.032 337.214Z" fill="#EBEBEB"/>
<path d="M309.921 320.563C322.075 323.793 328.62 334.341 328.62 334.341C318.208 334.341 309.921 320.563 309.921 320.563Z" fill="#EBEBEB"/>
<path d="M329.316 325.535C328.687 312.463 341.462 297.666 341.462 297.666C339.533 313.9 329.316 325.535 329.316 325.535Z" fill="#EBEBEB"/>
<path d="M329.249 288.3C329.495 294.839 327.905 301.316 324.66 306.998C322.858 298.618 329.249 288.3 329.249 288.3Z" fill="#EBEBEB"/>
<path d="M324.37 314.877C314.809 313.857 309.607 304.347 309.607 304.347C321.124 307.568 324.37 314.877 324.37 314.877Z" fill="#EBEBEB"/>
<path d="M303.708 354.824C308.191 352.045 313.54 351.013 318.735 351.926C313.686 357.246 303.708 354.824 303.708 354.824Z" fill="#EBEBEB"/>
<path d="M328.475 359.125C327.257 362.218 324.984 364.78 322.058 366.358C322.466 361.947 328.475 359.125 328.475 359.125Z" fill="#EBEBEB"/>
<path d="M327.251 357.714C323.798 359.715 319.751 360.437 315.819 359.754C319.5 355.921 327.251 357.714 327.251 357.714Z" fill="#EBEBEB"/>
<path d="M332.138 375.316C332.129 375.252 332.129 375.186 332.138 375.121C332.138 374.959 332.138 374.772 332.138 374.551C332.138 374.007 332.138 373.277 332.138 372.359C332.138 371.441 332.138 370.242 332.138 368.891C332.138 367.539 332.138 366.001 332.045 364.301C331.96 360.901 331.722 356.864 331.373 352.402C331.025 347.94 330.438 343.01 329.674 337.877C328.118 327.626 326.07 318.422 324.37 311.826C323.52 308.528 322.832 305.876 322.322 304.041C322.075 303.148 321.888 302.443 321.744 301.924L321.608 301.372C321.6 301.307 321.6 301.241 321.608 301.176C321.643 301.234 321.669 301.297 321.684 301.363L321.863 301.899L322.509 303.99C323.078 305.808 323.826 308.46 324.701 311.75C326.963 320.337 328.75 329.042 330.056 337.826C330.804 342.925 331.339 347.889 331.705 352.377C332.07 356.864 332.24 360.918 332.283 364.327C332.342 366.027 332.325 367.565 332.283 368.916C332.24 370.268 332.283 371.466 332.232 372.384C332.181 373.302 332.172 374.041 332.155 374.577C332.155 374.806 332.155 374.993 332.155 375.146L332.138 375.316Z" fill="#E0E0E0"/>
<path d="M314.596 347.642C314.664 347.54 318.522 350.073 323.223 353.294C327.923 356.516 331.671 359.201 331.603 359.303C331.535 359.405 327.676 356.872 322.976 353.651C318.276 350.43 314.528 347.736 314.596 347.642Z" fill="#E0E0E0"/>
<path d="M331.603 349.036C331.774 348.794 331.973 348.575 332.198 348.382L333.898 346.724L339.643 341.336C341.845 339.271 343.834 337.401 345.389 335.956L347.089 334.315C347.293 334.103 347.521 333.915 347.769 333.754C347.612 334.004 347.424 334.233 347.208 334.434C346.834 334.859 346.264 335.446 345.559 336.134C344.148 337.579 342.159 339.534 339.898 341.616C337.638 343.699 335.581 345.586 334.068 346.92C333.311 347.583 332.691 348.11 332.249 348.475C332.056 348.687 331.84 348.875 331.603 349.036Z" fill="#E0E0E0"/>
<path d="M302.322 341.447C302.322 341.447 312.199 341.26 316.38 349.028C313.608 348.948 310.893 348.221 308.452 346.905C306.011 345.588 303.912 343.719 302.322 341.447Z" fill="#EBEBEB"/>
<path d="M315.811 337.477C315.811 337.477 323.851 343.214 322.611 351.926C320.43 350.214 318.679 348.016 317.498 345.507C316.318 342.999 315.74 340.249 315.811 337.477Z" fill="#EBEBEB"/>
<path d="M358.172 323.377C358.172 323.377 355.002 334.426 344.913 336.424C345.954 333.366 347.695 330.595 349.997 328.33C352.299 326.064 355.099 324.368 358.172 323.377Z" fill="#EBEBEB"/>
<path d="M311.426 282.24C311.426 282.24 324.03 290.459 322.67 303.828C319.242 301.356 316.44 298.116 314.488 294.368C312.535 290.619 311.486 286.466 311.426 282.24Z" fill="#EBEBEB"/>
<path d="M353.37 355.36C353.11 355.608 352.825 355.827 352.52 356.015C351.976 356.406 351.202 356.992 350.259 357.715C347.821 359.664 345.546 361.81 343.459 364.132C341.379 366.465 339.491 368.964 337.816 371.603C337.178 372.614 336.677 373.447 336.345 374.033C336.185 374.336 335.995 374.621 335.776 374.883C335.881 374.55 336.021 374.228 336.192 373.923C336.481 373.311 336.949 372.453 337.561 371.373C340.785 365.94 345.048 361.195 350.106 357.409C351.075 356.686 351.882 356.134 352.452 355.785C352.742 355.613 353.05 355.471 353.37 355.36Z" fill="#E0E0E0"/>
<path d="M342.397 363.57C341.485 358.375 342.516 353.026 345.295 348.543C346.647 357.909 342.397 363.57 342.397 363.57Z" fill="#EBEBEB"/>
<path d="M350.879 358.947C354.213 357.052 358.127 356.447 361.878 357.247C355.818 360.468 350.879 358.947 350.879 358.947Z" fill="#EBEBEB"/>
<path d="M313.763 376.336L318.488 407.41H345.958L352.333 376.786L313.763 376.336Z" fill="#EBEBEB"/>
<path d="M348.491 396.25C348.491 396.344 341.454 396.412 332.776 396.412C324.098 396.412 317.052 396.344 317.052 396.25C317.052 396.157 324.09 396.089 332.776 396.089C341.462 396.089 348.491 396.165 348.491 396.25Z" fill="#FAFAFA"/>
<path d="M348.602 394.772C348.602 394.857 341.513 394.933 332.776 394.933C324.038 394.933 316.941 394.857 316.941 394.772C316.941 394.687 324.03 394.61 332.776 394.61C341.522 394.61 348.602 394.636 348.602 394.772Z" fill="#FAFAFA"/>
<path d="M348.542 393.004C348.542 393.089 341.462 393.165 332.716 393.165C323.971 393.165 316.891 393.089 316.891 393.004C316.891 392.919 323.979 392.842 332.716 392.842C341.454 392.842 348.542 392.91 348.542 393.004Z" fill="#FAFAFA"/>
<path d="M321.642 405.642C321.26 404.359 320.976 403.05 320.792 401.724C320.515 400.419 320.339 399.095 320.265 397.763C320.941 400.346 321.399 402.982 321.633 405.642H321.642Z" fill="#FAFAFA"/>
<path d="M323.52 405.311C323.325 404.047 323.212 402.772 323.18 401.494C323.036 400.222 322.977 398.941 323.002 397.661C323.497 400.179 323.671 402.749 323.52 405.311Z" fill="#FAFAFA"/>
<path d="M326.92 405.311C326.549 404.032 326.31 402.72 326.206 401.393C325.996 400.081 325.925 398.75 325.994 397.423C326.247 398.724 326.423 400.038 326.521 401.359C326.726 402.668 326.86 403.987 326.92 405.311Z" fill="#FAFAFA"/>
<path d="M329.308 405.473C329.048 404.163 328.92 402.831 328.925 401.495C328.828 400.163 328.871 398.824 329.053 397.5C329.193 398.824 329.258 400.155 329.248 401.487C329.346 402.813 329.365 404.144 329.308 405.473Z" fill="#FAFAFA"/>
<path d="M333.541 405.311C333.34 404.063 333.243 402.801 333.252 401.537C333.144 400.276 333.144 399.007 333.252 397.746C333.454 398.997 333.551 400.262 333.541 401.528C333.65 402.787 333.65 404.052 333.541 405.311Z" fill="#FAFAFA"/>
<path d="M336.635 405.472C336.479 404.178 336.436 402.873 336.508 401.571C336.467 400.268 336.529 398.963 336.695 397.67C336.851 398.964 336.894 400.27 336.822 401.571C336.863 402.874 336.801 404.179 336.635 405.472Z" fill="#FAFAFA"/>
<path d="M339.533 405.056C339.501 403.692 339.578 402.328 339.762 400.976C339.84 399.614 340.027 398.261 340.323 396.93C340.35 398.294 340.27 399.658 340.085 401.01C340.003 402.37 339.818 403.723 339.533 405.056Z" fill="#FAFAFA"/>
<path d="M343.272 404.648C343.27 403.476 343.425 402.31 343.731 401.18C343.926 400.024 344.269 398.899 344.751 397.831C344.58 398.977 344.344 400.112 344.046 401.231C343.851 402.383 343.593 403.524 343.272 404.648Z" fill="#FAFAFA"/>
<path d="M310.609 370.191V376.005C310.609 376.611 310.85 377.193 311.279 377.622C311.708 378.05 312.289 378.291 312.896 378.291H352.673C353.28 378.291 353.862 378.051 354.293 377.622C354.723 377.194 354.965 376.612 354.968 376.005V370.191H310.609Z" fill="#EBEBEB"/>
<path d="M314.06 378.291L314.383 380.144L351.092 382.762L352.018 378.291H314.06Z" fill="#E0E0E0"/>
<path d="M352.971 408.209C352.971 408.337 276.995 408.43 183.289 408.43C89.5833 408.43 13.5903 408.371 13.5903 408.209C13.5903 408.048 89.5493 407.988 183.289 407.988C277.029 407.988 352.971 408.09 352.971 408.209Z" fill="#263238"/>
<path d="M0 156.568C0 156.568 8.71186 192.265 47.707 184.072C47.707 184.072 36.4114 147.941 0 156.568Z" fill="#455A64"/>
<path d="M18.8428 210.607C18.8428 210.607 36.7425 237.295 66.3203 218.834C66.3203 218.834 46.1513 192.554 18.8428 210.607Z" fill="#455A64"/>
<path d="M47.3672 251.327C47.3672 251.327 73.4858 273.536 98.4995 246.007C98.4995 246.032 70.171 224.869 47.3672 251.327Z" fill="#455A64"/>
<path d="M74.3612 165.653C74.3612 165.653 45.3953 179.575 59.4533 211.482C61.5186 210.335 88.0877 194.645 74.3612 165.653Z" fill="#455A64"/>
<path d="M80.6504 204.123C80.6504 204.123 66.2014 223.629 87.7304 240.381C89.0733 238.29 101.686 219.685 80.6504 204.123Z" fill="#455A64"/>
<path d="M13.6502 115.499C13.6502 115.499 10.3269 144.397 41.5621 149.055C41.5621 149.055 43.0835 119.086 13.6502 115.499Z" fill="#455A64"/>
<path d="M58.4505 86.2441C58.4505 86.2441 33.1819 96.7919 44.1546 126.404C44.1546 126.404 69.4742 113.774 58.4505 86.2441Z" fill="#455A64"/>
<path d="M73.6983 128.495C73.6983 128.495 40.2448 132.311 43.1856 168.688C43.1856 168.688 77.3531 162.603 73.6983 128.495Z" fill="#455A64"/>
<path d="M121.312 255.594L120.887 255.467L119.629 255.135C118.532 254.846 116.892 254.455 114.835 253.784C109.002 251.984 103.362 249.61 97.998 246.695C90.0544 242.362 82.7207 236.995 76.1885 230.733C72.3135 227.027 68.7063 223.051 65.3943 218.834L62.8445 215.434C62.4195 214.873 61.9946 214.304 61.5781 213.735C61.1616 213.165 60.7877 212.545 60.3967 211.95L58.0254 208.312L55.8495 204.504L54.7616 202.583L53.7927 200.62C53.1552 199.32 52.5008 198.028 51.8803 196.727L50.1804 192.801C49.9085 192.146 49.6195 191.5 49.3305 190.846C49.0415 190.191 48.8545 189.537 48.625 188.882L47.2311 184.99C46.8402 183.681 46.4577 182.389 46.0837 181.105C45.8967 180.459 45.7013 179.822 45.5143 179.193C45.3273 178.564 45.1998 177.91 45.0468 177.281C44.7493 176.006 44.4519 174.731 44.1969 173.498C42.3139 164.658 41.5034 155.624 41.783 146.589C41.9804 140.488 42.6596 134.412 43.8144 128.418C44.2649 126.301 44.6643 124.67 44.9193 123.565C45.0383 123.012 45.1318 122.596 45.1998 122.298C45.2678 122.001 45.2848 121.865 45.2848 121.865C45.2848 121.865 45.2338 122.001 45.1573 122.29C45.0808 122.579 44.9788 122.995 44.8428 123.539C44.5708 124.653 44.1459 126.276 43.6699 128.384C40.6096 143.314 40.6848 158.718 43.8909 173.617C44.1799 174.867 44.4773 176.125 44.7408 177.408C44.9023 178.046 45.0213 178.692 45.2083 179.329C45.3953 179.967 45.5823 180.604 45.7778 181.25C46.1517 182.533 46.5342 183.8 46.9252 185.143L48.3191 189.052C48.5486 189.707 48.7865 190.37 49.0245 191.024C49.2625 191.679 49.5685 192.325 49.8745 192.979L51.5743 196.931C52.1863 198.232 52.8407 199.524 53.4867 200.833C53.8097 201.495 54.1326 202.15 54.4641 202.804C54.7956 203.459 55.1866 204.088 55.552 204.734L57.7364 208.558L60.1162 212.205C60.5157 212.8 60.8897 213.412 61.2976 213.998L62.5725 215.698L65.1224 219.098C68.4444 223.316 72.063 227.293 75.9506 230.997C82.5184 237.277 89.896 242.65 97.8875 246.976C103.276 249.875 108.946 252.219 114.81 253.971C116.875 254.625 118.524 254.982 119.629 255.254L120.895 255.543L121.312 255.594Z" fill="#263238"/>
<path d="M83.7787 219.846C83.7424 220.128 83.7424 220.413 83.7787 220.696C83.7787 221.223 83.8978 221.979 84.0167 222.905C84.2377 224.775 84.6287 227.342 85.1727 230.147C85.7166 232.952 86.3371 235.485 86.8215 237.295C87.068 238.204 87.2805 238.935 87.442 239.437C87.501 239.703 87.5953 239.96 87.7225 240.202C87.7133 239.914 87.6676 239.628 87.5865 239.352L87.085 237.193C86.6601 235.366 86.0991 232.841 85.5466 230.036C84.9942 227.232 84.5777 224.682 84.2802 222.829C84.1442 221.979 84.0252 221.231 83.9232 220.636C83.9059 220.368 83.8574 220.103 83.7787 219.846Z" fill="#263238"/>
<path d="M76.665 248.812C76.9505 248.824 77.2362 248.798 77.515 248.735L79.7418 248.412C81.6117 248.132 84.204 247.766 87.0683 247.435C89.9326 247.103 92.5419 246.857 94.4288 246.695L96.6641 246.5C96.9512 246.496 97.2367 246.456 97.514 246.381C97.2316 246.348 96.9465 246.348 96.6641 246.381C96.1286 246.381 95.3637 246.381 94.4202 246.457C92.5249 246.551 89.9071 246.755 87.0343 247.086C84.1615 247.418 81.5692 247.834 79.6993 248.183C78.7729 248.353 77.9994 248.506 77.498 248.625C77.2137 248.653 76.934 248.716 76.665 248.812Z" fill="#263238"/>
<path d="M41.4604 213.412C41.7728 213.518 42.0943 213.595 42.4209 213.641L45.0642 214.168C47.2995 214.602 50.3848 215.248 53.7591 216.063C57.1333 216.879 60.1676 217.721 62.3519 218.35L64.9017 219.098C65.2155 219.211 65.5402 219.291 65.8707 219.336C65.5789 219.179 65.2711 219.053 64.9527 218.962C64.3493 218.741 63.4738 218.443 62.4029 218.112C60.2356 217.415 57.2098 216.531 53.8186 215.715C50.4273 214.899 47.342 214.287 45.0897 213.913C43.9678 213.726 43.0498 213.59 42.4209 213.514C42.1053 213.445 41.7833 213.411 41.4604 213.412Z" fill="#263238"/>
<path d="M67.0264 186.061C66.7973 186.321 66.5978 186.606 66.4315 186.91C66.066 187.488 65.5815 188.355 65.0121 189.46C62.0736 195.175 60.2806 201.408 59.7339 207.81C59.632 209.034 59.5895 210.02 59.5895 210.709C59.5587 211.065 59.5587 211.423 59.5895 211.78C59.6605 211.43 59.6975 211.074 59.6999 210.717C59.6999 210.037 59.8359 209.017 59.9634 207.836C60.6572 201.495 62.4338 195.32 65.216 189.579C65.743 188.474 66.202 187.59 66.525 187.029C66.7237 186.724 66.8916 186.399 67.0264 186.061Z" fill="#263238"/>
<path d="M28.2271 169.419C28.4627 169.626 28.719 169.808 28.992 169.963L31.1423 171.357C32.9442 172.555 35.392 174.272 37.9418 176.346C40.4917 178.42 42.693 180.451 44.2314 181.964L46.0418 183.766C46.25 184.006 46.4837 184.222 46.7387 184.412C46.5701 184.145 46.3735 183.897 46.1523 183.672C45.7613 183.205 45.1748 182.559 44.4524 181.777C42.4939 179.74 40.4104 177.826 38.2138 176.048C36.0165 174.271 33.7116 172.63 31.3123 171.136C30.3944 170.558 29.6124 170.116 29.1025 169.835C28.8259 169.667 28.5325 169.527 28.2271 169.419Z" fill="#263238"/>
<path d="M64.7568 143.003C64.7568 143.003 64.6463 143.071 64.4763 143.215L63.7454 143.87C63.1079 144.448 62.207 145.306 61.1106 146.377C58.9262 148.528 56.011 151.596 52.9597 155.157C49.9084 158.718 47.3586 162.093 45.5907 164.6C44.7408 165.849 44.0013 166.869 43.5339 167.592L42.9984 168.442C42.9295 168.532 42.875 168.632 42.8369 168.739C42.8369 168.739 42.9304 168.663 43.0664 168.484L43.6529 167.694L45.8032 164.77C47.6306 162.314 50.2229 158.973 53.2487 155.421C56.2744 151.868 59.1982 148.774 61.3061 146.581L63.8559 144.031L64.5358 143.326C64.626 143.231 64.7006 143.122 64.7568 143.003Z" fill="#263238"/>
<path d="M24.4614 124.907C24.6736 125.227 24.9124 125.529 25.1754 125.808L27.2067 128.205C28.9066 130.236 31.1929 133.101 33.5473 136.381C35.9016 139.662 37.865 142.764 39.2419 145.034C39.8963 146.122 40.4318 147.031 40.8482 147.728C41.0298 148.067 41.2372 148.39 41.4687 148.697C41.3363 148.336 41.1743 147.986 40.9842 147.652C40.6443 146.989 40.1343 146.045 39.4713 144.898C38.1539 142.586 36.2161 139.467 33.8532 136.16C31.4904 132.854 29.1701 130.024 27.4107 128.026C26.5608 127.032 25.8043 126.242 25.2859 125.706C25.039 125.412 24.7628 125.145 24.4614 124.907Z" fill="#263238"/>
<path d="M54.7105 97.4458C54.5034 97.7835 54.327 98.139 54.1835 98.5082C53.869 99.1967 53.4271 100.208 52.8916 101.458C51.8292 103.965 50.4268 107.407 48.9904 111.342C47.554 115.278 46.3386 118.805 45.5142 121.397C45.1062 122.689 44.7832 123.743 44.5707 124.474C44.4403 124.847 44.3436 125.231 44.2817 125.621C44.4683 125.259 44.6219 124.881 44.7407 124.491C45.0127 123.709 45.3697 122.689 45.7946 121.457C46.6871 118.907 47.928 115.346 49.3729 111.453C50.8178 107.56 52.1437 104.092 53.1466 101.543C53.6226 100.327 53.9965 99.3157 54.3195 98.5422C54.4792 98.1879 54.61 97.8212 54.7105 97.4458Z" fill="#263238"/>
<path d="M367.496 151.493C367.496 151.493 358.784 187.191 319.789 179.006C319.789 179.006 331.093 142.866 367.496 151.493Z" fill="#455A64"/>
<path d="M348.653 205.534C348.653 205.534 330.754 232.23 301.176 213.77C301.176 213.736 321.345 187.489 348.653 205.534Z" fill="#455A64"/>
<path d="M320.121 246.253C320.121 246.253 294.011 268.47 268.997 240.932C268.997 240.932 297.326 219.803 320.121 246.253Z" fill="#455A64"/>
<path d="M293.136 160.588C293.136 160.588 322.101 174.51 308.043 206.409C305.987 205.236 279.452 189.58 293.136 160.588Z" fill="#455A64"/>
<path d="M286.846 199.048C286.846 199.048 301.295 218.554 279.766 235.315C278.423 233.224 265.81 214.585 286.846 199.048Z" fill="#455A64"/>
<path d="M353.855 110.434C353.855 110.434 357.178 139.331 325.934 143.989C325.934 143.989 324.413 114.02 353.855 110.434Z" fill="#455A64"/>
<path d="M309.071 81.1445C309.071 81.1445 334.34 91.7008 323.367 121.313C323.342 121.338 298.022 108.7 309.071 81.1445Z" fill="#455A64"/>
<path d="M293.772 123.429C293.772 123.429 327.226 127.245 324.285 163.657C324.311 163.657 290.143 157.537 293.772 123.429Z" fill="#455A64"/>
<path d="M246.176 250.52L246.601 250.401L247.85 250.061C248.955 249.772 250.587 249.389 252.644 248.718C258.476 246.914 264.115 244.54 269.481 241.629C277.436 237.285 284.781 231.906 291.324 225.633C295.187 221.942 298.788 217.986 302.102 213.794L304.609 210.394L305.884 208.694C306.292 208.108 306.666 207.504 307.057 206.901C307.847 205.702 308.629 204.487 309.428 203.272L311.604 199.455C311.97 198.818 312.335 198.18 312.692 197.543L313.661 195.58C314.307 194.271 314.961 193.03 315.573 191.687L317.273 187.752C317.545 187.097 317.834 186.46 318.123 185.805C318.412 185.151 318.599 184.488 318.829 183.833L320.222 179.949C320.613 178.64 320.996 177.34 321.37 176.057C321.565 175.419 321.752 174.782 321.939 174.144C322.126 173.507 322.254 172.869 322.407 172.232C322.713 170.957 323.01 169.699 323.299 168.458C325.185 159.598 325.998 150.544 325.722 141.49C325.522 135.385 324.84 129.306 323.682 123.309C323.231 121.202 322.832 119.57 322.585 118.456C322.458 117.912 322.364 117.487 322.296 117.19C322.228 116.892 322.22 116.756 322.22 116.756L322.339 117.181L322.653 118.439C322.925 119.544 323.35 121.176 323.835 123.284C325.041 129.284 325.761 135.373 325.985 141.49C326.284 150.569 325.473 159.651 323.571 168.535L322.721 172.317C322.568 172.954 322.441 173.609 322.254 174.238C322.067 174.867 321.88 175.521 321.684 176.159C321.31 177.45 320.928 178.751 320.537 180.06C320.078 181.352 319.619 182.61 319.143 183.961C318.914 184.624 318.676 185.278 318.438 185.941C318.2 186.604 317.894 187.242 317.588 187.896L315.888 191.848C315.267 193.149 314.613 194.398 313.967 195.75L312.998 197.721L311.901 199.642L309.717 203.467L307.337 207.113C306.946 207.717 306.564 208.329 306.156 208.907L304.881 210.607L302.331 214.006C299.006 218.225 295.385 222.202 291.494 225.905C284.931 232.192 277.552 237.569 269.558 241.893C264.169 244.791 258.499 247.132 252.635 248.879C250.57 249.534 248.921 249.899 247.816 250.163L246.558 250.46C246.432 250.486 246.304 250.505 246.176 250.52Z" fill="#263238"/>
<path d="M283.718 214.78C283.754 215.062 283.754 215.348 283.718 215.63C283.675 216.149 283.599 216.905 283.488 217.84C283.259 219.701 282.876 222.268 282.324 225.082C281.771 227.895 281.168 230.419 280.675 232.23C280.428 233.139 280.216 233.861 280.054 234.363C279.992 234.631 279.898 234.891 279.774 235.136C279.788 234.862 279.836 234.591 279.918 234.329C280.054 233.734 280.216 233.011 280.411 232.162C280.836 230.343 281.406 227.81 281.95 225.005C282.494 222.2 282.927 219.65 283.216 217.798C283.361 216.948 283.48 216.208 283.573 215.613C283.586 215.331 283.634 215.051 283.718 214.78Z" fill="#263238"/>
<path d="M290.84 243.746C290.555 243.758 290.269 243.732 289.991 243.67L287.772 243.347C285.894 243.066 283.31 242.701 280.437 242.361C277.564 242.021 274.964 241.783 273.077 241.621L270.85 241.426C270.562 241.426 270.276 241.386 270 241.307C270.282 241.273 270.568 241.273 270.85 241.307C271.377 241.307 272.142 241.307 273.094 241.383C274.981 241.477 277.598 241.672 280.471 242.012C283.344 242.352 285.936 242.76 287.806 243.109C288.733 243.279 289.506 243.432 290.008 243.551C290.292 243.583 290.571 243.649 290.84 243.746Z" fill="#263238"/>
<path d="M326.071 208.337C325.756 208.449 325.432 208.528 325.102 208.575L322.458 209.094C320.223 209.536 317.146 210.182 313.763 210.998C310.381 211.814 307.355 212.655 305.171 213.284L302.578 214.032C302.264 214.14 301.939 214.217 301.609 214.261C301.909 214.115 302.218 213.99 302.536 213.888C303.131 213.667 304.006 213.378 305.086 213.038C307.253 212.341 310.287 211.457 313.67 210.632C317.053 209.808 320.147 209.213 322.399 208.839C323.521 208.652 324.439 208.516 325.068 208.431C325.398 208.368 325.734 208.337 326.071 208.337Z" fill="#263238"/>
<path d="M300.471 180.986C300.698 181.264 300.897 181.563 301.066 181.879C301.44 182.457 301.916 183.324 302.494 184.429C305.424 190.145 307.214 196.378 307.763 202.779C307.865 204.003 307.916 204.997 307.908 205.686C307.944 206.039 307.944 206.395 307.908 206.748C307.841 206.4 307.804 206.048 307.797 205.694C307.797 205.006 307.67 203.994 307.534 202.804C306.836 196.457 305.057 190.277 302.273 184.531C301.746 183.434 301.295 182.55 300.964 181.981C300.769 181.665 300.604 181.332 300.471 180.986Z" fill="#263238"/>
<path d="M339.279 164.345C339.042 164.555 338.782 164.737 338.505 164.889L336.363 166.292C334.561 167.481 332.114 169.198 329.564 171.272C327.014 173.346 324.813 175.377 323.274 176.89L321.464 178.701C321.256 178.935 321.025 179.149 320.775 179.338C320.939 179.07 321.133 178.822 321.353 178.599C321.744 178.14 322.331 177.485 323.053 176.703C325.014 174.668 327.097 172.755 329.292 170.975C331.485 169.195 333.787 167.554 336.185 166.062C337.103 165.493 337.885 165.051 338.395 164.762C338.675 164.594 338.971 164.455 339.279 164.345Z" fill="#263238"/>
<path d="M302.748 137.937C302.849 137.993 302.941 138.065 303.02 138.149L303.759 138.804C304.397 139.382 305.289 140.232 306.386 141.311C308.57 143.453 311.485 146.521 314.537 150.083C317.588 153.644 320.138 157.027 321.914 159.525C322.764 160.775 323.495 161.803 323.962 162.517L324.498 163.367C324.566 163.461 324.621 163.564 324.659 163.673C324.573 163.594 324.496 163.506 324.43 163.41L323.844 162.619L321.693 159.704C319.866 157.248 317.273 153.907 314.248 150.355C311.222 146.802 308.298 143.717 306.19 141.524L303.64 138.974L302.952 138.26C302.867 138.164 302.798 138.055 302.748 137.937Z" fill="#263238"/>
<path d="M343.07 119.834C342.86 120.156 342.621 120.458 342.356 120.735L340.324 123.132C338.625 125.172 336.338 128.027 333.984 131.317C331.63 134.606 329.666 137.7 328.298 139.961L326.683 142.655C326.497 142.993 326.29 143.32 326.062 143.632C326.194 143.269 326.359 142.919 326.555 142.587C326.887 141.924 327.405 140.98 328.06 139.825C329.377 137.521 331.315 134.393 333.678 131.096C336.041 127.798 338.361 124.951 340.12 122.962C340.97 121.967 341.727 121.168 342.245 120.641C342.5 120.352 342.775 120.082 343.07 119.834Z" fill="#263238"/>
<path d="M312.786 92.3804C312.995 92.7142 313.171 93.0671 313.313 93.4343C313.636 94.1312 314.078 95.1342 314.605 96.3921C315.667 98.8909 317.07 102.342 318.506 106.277C319.943 110.212 321.158 113.731 321.982 116.323C322.399 117.624 322.713 118.669 322.926 119.408C323.054 119.779 323.151 120.16 323.215 120.547C323.04 120.196 322.898 119.829 322.79 119.451L321.727 116.408C320.835 113.858 319.594 110.297 318.149 106.404C316.704 102.512 315.353 99.0184 314.359 96.4941L313.177 93.4938C313.023 93.1315 312.892 92.7595 312.786 92.3804Z" fill="#263238"/>
<path d="M228.165 303.148C228.165 303.148 232.568 320.734 228.165 327.865C227.987 328.162 227.791 328.459 227.587 328.714C224.724 332.831 220.591 335.897 215.821 337.443C211.05 338.988 205.905 338.929 201.171 337.273L151.646 320.275L155.428 306.982L187.224 310.908L221.153 301.669L228.165 303.148Z" fill="#F0B9A5"/>
<path d="M206.084 275.992C206.084 275.992 221.944 322.203 221.153 333.287C220.363 344.37 189.706 402.437 189.706 402.437L176.277 396.267C176.277 396.267 181.427 379.974 184.861 365.72C186.561 358.521 187.275 349.775 188.601 346.24C192.629 335.675 197.338 330.176 197.338 330.176L175.724 285.749L206.084 275.992Z" fill="#F0B9A5"/>
<path d="M162.627 245.182C162.627 245.182 157.944 258.067 161.182 270.238C164.42 282.409 194.899 332.284 194.899 332.284L230.172 311.885C230.172 311.885 228.812 267.434 216.522 242.632L162.627 245.182Z" fill="#263238"/>
<path d="M220.873 317.172C220.873 317.172 220.958 317.3 221.077 317.563C221.196 317.827 221.366 318.218 221.545 318.736C222.056 320.205 222.395 321.728 222.556 323.275C222.783 325.574 222.723 327.892 222.378 330.176C222.182 331.468 221.953 332.803 221.604 334.18C221.256 335.557 220.797 336.95 220.295 338.353C218.281 343.996 216.122 348.952 214.55 352.538C213.759 354.332 213.105 355.768 212.637 356.788C212.417 357.238 212.238 357.638 212.094 357.918C212.035 358.054 211.961 358.182 211.873 358.301C211.9 358.157 211.945 358.017 212.009 357.884L212.476 356.72L214.261 352.47C215.757 348.85 217.873 343.877 219.879 338.259C220.372 336.857 220.822 335.472 221.179 334.129C221.536 332.786 221.774 331.443 221.978 330.168C222.34 327.92 222.434 325.638 222.259 323.368C222.135 321.835 221.851 320.32 221.409 318.847C221.069 317.742 220.831 317.189 220.873 317.172Z" fill="#EB996E"/>
<path d="M186.102 359.653C186.093 359.254 186.119 358.856 186.179 358.463C186.247 357.689 186.383 356.584 186.57 355.224C187.03 351.654 187.842 348.138 188.992 344.728C190.246 341.349 191.874 338.122 193.845 335.106C194.585 333.95 195.205 333.015 195.647 332.386C195.857 332.047 196.099 331.728 196.37 331.435C196.209 331.8 196.016 332.15 195.792 332.48C195.35 333.211 194.789 334.18 194.092 335.268C192.213 338.307 190.639 341.524 189.392 344.872C188.25 348.259 187.397 351.736 186.842 355.267C186.621 356.559 186.442 357.638 186.306 358.48C186.281 358.877 186.213 359.27 186.102 359.653Z" fill="#EB996E"/>
<path d="M220.678 307.5C220.606 307.371 220.552 307.234 220.516 307.092L220.134 305.91C219.802 304.814 219.343 303.36 218.791 301.55C217.66 297.861 216.054 292.787 214.15 287.229C212.246 281.67 210.402 276.672 209.05 273.06L207.436 268.81C207.266 268.343 207.13 267.96 207.011 267.646C206.951 267.514 206.911 267.373 206.892 267.229C206.979 267.346 207.048 267.475 207.096 267.612L207.597 268.751C208.031 269.737 208.625 271.182 209.339 273.001C210.776 276.579 212.663 281.568 214.575 287.135C216.487 292.702 218.043 297.802 219.105 301.507C219.632 303.36 220.049 304.907 220.312 305.919C220.431 306.395 220.533 306.769 220.61 307.117C220.65 307.241 220.673 307.369 220.678 307.5Z" fill="#455A64"/>
<path d="M199.922 273.018C199.871 273.077 198.817 272.21 196.939 271.08C195.842 270.423 194.707 269.833 193.539 269.312C192.101 268.69 190.621 268.168 189.111 267.748C187.592 267.354 186.047 267.07 184.488 266.898C183.215 266.757 181.935 266.698 180.654 266.72C178.461 266.762 177.119 266.983 177.102 266.898C177.404 266.79 177.718 266.719 178.036 266.686C178.899 266.536 179.771 266.442 180.646 266.405C181.941 266.339 183.239 266.368 184.53 266.49C186.114 266.648 187.683 266.932 189.222 267.34C190.756 267.764 192.257 268.304 193.709 268.955C194.886 269.5 196.022 270.128 197.109 270.833C197.848 271.302 198.555 271.819 199.225 272.38C199.483 272.564 199.717 272.778 199.922 273.018Z" fill="#455A64"/>
<path d="M212.901 223.084C213.156 217.254 220.04 209.927 218.264 193.388C216.394 176.04 213.759 160.75 213.759 160.75L200.678 163.937L198.435 160.75L176.838 165.85L173.438 169.054L158.453 175.182C157.567 175.546 156.763 176.086 156.09 176.768C155.417 177.45 154.888 178.26 154.535 179.151L144.098 205.695L121.413 190.438L112.82 202.091C112.82 202.091 141.378 228.295 148.841 227.538C155.53 226.858 161.131 216.71 163.91 210.633L168.211 228.558C168.211 228.558 161.411 240.542 160.043 260.856L204.903 262.556C206.287 262.61 207.664 262.341 208.927 261.772C210.189 261.203 211.302 260.348 212.178 259.275L220.677 248.897C220.677 248.897 212.646 228.881 212.901 223.084Z" fill="#BA68C8"/>
<path d="M207.648 163.954L213.437 161.303L236.172 141.491L244.349 106.932L258.798 112.975C258.798 112.975 257.412 138.941 255.602 147.823C253.792 156.705 217.278 185.687 217.278 185.687L207.648 163.954Z" fill="#BA68C8"/>
<path d="M215.578 169.249C215.771 170.224 215.91 171.208 215.995 172.198C216.241 174.145 216.555 176.609 216.895 179.329C217.235 182.049 217.524 184.65 217.677 186.477C217.762 187.395 217.813 188.177 217.839 188.653C217.879 188.921 217.879 189.193 217.839 189.461C217.626 188.488 217.475 187.503 217.388 186.511C217.142 184.565 216.827 182.109 216.479 179.389C216.131 176.669 215.85 174.068 215.706 172.232C215.629 171.314 215.587 170.575 215.57 170.056C215.529 169.789 215.532 169.516 215.578 169.249Z" fill="#263238"/>
<path d="M200.059 215.664C199.905 215.532 199.763 215.387 199.634 215.23L198.486 213.921C197.466 212.74 196.038 211.091 194.304 209.068L180.637 192.919L173.124 183.987L173.03 183.876L173.107 183.757L174.781 180.842L174.985 181.122C173.999 181.326 173.073 181.377 172.223 181.556L171.977 181.615V181.36C172.436 177.756 172.827 174.773 173.081 172.64C173.217 171.637 173.328 170.838 173.413 170.243C173.436 169.955 173.487 169.671 173.566 169.393C173.572 169.677 173.555 169.962 173.515 170.243C173.455 170.846 173.379 171.645 173.277 172.657C173.047 174.79 172.725 177.756 172.334 181.394L172.113 181.207C172.962 181.003 173.94 180.944 174.875 180.74L175.291 180.646L175.087 181.02C174.569 181.955 174.025 182.933 173.455 183.944V183.715C175.759 186.451 178.317 189.469 180.994 192.639L194.593 208.856L198.665 213.802L199.753 215.162C199.872 215.318 199.975 215.486 200.059 215.664Z" fill="#263238"/>
<path d="M203.415 213.207C203.41 213.019 203.427 212.831 203.466 212.646L203.696 211.04C203.908 209.646 204.248 207.64 204.69 205.15C205.132 202.66 205.651 199.719 206.135 196.43C206.684 192.873 206.999 189.284 207.079 185.686C207.179 181.795 206.894 177.903 206.229 174.068L206.382 174.221L203.415 173.515L202.965 173.405L203.364 173.167L205.532 171.892L205.481 172.138C204.537 170.795 203.84 169.512 203.186 168.39C202.532 167.268 201.996 166.316 201.537 165.5C201.078 164.684 200.687 164.098 200.458 163.681C200.313 163.48 200.185 163.267 200.075 163.044C200.127 163.086 200.173 163.134 200.211 163.188C200.329 163.33 200.44 163.477 200.543 163.63C200.823 164.021 201.214 164.625 201.699 165.398L203.398 168.254C204.07 169.35 204.801 170.634 205.736 171.934L205.846 172.087L205.685 172.189L203.534 173.49L203.483 173.15L206.45 173.83H206.577V173.957C207.295 177.824 207.617 181.754 207.538 185.686C207.453 189.309 207.118 192.921 206.535 196.498C206.033 199.795 205.464 202.745 204.996 205.218C204.529 207.691 204.146 209.638 203.866 211.074C203.738 211.728 203.636 212.255 203.551 212.663C203.524 212.849 203.479 213.031 203.415 213.207Z" fill="#263238"/>
<path d="M206.229 222.353C206.031 222.528 205.807 222.672 205.566 222.778C205.124 223.024 204.478 223.356 203.67 223.747C199.447 225.769 195.019 227.334 190.462 228.413C189.612 228.617 188.881 228.77 188.388 228.855C188.134 228.925 187.87 228.954 187.606 228.94C188.516 228.605 189.444 228.321 190.386 228.09C192.086 227.606 194.474 226.892 197.041 225.982C199.608 225.073 201.902 224.138 203.543 223.432C204.415 223.017 205.312 222.656 206.229 222.353Z" fill="#263238"/>
<path d="M206.951 229.305C206.251 229.386 205.546 229.406 204.843 229.365C203.543 229.365 201.749 229.365 199.743 229.467C197.738 229.569 195.978 229.696 194.686 229.807C194.005 229.898 193.316 229.924 192.629 229.883C193.303 229.668 193.999 229.525 194.703 229.458C195.995 229.271 197.797 229.076 199.803 228.991C201.809 228.906 203.602 228.94 204.903 228.991C205.595 229.014 206.283 229.12 206.951 229.305Z" fill="#263238"/>
<path d="M203.679 222.531C203.423 220.993 203.309 219.433 203.339 217.874C203.226 216.319 203.26 214.756 203.441 213.208C203.702 214.746 203.816 216.305 203.781 217.865C203.898 219.42 203.864 220.983 203.679 222.531Z" fill="#263238"/>
<path d="M202.991 228.889C202.657 228.127 202.459 227.313 202.404 226.483C202.205 225.672 202.153 224.831 202.251 224.001C202.784 225.574 203.035 227.229 202.991 228.889Z" fill="#263238"/>
<path d="M208.303 262.054C208.218 261.637 208.172 261.213 208.167 260.787C208.107 259.937 208.022 258.782 207.886 257.328C207.64 254.404 207.198 250.376 206.543 245.956C205.889 241.536 205.115 237.533 204.529 234.694C204.231 233.258 203.959 232.102 203.781 231.295C203.657 230.885 203.577 230.463 203.543 230.037C203.711 230.43 203.848 230.837 203.951 231.252C204.18 232.034 204.495 233.181 204.801 234.609C205.498 237.465 206.314 241.451 206.977 245.879C207.64 250.308 208.031 254.379 208.201 257.294C208.294 258.765 208.328 259.946 208.337 260.77C208.368 261.198 208.357 261.628 208.303 262.054Z" fill="#263238"/>
<g opacity="0.3">
<path d="M172.01 181.497L173.013 181.913L171.908 184.463C171.908 184.463 188.907 205.253 193.556 209.273C199.166 214.152 199.327 214.78 199.327 214.78L173.277 183.834L174.917 180.919L172.01 181.497Z" fill="black"/>
</g>
<g opacity="0.3">
<path d="M184.224 229.968L209.246 222.166C209.393 222.894 209.337 223.649 209.084 224.348C208.83 225.046 208.39 225.662 207.809 226.126C206.631 227.036 205.267 227.678 203.815 228.005C197.789 229.704 190.522 230.758 184.317 229.968" fill="black"/>
</g>
<path d="M150.277 211.185C148.864 208.344 146.382 206.18 143.375 205.167C143.852 205.153 144.325 205.246 144.761 205.439C146.947 206.208 148.756 207.783 149.818 209.842C150.065 210.252 150.222 210.71 150.277 211.185Z" fill="#263238"/>
<path d="M159.176 187.956C159.24 188.082 159.286 188.216 159.312 188.356C159.397 188.679 159.499 189.061 159.618 189.528C159.873 190.625 160.221 192.078 160.646 193.872C161.496 197.535 162.652 202.609 163.893 208.21C165.134 213.811 166.205 218.843 167.021 222.583C167.395 224.376 167.701 225.855 167.922 226.951C168.015 227.427 168.092 227.801 168.151 228.141C168.184 228.278 168.204 228.417 168.211 228.558C168.015 228.048 167.864 227.521 167.76 226.985C167.497 225.897 167.14 224.435 166.715 222.651C165.865 218.987 164.7 213.922 163.459 208.312C162.219 202.702 161.114 197.586 160.332 193.94C159.966 192.146 159.66 190.667 159.482 189.571C159.397 189.095 159.32 188.721 159.261 188.373C159.215 188.238 159.187 188.098 159.176 187.956Z" fill="#263238"/>
<path d="M116.509 200.986C116.425 201.335 116.443 201.701 116.56 202.04C116.627 202.209 116.73 202.362 116.862 202.487C116.995 202.611 117.153 202.706 117.325 202.763C117.534 202.811 117.752 202.794 117.951 202.715C118.15 202.636 118.32 202.499 118.439 202.321C118.575 202.157 118.659 201.956 118.68 201.744C118.701 201.532 118.658 201.318 118.558 201.131C118.452 200.983 118.317 200.858 118.16 200.766C118.003 200.674 117.829 200.616 117.648 200.595C117.289 200.576 116.931 200.661 116.62 200.842C116.62 200.842 116.62 200.706 116.807 200.561C117.05 200.375 117.351 200.279 117.657 200.289C117.895 200.29 118.13 200.346 118.343 200.454C118.555 200.561 118.74 200.718 118.881 200.91C119.03 201.17 119.099 201.469 119.08 201.768C119.06 202.067 118.953 202.354 118.772 202.593C118.591 202.833 118.344 203.013 118.061 203.113C117.778 203.212 117.472 203.227 117.181 203.154C116.956 203.073 116.754 202.94 116.592 202.766C116.429 202.591 116.31 202.38 116.246 202.151C116.135 201.858 116.135 201.534 116.246 201.241C116.382 201.046 116.492 200.986 116.509 200.986Z" fill="#263238"/>
<path d="M246.252 111.743C246.252 111.743 246.32 111.615 246.567 111.547C246.738 111.524 246.911 111.536 247.078 111.581C247.244 111.626 247.4 111.704 247.536 111.811C247.957 112.115 248.241 112.573 248.326 113.086C248.35 113.419 248.262 113.75 248.076 114.028C247.889 114.305 247.615 114.512 247.298 114.615C246.997 114.741 246.666 114.777 246.345 114.72C246.024 114.663 245.726 114.514 245.487 114.292C245.31 114.095 245.189 113.854 245.137 113.594C245.085 113.333 245.103 113.064 245.19 112.814C245.462 111.964 245.938 111.709 245.963 111.743C245.774 112.111 245.617 112.495 245.496 112.89C245.442 113.084 245.44 113.289 245.489 113.484C245.538 113.679 245.637 113.858 245.776 114.003C245.964 114.159 246.191 114.261 246.432 114.297C246.673 114.333 246.92 114.302 247.145 114.207C247.373 114.136 247.572 113.992 247.712 113.797C247.851 113.602 247.924 113.367 247.918 113.128C247.86 112.713 247.655 112.333 247.34 112.057C247.136 111.859 246.868 111.741 246.584 111.726C246.38 111.743 246.269 111.819 246.252 111.743Z" fill="#263238"/>
<path d="M126.241 170.082C131.817 162.968 139.347 157.333 148.441 155.888C153.133 155.131 157.68 155.888 162.134 157.426C166.859 159.032 171.39 160.936 176.379 161.591C182.107 162.347 187.861 161.82 193.573 161.166C194.678 161.038 198.766 160.001 198.766 158.795C198.766 157.775 194.686 156.908 193.573 157.035C188.388 157.63 183.144 158.149 177.926 157.647C172.826 157.154 168.194 155.14 163.409 153.508C158.74 151.786 153.737 151.169 148.79 151.706C143.84 152.339 139.086 154.032 134.851 156.67C130.42 159.465 126.516 163.018 123.317 167.166C122.949 167.563 122.745 168.083 122.745 168.624C122.745 169.165 122.949 169.685 123.317 170.082C123.707 170.466 124.232 170.681 124.779 170.681C125.326 170.681 125.851 170.466 126.241 170.082Z" fill="#455A64"/>
<g opacity="0.3">
<path d="M126.258 170.141C131.834 163.027 139.364 157.392 148.459 155.947C153.083 155.319 157.79 155.848 162.16 157.486C166.885 159.084 171.415 160.996 176.396 161.65C182.125 162.407 187.887 161.88 193.59 161.226C194.704 161.098 198.766 160.376 198.766 159.177C198.766 158.157 194.704 156.967 193.59 157.095C188.406 157.69 183.162 158.208 177.943 157.698C172.843 157.214 168.22 155.199 163.435 153.568C158.763 151.847 153.757 151.228 148.807 151.757C143.858 152.394 139.103 154.09 134.868 156.729C130.44 159.525 126.539 163.078 123.343 167.226C122.971 167.62 122.764 168.142 122.764 168.684C122.764 169.226 122.971 169.747 123.343 170.141C123.731 170.525 124.255 170.74 124.801 170.74C125.346 170.74 125.87 170.525 126.258 170.141Z" fill="black"/>
</g>
<path d="M207.078 119.91C209.016 118.814 209.399 115.865 208.081 114.054C207.369 113.19 206.414 112.56 205.34 112.245C204.265 111.929 203.121 111.944 202.055 112.286C202.284 111.641 202.298 110.94 202.096 110.286C201.894 109.632 201.486 109.061 200.933 108.657C199.805 107.877 198.453 107.486 197.083 107.544C195.256 107.544 193.165 108.113 192.417 109.779C192.128 108.691 190.896 108.139 189.774 108.079C188.267 108.028 186.795 108.533 185.637 109.499C184.48 110.465 183.72 111.823 183.501 113.315C182.496 112.741 181.338 112.495 180.186 112.609C179.614 112.681 179.081 112.94 178.67 113.345C178.26 113.751 177.995 114.281 177.917 114.853C177.532 114.436 177.049 114.122 176.512 113.939C175.974 113.756 175.4 113.711 174.84 113.808C174.015 113.831 173.217 114.107 172.554 114.598C172.229 114.85 171.988 115.194 171.863 115.586C171.739 115.978 171.736 116.398 171.857 116.791C171.074 116.658 170.27 116.82 169.6 117.245C168.93 117.671 168.442 118.33 168.23 119.095C168.019 119.861 168.098 120.677 168.454 121.387C168.81 122.096 169.417 122.648 170.157 122.936C169.62 123.378 169.204 123.95 168.949 124.597C168.694 125.244 168.608 125.945 168.699 126.635C168.79 127.325 169.055 127.98 169.469 128.538C169.883 129.097 170.433 129.541 171.066 129.829C170.912 129.897 170.774 129.999 170.665 130.128C170.556 130.257 170.477 130.41 170.435 130.573C170.394 130.737 170.39 130.908 170.424 131.074C170.458 131.24 170.53 131.395 170.633 131.529C171.041 132.09 170.769 132.124 171.483 132.107C171.619 134.487 171.806 136.314 171.942 138.694C172.035 140.232 172.001 142.247 172.562 143.675C172.983 144.474 173.558 145.182 174.254 145.759C174.95 146.335 175.753 146.768 176.617 147.032L204.962 136.391C205.902 135.392 206.54 134.147 206.802 132.801C207.063 131.455 206.938 130.062 206.441 128.784C206.35 128.67 206.287 128.537 206.255 128.395C206.223 128.253 206.224 128.105 206.258 127.964C206.291 127.822 206.356 127.69 206.449 127.577C206.541 127.465 206.657 127.374 206.789 127.313C207.364 126.871 207.842 126.317 208.196 125.684C208.549 125.052 208.771 124.354 208.846 123.633C208.9 122.913 208.765 122.19 208.455 121.538C208.145 120.885 207.671 120.324 207.078 119.91Z" fill="#263238"/>
<path d="M204.529 129.591C203.891 123.854 197.432 118.398 191.78 119.273L173.387 123.642L173.6 126.736L178.291 168.382L198.171 180.231L197.007 159.756C197.007 159.756 204.265 158.192 205.319 148.519C205.846 143.751 205.226 135.932 204.529 129.591Z" fill="#F0B9A5"/>
<path d="M200.984 137.929C201.001 138.248 200.893 138.56 200.684 138.801C200.475 139.042 200.18 139.193 199.862 139.221C199.554 139.252 199.245 139.159 199.005 138.963C198.764 138.767 198.611 138.484 198.579 138.176C198.558 137.855 198.663 137.539 198.873 137.295C199.083 137.052 199.38 136.901 199.701 136.875C200.01 136.847 200.319 136.941 200.559 137.139C200.799 137.336 200.952 137.62 200.984 137.929Z" fill="#263238"/>
<path d="M203.024 133.705C202.88 133.875 201.911 133.229 200.594 133.297C199.276 133.365 198.341 134.07 198.197 133.917C198.052 133.764 198.256 133.552 198.664 133.221C199.217 132.801 199.884 132.561 200.577 132.532C201.265 132.491 201.949 132.676 202.523 133.059C202.939 133.348 203.092 133.637 203.024 133.705Z" fill="#263238"/>
<path d="M189.442 138.294C189.463 138.613 189.359 138.927 189.15 139.168C188.942 139.41 188.647 139.56 188.329 139.586C188.173 139.606 188.015 139.595 187.864 139.553C187.713 139.511 187.572 139.439 187.449 139.342C187.327 139.244 187.225 139.123 187.149 138.986C187.074 138.848 187.027 138.697 187.011 138.541C186.99 138.222 187.095 137.907 187.303 137.664C187.511 137.421 187.806 137.269 188.125 137.241C188.281 137.22 188.44 137.232 188.591 137.275C188.743 137.317 188.884 137.39 189.007 137.488C189.13 137.586 189.232 137.708 189.307 137.847C189.382 137.986 189.428 138.138 189.442 138.294Z" fill="#263238"/>
<path d="M190.122 134.852C189.978 135.022 189.018 134.376 187.7 134.444C186.383 134.512 185.448 135.217 185.295 135.056C185.142 134.894 185.363 134.699 185.771 134.367C186.316 133.945 186.979 133.702 187.669 133.671C188.358 133.641 189.04 133.825 189.621 134.198C190.08 134.495 190.19 134.775 190.122 134.852Z" fill="#263238"/>
<path d="M195.332 144.167C196.016 143.911 196.731 143.745 197.457 143.674C197.789 143.623 198.103 143.538 198.154 143.308C198.164 142.957 198.069 142.611 197.882 142.314L196.76 139.764C195.196 136.16 194.049 133.194 194.21 133.135C194.372 133.075 195.74 135.94 197.304 139.543C197.678 140.393 198.035 141.243 198.384 142.093C198.612 142.492 198.696 142.957 198.622 143.41C198.579 143.533 198.508 143.645 198.415 143.736C198.322 143.828 198.21 143.896 198.086 143.937C197.904 143.996 197.716 144.03 197.525 144.039C196.802 144.169 196.066 144.212 195.332 144.167Z" fill="#263238"/>
<path d="M197.007 159.789C192.508 160.072 188.02 159.095 184.045 156.967C184.045 156.967 187.955 164.098 197.474 162.747L197.007 159.789Z" fill="#EB996E"/>
<path d="M194.933 147.38C194.666 147.076 194.327 146.845 193.946 146.708C193.565 146.571 193.156 146.533 192.757 146.598C192.47 146.634 192.193 146.727 191.943 146.874C191.693 147.02 191.476 147.215 191.304 147.448C191.143 147.68 191.056 147.956 191.056 148.238C191.056 148.521 191.143 148.797 191.304 149.029C191.526 149.258 191.811 149.415 192.124 149.478C192.436 149.542 192.761 149.51 193.055 149.386C193.669 149.137 194.227 148.767 194.695 148.298C194.838 148.185 194.959 148.047 195.052 147.89C195.098 147.816 195.122 147.731 195.122 147.643C195.122 147.556 195.098 147.471 195.052 147.397" fill="#EB996E"/>
<path d="M191.499 145.263C191.711 145.263 191.788 146.674 193.063 147.643C194.338 148.612 195.85 148.374 195.867 148.569C195.884 148.765 195.545 148.867 194.899 148.918C194.062 148.969 193.234 148.722 192.561 148.221C191.913 147.736 191.475 147.021 191.337 146.224C191.261 145.62 191.397 145.263 191.499 145.263Z" fill="#263238"/>
<path d="M190.293 130.101C190.174 130.466 188.857 130.364 187.318 130.619C185.78 130.874 184.547 131.367 184.326 131.053C184.224 130.9 184.428 130.551 184.913 130.203C185.567 129.747 186.316 129.445 187.104 129.32C187.891 129.195 188.697 129.25 189.46 129.481C190.08 129.659 190.335 129.931 190.293 130.101Z" fill="#263238"/>
<path d="M202.353 129.897C202.132 130.211 201.205 129.897 200.117 129.982C199.029 130.067 198.111 130.279 197.882 129.982C197.78 129.829 197.882 129.523 198.298 129.217C198.824 128.848 199.449 128.646 200.092 128.639C200.734 128.621 201.366 128.802 201.902 129.157C202.302 129.446 202.446 129.744 202.353 129.897Z" fill="#263238"/>
<path d="M200.041 118.686L199.446 118.44C200.372 116.366 198.808 113.706 196.599 113.187C195.477 112.994 194.324 113.169 193.31 113.685C192.296 114.201 191.476 115.031 190.972 116.051C190.463 115.161 189.667 114.47 188.715 114.089C187.764 113.708 186.711 113.659 185.728 113.952C184.122 114.488 182.974 115.864 181.869 117.156C181.623 117.445 181.308 117.76 180.926 117.717C180.653 117.645 180.41 117.491 180.229 117.275C179.272 116.486 178.099 116.003 176.864 115.889C175.628 115.776 174.387 116.036 173.302 116.638C172.233 117.265 171.301 118.101 170.561 119.095C169.82 120.089 169.287 121.222 168.993 122.426C168.684 123.399 168.632 124.435 168.84 125.435C168.948 125.93 169.184 126.388 169.526 126.763C169.868 127.137 170.303 127.415 170.786 127.568C170.354 128.174 170.068 128.871 169.949 129.606C169.83 130.34 169.881 131.092 170.098 131.803C170.316 132.515 170.695 133.167 171.204 133.708C171.714 134.25 172.342 134.668 173.038 134.929C173.14 135.253 173.28 135.564 173.455 135.855C173.293 137.601 173.234 139.355 173.276 141.108C173.251 141.865 173.408 142.617 173.735 143.3C173.91 143.635 174.185 143.905 174.523 144.073C174.86 144.241 175.242 144.298 175.614 144.235C176.404 144.014 177.509 143.606 177.747 142.816C178.163 141.405 177.704 139.459 177.815 137.988C178.634 137.866 179.4 137.512 180.023 136.967C180.646 136.422 181.099 135.709 181.328 134.914C181.557 134.118 181.553 133.274 181.316 132.481C181.079 131.688 180.619 130.98 179.991 130.441C180.677 130.727 181.421 130.846 182.162 130.788C182.904 130.73 183.62 130.497 184.254 130.108C184.887 129.718 185.419 129.184 185.805 128.549C186.191 127.914 186.421 127.196 186.476 126.455C187.154 127.088 187.96 127.568 188.84 127.861C189.72 128.154 190.653 128.255 191.575 128.155C192.462 128.106 193.295 127.713 193.896 127.058C194.18 126.72 194.331 126.289 194.318 125.847C194.306 125.405 194.131 124.983 193.828 124.661C194.674 125.039 195.612 125.16 196.527 125.009C197.441 124.858 198.291 124.442 198.97 123.811C199.626 123.153 200.077 122.318 200.267 121.408C200.457 120.498 200.379 119.552 200.041 118.686Z" fill="#263238"/>
<path d="M176.064 139.493C175.92 139.433 170.361 137.98 170.718 143.615C171.075 149.25 176.625 147.746 176.625 147.584C176.625 147.423 176.064 139.493 176.064 139.493Z" fill="#F0B9A5"/>
<path d="M174.781 145.553C174.781 145.553 174.687 145.63 174.526 145.715C174.299 145.829 174.037 145.851 173.795 145.774C173.418 145.562 173.103 145.256 172.882 144.884C172.662 144.513 172.542 144.09 172.537 143.658C172.496 143.177 172.56 142.692 172.724 142.238C172.766 142.06 172.851 141.894 172.971 141.755C173.09 141.616 173.242 141.508 173.412 141.439C173.523 141.402 173.644 141.405 173.754 141.448C173.863 141.492 173.953 141.573 174.007 141.677C174.092 141.83 174.067 141.941 174.092 141.949C174.118 141.958 174.211 141.847 174.152 141.618C174.11 141.48 174.023 141.36 173.905 141.278C173.826 141.224 173.737 141.187 173.644 141.168C173.551 141.149 173.455 141.149 173.361 141.167C173.133 141.226 172.923 141.344 172.754 141.507C172.584 141.671 172.459 141.876 172.392 142.102C172.181 142.604 172.099 143.15 172.154 143.692C172.154 144.196 172.304 144.688 172.584 145.107C172.863 145.526 173.261 145.853 173.727 146.046C173.875 146.073 174.027 146.069 174.173 146.034C174.32 145.999 174.457 145.933 174.577 145.842C174.781 145.689 174.781 145.562 174.781 145.553Z" fill="#EB996E"/>
<path d="M186.196 125.503C186.247 125.508 186.298 125.508 186.349 125.503L186.799 125.554C187.367 125.597 187.938 125.568 188.499 125.469C188.907 125.39 189.304 125.261 189.681 125.086C190.127 124.885 190.529 124.596 190.862 124.236C191.238 123.808 191.503 123.295 191.635 122.74C191.783 122.114 191.699 121.456 191.397 120.888L191.244 121.032C192.419 121.783 193.806 122.132 195.197 122.026C195.956 121.98 196.699 121.792 197.389 121.474C197.752 121.305 198.089 121.088 198.392 120.828C198.701 120.545 198.927 120.184 199.047 119.783C199.167 119.319 199.182 118.834 199.089 118.363C199.015 117.91 198.904 117.464 198.758 117.029C198.624 116.6 198.433 116.191 198.188 115.813C198.068 115.619 197.905 115.454 197.712 115.331C197.52 115.207 197.302 115.128 197.075 115.099V115.329C197.909 115.542 198.79 115.464 199.574 115.108C200.294 114.801 200.912 114.297 201.359 113.655C201.746 113.091 201.962 112.426 201.979 111.742C201.984 111.028 201.801 110.324 201.449 109.703C201.097 109.081 200.588 108.562 199.973 108.198C199.711 108.042 199.423 107.933 199.123 107.875C199.391 107.992 199.651 108.122 199.905 108.266C200.594 108.701 201.133 109.336 201.452 110.085C201.679 110.607 201.789 111.173 201.775 111.742C201.761 112.402 201.548 113.042 201.163 113.578C200.736 114.182 200.147 114.654 199.463 114.938C198.723 115.267 197.893 115.336 197.109 115.133L197.067 115.371C197.259 115.398 197.443 115.467 197.605 115.575C197.767 115.682 197.902 115.825 198.001 115.992C198.234 116.345 198.412 116.732 198.528 117.139C198.868 117.965 198.968 118.869 198.817 119.749C198.691 120.099 198.489 120.418 198.226 120.682C197.964 120.947 197.646 121.15 197.296 121.279C196.632 121.585 195.918 121.769 195.188 121.822C193.849 121.928 192.511 121.6 191.372 120.888L191.006 120.65L191.219 121.032C191.503 121.551 191.584 122.156 191.448 122.732C191.33 123.257 191.088 123.746 190.743 124.16C190.43 124.516 190.049 124.805 189.621 125.01C189.259 125.188 188.877 125.319 188.482 125.401C187.923 125.516 187.353 125.565 186.782 125.545C186.588 125.519 186.392 125.505 186.196 125.503Z" fill="white"/>
<path d="M201.129 122.639C201.129 122.639 201.24 122.715 201.461 122.775C201.866 122.878 202.291 122.883 202.698 122.79C203.106 122.697 203.486 122.508 203.807 122.239C203.928 122.132 204.027 122.002 204.097 121.856C204.167 121.71 204.207 121.551 204.215 121.389C204.222 121.216 204.181 121.045 204.095 120.894C204.009 120.744 203.883 120.621 203.73 120.539L203.645 120.777H203.73C204.279 120.903 204.85 120.907 205.401 120.788C205.951 120.669 206.469 120.43 206.917 120.089C207.187 119.885 207.425 119.641 207.623 119.366C207.702 119.271 207.763 119.161 207.801 119.043C207.499 119.371 207.169 119.672 206.815 119.944C206.379 120.247 205.885 120.456 205.365 120.558C204.844 120.66 204.308 120.654 203.79 120.539H203.713L202.532 120.276L203.628 120.769C203.741 120.833 203.834 120.927 203.896 121.042C203.957 121.156 203.985 121.285 203.977 121.415C203.957 121.671 203.842 121.911 203.654 122.086C203.308 122.398 202.88 122.605 202.421 122.681C201.991 122.73 201.556 122.716 201.129 122.639Z" fill="white"/>
<path d="M246.814 107.637L247.434 104.118C247.434 104.118 245.377 96.4688 245.59 95.3639C245.802 94.259 246.032 89.0149 246.032 89.0149L251.318 83.0653C251.691 83.0513 252.059 83.1479 252.377 83.3431C252.694 83.5382 252.947 83.8231 253.103 84.1617C253.103 84.1617 255.517 83.9662 256.061 85.5981C256.268 85.4867 256.501 85.4301 256.736 85.4335C256.972 85.4369 257.203 85.5003 257.407 85.6177C257.611 85.7351 257.782 85.9026 257.903 86.1044C258.025 86.3062 258.093 86.5357 258.101 86.771C258.209 87.2735 258.258 87.787 258.245 88.3009C258.594 88.3774 260.6 88.8534 260.617 89.8478C260.555 91.3773 260.269 92.8894 259.767 94.3355C259.661 94.5925 259.495 94.8199 259.282 94.9977C259.068 95.1755 258.814 95.2983 258.543 95.3554L257.948 98.0667C257.948 98.0667 257.429 102.52 256.435 104.594L255.678 105.827L255.449 111.377L246.814 107.637Z" fill="#F0B9A5"/>
<path d="M254.675 87.8843C254.388 86.4637 253.809 85.118 252.975 83.9321L250.953 85.224C251.188 85.9119 251.472 86.5822 251.803 87.2299C251.943 87.6123 252.17 87.9574 252.464 88.2388C252.759 88.5202 253.114 88.7304 253.502 88.8533C253.953 88.9638 254.531 88.8533 254.675 88.4113C254.718 88.2382 254.718 88.0574 254.675 87.8843Z" fill="#F0B9A5"/>
<path d="M250.961 85.2236C250.971 85.3664 251.003 85.5068 251.055 85.64C251.175 86.0064 251.32 86.3642 251.488 86.711C251.59 86.9404 251.692 87.1869 251.811 87.4504C251.941 87.7327 252.113 87.9936 252.321 88.2238C252.558 88.4862 252.848 88.6948 253.171 88.8358C253.35 88.9118 253.542 88.9509 253.736 88.9509C253.931 88.9509 254.123 88.9118 254.302 88.8358C254.397 88.7963 254.484 88.7374 254.555 88.6627C254.627 88.5881 254.682 88.4995 254.718 88.4023C254.765 88.2153 254.765 88.0199 254.718 87.8329C254.664 87.4931 254.584 87.1579 254.48 86.8299C254.31 86.2816 254.091 85.7497 253.826 85.2406C253.596 84.7986 253.384 84.4671 253.239 84.2376C253.164 84.1145 253.079 83.9979 252.984 83.8892C253.04 84.0213 253.105 84.1491 253.18 84.2716C253.316 84.5096 253.503 84.8496 253.715 85.2916C253.967 85.8027 254.174 86.3345 254.336 86.8809C254.426 87.2028 254.5 87.529 254.557 87.8584C254.595 88.0176 254.595 88.1837 254.557 88.3428C254.53 88.4189 254.487 88.4885 254.431 88.5471C254.376 88.6056 254.308 88.6519 254.234 88.6828C254.077 88.7499 253.907 88.7845 253.736 88.7845C253.566 88.7845 253.396 88.7499 253.239 88.6828C252.938 88.5561 252.668 88.3646 252.449 88.1218C252.245 87.9006 252.073 87.6517 251.939 87.3824C251.82 87.1359 251.718 86.8809 251.607 86.66C251.427 86.3204 251.265 85.9715 251.123 85.6145C251.08 85.4801 251.026 85.3494 250.961 85.2236Z" fill="#EB996E"/>
<path d="M254.182 88.794C254.182 88.794 254.182 88.794 254.182 88.913C254.174 89.029 254.174 89.1455 254.182 89.2615C254.212 89.6872 254.324 90.103 254.514 90.4854C254.804 91.0512 255.227 91.5382 255.746 91.9048C255.903 92.0199 256.083 92.1006 256.273 92.1416C256.464 92.1826 256.661 92.183 256.851 92.1428C257.061 92.1034 257.25 91.9922 257.387 91.8283C257.523 91.6531 257.597 91.4381 257.599 91.2164C257.576 90.8167 257.511 90.4207 257.404 90.0349C257.31 89.661 257.208 89.304 257.106 88.964L256.554 87.1791C256.401 86.6777 256.282 86.2612 256.214 85.9807C256.185 85.8261 256.139 85.6751 256.078 85.5303C256.084 85.6853 256.107 85.8391 256.146 85.9892C256.205 86.2867 256.299 86.7032 256.443 87.2131C256.588 87.7231 256.766 88.3436 256.962 89.0065C257.055 89.3465 257.149 89.7035 257.242 90.0689C257.342 90.4414 257.405 90.8229 257.429 91.2079C257.433 91.3924 257.373 91.5726 257.259 91.7178C257.144 91.8523 256.989 91.9474 256.817 91.9898C256.647 92.0218 256.472 92.0195 256.303 91.983C256.133 91.9465 255.973 91.8766 255.831 91.7773C255.329 91.4503 254.91 91.0109 254.607 90.4939C254.41 90.1297 254.284 89.7319 254.233 89.321C254.191 88.998 254.199 88.794 254.182 88.794Z" fill="#EB996E"/>
<path d="M255.474 91.6918C255.474 91.6918 255.474 91.6918 255.423 91.8278C255.372 91.9637 255.372 92.0487 255.338 92.2272C255.259 92.7256 255.259 93.2332 255.338 93.7316C255.437 94.4873 255.787 95.1877 256.332 95.7205C256.665 96.0431 257.11 96.2256 257.573 96.2304C257.699 96.2283 257.824 96.2008 257.939 96.1497C258.055 96.0986 258.158 96.0249 258.245 95.933C258.41 95.7354 258.51 95.4923 258.534 95.236C258.599 94.3249 258.599 93.4103 258.534 92.4992C258.466 91.6493 258.406 90.9268 258.355 90.2894C258.304 89.6519 258.287 89.1504 258.27 88.802C258.281 88.618 258.281 88.4335 258.27 88.2495C258.27 88.2495 258.27 88.3005 258.27 88.394C258.27 88.4875 258.27 88.6235 258.27 88.802C258.27 89.1504 258.27 89.6519 258.27 90.2979C258.27 90.9438 258.364 91.6833 258.415 92.5162C258.475 93.4133 258.475 94.3134 258.415 95.2105C258.395 95.4319 258.309 95.6422 258.168 95.814C258.099 95.8924 258.014 95.9556 257.919 95.9994C257.824 96.0433 257.721 96.067 257.616 96.0689C257.194 96.0588 256.791 95.8922 256.485 95.6015C255.958 95.0962 255.614 94.4291 255.508 93.7061C255.379 93.0418 255.367 92.36 255.474 91.6918Z" fill="#EB996E"/>
<path d="M201.885 88.8956L201.97 88.6831L202.098 88.8701C202.199 89.0155 202.341 89.1279 202.506 89.1931L202.71 89.2781L202.531 89.4056C202.38 89.5031 202.264 89.6459 202.2 89.8135L202.115 90.0175L201.996 89.8305C201.892 89.6871 201.751 89.5752 201.588 89.5075L201.384 89.4225L201.562 89.2951C201.705 89.195 201.817 89.0565 201.885 88.8956Z" fill="#E0E0E0"/>
<path d="M258.492 65.4203L258.636 65.0718L258.857 65.3778C259.03 65.629 259.272 65.824 259.554 65.9387L259.903 66.0832L259.597 66.3042C259.343 66.4742 259.148 66.7173 259.036 67.0011L258.891 67.3496L258.67 67.0436C258.498 66.7924 258.255 66.5974 257.973 66.4827L257.616 66.3382L257.931 66.1172C258.18 65.9424 258.374 65.7008 258.492 65.4203Z" fill="#E0E0E0"/>
<path d="M256.001 52.731L256.239 52.1445L256.613 52.663C256.903 53.0859 257.311 53.414 257.786 53.6064L258.372 53.8444L257.854 54.2184C257.433 54.5104 257.105 54.9177 256.91 55.3913L256.672 55.9778L256.307 55.4593C256.012 55.0378 255.602 54.7103 255.126 54.5159L254.539 54.2779L255.058 53.9124C255.479 53.6174 255.807 53.2073 256.001 52.731Z" fill="#E0E0E0"/>
<path d="M227.332 105.495L227.12 104.892L227.74 105.045C228.238 105.163 228.759 105.139 229.244 104.977L229.848 104.764L229.703 105.385C229.577 105.882 229.6 106.405 229.771 106.889L229.975 107.492L229.355 107.339C228.857 107.221 228.336 107.245 227.851 107.407L227.247 107.62L227.4 106.999C227.518 106.501 227.495 105.98 227.332 105.495Z" fill="#E0E0E0"/>
<path d="M217.015 83.694C215.935 84.9944 214.822 86.2438 213.776 87.5868C213.313 88.1466 212.976 88.8009 212.791 89.5041C212.606 90.2073 212.577 90.9423 212.705 91.658C212.868 92.385 213.179 93.0708 213.617 93.6731C214.056 94.2754 214.613 94.7814 215.255 95.1597C219.225 97.8795 224.086 100.174 229.016 99.5709C232.366 99.0966 235.408 97.3569 237.515 94.7092C237.688 94.492 237.768 94.2159 237.74 93.94C237.711 93.6641 237.576 93.4103 237.363 93.2327C237.15 93.0551 236.876 92.9679 236.599 92.9897C236.323 93.0115 236.066 93.1406 235.883 93.3493C234.302 95.3596 232.079 96.7666 229.585 97.3355C227.434 97.7092 225.223 97.5308 223.16 96.8171C221.182 96.1625 219.297 95.257 217.55 94.1228C216.624 93.6639 215.806 93.0118 215.153 92.2104C214.851 91.7074 214.713 91.1227 214.759 90.5378C214.805 89.9528 215.032 89.3966 215.408 88.9467C216.454 87.6207 217.576 86.3968 218.655 85.0539C218.835 84.8364 218.922 84.5561 218.896 84.2748C218.869 83.9935 218.732 83.7341 218.515 83.5538C218.297 83.3735 218.017 83.2869 217.736 83.3132C217.454 83.3395 217.195 83.4765 217.015 83.694Z" fill="#E8B931"/>
<path d="M239.113 60.2441C240.133 59.0202 241.144 57.7963 242.164 56.5809C242.428 56.2086 242.774 55.9012 243.174 55.6818C243.575 55.4625 244.02 55.3369 244.476 55.3144C245.734 55.3144 246.524 56.1644 247.332 57.0143C250.187 59.9551 252.839 63.7288 253.128 67.9445C253.254 70.7767 252.286 73.5488 250.425 75.6875C250.253 75.9047 250.172 76.1808 250.201 76.4567C250.229 76.7326 250.364 76.9864 250.578 77.164C250.791 77.3416 251.065 77.4288 251.341 77.407C251.618 77.3852 251.875 77.2561 252.057 77.0474C254.037 74.7649 255.187 71.8806 255.321 68.8625C255.315 66.2464 254.626 63.6772 253.324 61.4085C252.145 59.2989 250.684 57.3601 248.98 55.6459C248.137 54.571 246.996 53.7672 245.7 53.3341C244.935 53.1435 244.135 53.1406 243.368 53.3256C242.602 53.5105 241.891 53.8779 241.297 54.3965C239.915 55.7889 238.639 57.2833 237.481 58.8672C237.391 58.9743 237.323 59.0981 237.281 59.2315C237.239 59.3649 237.224 59.5052 237.236 59.6445C237.248 59.7838 237.288 59.9194 237.352 60.0434C237.417 60.1674 237.505 60.2775 237.613 60.3673C237.72 60.4572 237.844 60.525 237.977 60.567C238.11 60.6091 238.251 60.6244 238.39 60.6121C238.529 60.5999 238.665 60.5604 238.789 60.4958C238.913 60.4311 239.023 60.3427 239.113 60.2356V60.2441Z" fill="#E8B931"/>
<path d="M254.37 90.1455L252.134 91.8454V91.9134H252.075L250.817 94.4632C250.817 94.4632 254.735 98.2114 256.401 102.283L259.716 98.3134L259.801 98.2029L263.116 94.2337C258.764 93.3328 254.37 90.1455 254.37 90.1455Z" fill="#E8B931"/>
<path d="M255.329 89.6436L250.468 95.4741C250.318 95.6543 250.135 95.8032 249.928 95.9123C249.721 96.0214 249.495 96.0885 249.262 96.1098C249.029 96.1311 248.794 96.1062 248.57 96.0365C248.347 95.9668 248.14 95.8537 247.96 95.7036C247.774 95.554 247.62 95.3683 247.507 95.1576C247.394 94.9469 247.324 94.7156 247.303 94.4776C247.282 94.2395 247.308 93.9995 247.382 93.7721C247.455 93.5446 247.574 93.3343 247.731 93.1538L252.592 87.3232C252.742 87.1431 252.925 86.9942 253.132 86.8851C253.339 86.776 253.566 86.7089 253.798 86.6876C254.031 86.6662 254.266 86.6912 254.49 86.7609C254.713 86.8306 254.92 86.9437 255.1 87.0938C255.286 87.2434 255.441 87.4291 255.553 87.6398C255.666 87.8505 255.736 88.0818 255.757 88.3198C255.779 88.5579 255.752 88.7979 255.678 89.0253C255.605 89.2528 255.486 89.4631 255.329 89.6436Z" fill="#E8B931"/>
<path d="M235.126 54.3628L223.652 68.1488L223.04 68.8797L212.178 81.8923C212.373 82.2153 238.339 106.15 250.535 90.5617C263.709 75.7132 235.492 54.5073 235.126 54.3628Z" fill="#E8B931"/>
<path d="M235.126 54.3628C235.224 54.4071 235.316 54.4643 235.398 54.5328C235.577 54.6518 235.832 54.8303 236.155 55.0852C236.818 55.5782 237.77 56.3346 238.96 57.3631C242.323 60.2483 245.39 63.4629 248.114 66.9589C250.006 69.3796 251.575 72.0368 252.78 74.8633C254.261 78.1211 254.602 81.7826 253.749 85.258C253.22 87.1135 252.291 88.8308 251.029 90.2897C249.832 91.9011 248.331 93.2613 246.609 94.2929C244.786 95.3155 242.748 95.8976 240.66 95.9928C238.526 96.0889 236.39 95.8568 234.328 95.3043C229.946 94.0584 225.782 92.1495 221.978 89.6437C220.134 88.4708 218.383 87.2384 216.717 85.972C215.867 85.3345 215.085 84.6886 214.311 84.0426L213.156 83.0567C212.773 82.7082 212.433 82.4362 212.025 82.0113L211.932 81.9093L212.042 81.7733C218.842 73.6564 224.613 66.7889 228.684 61.9272L233.427 56.3177L234.685 54.8473L235.016 54.4818C235.049 54.4387 235.086 54.3988 235.126 54.3628C235.098 54.4148 235.064 54.4633 235.024 54.5073L234.701 54.9068L233.469 56.4366L228.811 62.1227L212.357 81.9943L212.221 81.8583L212.374 81.7648L212.425 81.8158L212.561 81.9348L212.833 82.1898L213.385 82.6742L214.566 83.6942C215.348 84.3401 216.147 84.9691 216.972 85.598C218.629 86.8559 220.372 88.0798 222.207 89.2443C225.978 91.7278 230.105 93.6222 234.447 94.8623C236.465 95.4026 238.555 95.6319 240.643 95.5423C242.662 95.4445 244.632 94.8801 246.397 93.8934C248.073 92.8865 249.54 91.5646 250.714 90.0007C251.942 88.5864 252.847 86.9216 253.366 85.1221C254.202 81.7317 253.879 78.159 252.448 74.9738C251.266 72.1817 249.729 69.5535 247.876 67.1544C245.181 63.6535 242.158 60.4176 238.849 57.4906C237.676 56.4961 236.75 55.6462 236.112 55.1532L235.381 54.5668L235.126 54.3628Z" fill="#263238"/>
<g opacity="0.3">
<path d="M235.127 54.3628C236.827 55.7567 238.433 57.0061 239.937 58.3745C250.094 67.5963 256.639 78.0336 252.975 86.8899L250.171 91.1396C250.171 91.1396 253.128 80.2774 247.621 72.441C242.113 64.6045 234.532 55.6887 234.532 55.6887L235.127 54.3628Z" fill="black"/>
</g>
<path d="M270.093 92.0408L255.772 109.193C255.214 108.728 254.753 108.158 254.416 107.515C254.078 106.872 253.871 106.169 253.805 105.446C253.74 104.723 253.817 103.994 254.034 103.301C254.25 102.608 254.601 101.964 255.066 101.407L262.325 92.7463C262.789 92.1884 263.359 91.7276 264.002 91.3902C264.645 91.0528 265.348 90.8454 266.071 90.7799C266.794 90.7143 267.523 90.792 268.216 91.0084C268.909 91.2247 269.553 91.5756 270.11 92.0408H270.093Z" fill="#E8B931"/>
<path d="M272.228 89.0411L253.007 112.111L264.108 121.36L283.329 98.29L272.228 89.0411Z" fill="#263238"/>
<path d="M272.237 94.8721L258.641 111.19L264.08 115.722L277.676 99.4041L272.237 94.8721Z" fill="#455A64"/>
<path d="M230.715 73.631L236.07 74.9229L240.175 71.2427L240.6 76.7333L245.377 79.4956L240.277 81.6034L239.13 87.0005L235.551 82.8018L230.069 83.3713L232.951 78.6711L230.715 73.631Z" fill="white"/>
<path d="M244.697 93.1454L244.629 93.2049L244.434 93.3579C244.166 93.5476 243.882 93.7126 243.584 93.8508C243.126 94.0679 242.644 94.2277 242.147 94.3268C241.493 94.461 240.826 94.5209 240.159 94.5053C239.348 94.4935 238.541 94.411 237.745 94.2588L236.41 94.0038C235.96 93.9018 235.501 93.7743 235.025 93.6638C232.981 93.0965 230.99 92.3514 229.075 91.437C227.154 90.5272 225.289 89.5026 223.491 88.3687C221.791 87.3318 220.364 86.3289 219.148 85.4874C217.933 84.646 216.964 83.9235 216.301 83.4306L215.578 82.8441L215.374 82.6996L215.315 82.6401L215.383 82.6911L215.578 82.8441L216.352 83.3966C217.032 83.881 218.009 84.578 219.225 85.4194C220.44 86.2609 221.902 87.2553 223.568 88.2837C225.356 89.4117 227.209 90.4334 229.118 91.3435C231.034 92.2527 233.024 92.9949 235.067 93.5618C235.543 93.6808 236.002 93.8083 236.453 93.9103L237.779 94.1738C238.573 94.3214 239.377 94.4038 240.184 94.4203C240.848 94.4413 241.513 94.3872 242.164 94.2588C242.657 94.1635 243.136 94.0094 243.592 93.7998C243.889 93.6665 244.174 93.5073 244.442 93.3239L244.646 93.1794L244.697 93.1454Z" fill="white"/>
<path d="M248.233 93.7485C248.185 93.8683 248.153 93.9942 248.139 94.1225C248.13 94.2812 248.157 94.44 248.217 94.5871C248.277 94.7342 248.37 94.8659 248.488 94.9724C248.724 95.1736 248.999 95.324 249.295 95.4144C249.516 95.4909 249.661 95.5334 249.661 95.5419C249.527 95.5411 249.395 95.5181 249.27 95.4739C248.956 95.3977 248.665 95.2493 248.42 95.0404C248.305 94.931 248.215 94.7989 248.155 94.6525C248.095 94.5061 248.067 94.3487 248.071 94.1905C248.084 94.0918 248.116 93.9965 248.165 93.91L248.233 93.7485Z" fill="white"/>
<path d="M255.907 101.356C255.907 101.356 255.848 101.433 255.746 101.577C255.592 101.774 255.453 101.981 255.329 102.198C254.912 102.912 254.66 103.711 254.59 104.535C254.53 105.361 254.649 106.19 254.938 106.966C255.029 107.199 255.134 107.426 255.253 107.646C255.301 107.724 255.341 107.806 255.372 107.892L255.329 107.841L255.219 107.663C255.091 107.447 254.978 107.222 254.879 106.992C254.564 106.213 254.433 105.372 254.496 104.535C254.589 103.44 255.013 102.4 255.712 101.552L255.856 101.399C255.856 101.399 255.907 101.348 255.907 101.356Z" fill="white"/>
<path d="M251.225 95.4833C252.212 94.5171 252.993 93.3605 253.52 92.0835C253.776 91.4481 253.842 90.7513 253.707 90.0792C253.573 89.4071 253.245 88.789 252.763 88.3013L246.813 95.1008L253.477 103.796C255.406 100.481 253.825 96.5457 251.225 95.4833Z" fill="#F0B9A5"/>
<path d="M254.675 102.393C254.675 102.393 254.675 102.342 254.675 102.24C254.675 102.138 254.743 101.993 254.768 101.789C254.862 101.212 254.862 100.624 254.768 100.047C254.624 99.1618 254.291 98.3182 253.791 97.5736C253.166 96.6221 252.281 95.8699 251.241 95.4063V95.5338C251.73 95.0101 252.19 94.4596 252.618 93.8849C253.086 93.2685 253.438 92.5713 253.655 91.8281C253.812 91.183 253.812 90.5098 253.655 89.8647C253.523 89.2475 253.198 88.688 252.728 88.2668L252.669 88.2158L252.618 88.2753L248.368 93.205L247.153 94.6329L246.83 95.0238C246.753 95.1173 246.719 95.1598 246.728 95.1683L246.847 95.0408L247.187 94.6753L248.445 93.2645L252.737 88.3858H252.626C253.06 88.7894 253.357 89.3183 253.476 89.8987C253.612 90.5197 253.594 91.1643 253.425 91.7771C253.218 92.502 252.878 93.1821 252.422 93.7829C252.001 94.3528 251.55 94.9004 251.071 95.4233L250.995 95.4998H251.097C252.13 95.9417 253.014 96.6702 253.646 97.5991C254.141 98.3264 254.48 99.1483 254.641 100.013C254.744 100.574 254.764 101.146 254.7 101.713C254.743 102.18 254.675 102.393 254.675 102.393Z" fill="#EB996E"/>
<path d="M254.99 101.908C257.412 98.721 260.395 95.4062 262.818 92.2104L254.99 101.908Z" fill="#BA68C8"/>
<path d="M262.818 92.1934C261.73 93.9722 260.475 95.6429 259.069 97.1825C258.024 98.4319 257.072 99.5538 256.231 100.582C255.871 101.077 255.454 101.527 254.99 101.925C256.075 100.147 257.327 98.4762 258.729 96.936L261.577 93.5363C261.943 93.0468 262.359 92.5968 262.818 92.1934Z" fill="#263238"/>
<path d="M154.017 323.828L152.955 323.565C152.955 323.565 141.2 339.858 137.715 339.203L146.81 303.311L158.624 306.829C154.799 311.538 153.108 317.054 154.017 323.828Z" fill="#455A64"/>
<path d="M153.889 309.489C153.871 309.117 153.716 308.765 153.454 308.499C153.192 308.234 152.842 308.075 152.47 308.053C152.098 308.059 151.742 308.206 151.475 308.465C151.209 308.724 151.05 309.075 151.033 309.447C151.052 309.84 151.216 310.213 151.494 310.493C151.772 310.773 152.144 310.939 152.538 310.96C152.925 310.915 153.281 310.721 153.53 310.42C153.778 310.119 153.901 309.734 153.872 309.345" fill="white"/>
<path d="M146.81 303.311L149.649 304.16L139.934 338.243C139.934 338.243 138.829 339.662 137.75 339.203L146.81 303.311Z" fill="#263238"/>
<path d="M152.818 323.666C152.648 323.615 152.818 322.714 152.445 321.711C152.071 320.709 151.476 320.063 151.595 319.918C151.714 319.774 152.657 320.292 153.048 321.516C153.439 322.74 152.971 323.743 152.818 323.666Z" fill="#263238"/>
<path d="M150.311 327.032C150.133 327.032 150.022 326.182 149.461 325.417C148.9 324.652 148.127 324.261 148.178 324.091C148.229 323.921 149.249 324.091 149.963 325.043C150.677 325.995 150.481 327.074 150.311 327.032Z" fill="#263238"/>
<path d="M145.262 328.026C145.262 327.865 146.206 327.839 147.047 328.536C147.889 329.233 148.067 330.142 147.897 330.176C147.727 330.21 147.345 329.582 146.639 329.021C145.934 328.46 145.237 328.205 145.262 328.026Z" fill="#263238"/>
<path d="M191.218 400.602L190.81 401.546C190.81 401.546 203.976 414.856 202.837 417.958L171.253 404.121L176.302 393.803C178.156 395.938 180.448 397.651 183.021 398.824C185.595 399.997 188.39 400.603 191.218 400.602Z" fill="#455A64"/>
<path d="M178.028 398.52C177.683 398.478 177.335 398.565 177.051 398.764C176.767 398.964 176.567 399.261 176.489 399.6C176.436 399.942 176.515 400.292 176.711 400.578C176.907 400.864 177.205 401.064 177.543 401.138C177.909 401.178 178.276 401.083 178.576 400.87C178.875 400.657 179.085 400.341 179.167 399.982C179.186 399.62 179.064 399.264 178.826 398.99C178.588 398.716 178.253 398.544 177.892 398.512" fill="white"/>
<path d="M171.253 404.121L172.469 401.639L202.293 415.85C202.293 415.85 203.432 417.074 202.837 418L171.253 404.121Z" fill="#263238"/>
<path d="M190.93 401.682C190.853 401.835 190.08 401.572 189.077 401.733C188.074 401.894 187.377 402.362 187.292 402.243C187.207 402.124 187.802 401.325 188.992 401.147C190.182 400.968 190.981 401.572 190.93 401.682Z" fill="#263238"/>
<path d="M193.59 404.512C193.59 404.674 192.782 404.64 191.966 405.065C191.15 405.49 190.708 406.11 190.555 406.034C190.402 405.957 190.691 405.048 191.703 404.546C192.714 404.045 193.658 404.359 193.59 404.512Z" fill="#263238"/>
<path d="M193.734 409.297C193.581 409.297 193.734 408.448 194.465 407.734C195.196 407.02 196.106 407.045 196.114 407.207C196.123 407.368 195.477 407.615 194.856 408.176C194.236 408.737 193.896 409.357 193.734 409.297Z" fill="#263238"/>
<path d="M175.631 147.762C175.573 147.447 175.4 147.165 175.146 146.97C174.891 146.775 174.573 146.682 174.254 146.708H174.169C173.933 146.756 173.716 146.871 173.545 147.04C173.373 147.209 173.255 147.425 173.205 147.66C173.155 147.896 173.175 148.141 173.263 148.365C173.35 148.589 173.501 148.783 173.698 148.922C173.894 149.061 174.127 149.14 174.367 149.149C174.608 149.157 174.846 149.095 175.051 148.97C175.257 148.845 175.422 148.662 175.525 148.444C175.628 148.227 175.665 147.984 175.631 147.745V147.762Z" fill="#455A64"/>
<path d="M176.83 165.858L184.309 186.511L202.251 215.664L202.787 184.735L197.628 160.834H197.211L193.505 176.635L188.584 170.685L177.391 162.891L176.83 165.858Z" fill="#FAFAFA"/>
<path d="M200.492 174.119C200.065 173.698 199.684 173.233 199.353 172.734C199.013 172.3 198.605 171.782 198.129 171.221C197.637 170.604 197.065 170.055 196.429 169.589L196.761 169.444C196.69 169.733 196.602 170.017 196.497 170.294C195.766 172.122 194.925 173.651 194.381 174.799C193.837 175.946 193.573 176.669 193.531 176.66C193.592 175.965 193.792 175.289 194.117 174.671C194.585 173.49 195.392 171.918 196.098 170.141C196.196 169.892 196.279 169.636 196.344 169.376L196.421 169.07L196.676 169.24C197.353 169.731 197.952 170.321 198.452 170.991C198.919 171.578 199.302 172.13 199.616 172.589C199.974 173.059 200.268 173.573 200.492 174.119Z" fill="#263238"/>
<path d="M202.252 215.664C202.097 215.185 201.986 214.693 201.92 214.193C201.716 213.173 201.444 211.814 201.121 210.173C200.433 206.773 199.421 202.107 198.274 196.948C197.127 191.789 196.073 187.191 195.299 183.74C194.934 182.108 194.636 180.757 194.449 179.737C194.318 179.249 194.227 178.752 194.177 178.25C194.357 178.72 194.502 179.203 194.611 179.694C194.866 180.629 195.214 181.989 195.639 183.672C196.489 187.072 197.585 191.687 198.733 196.846C199.88 202.005 200.849 206.705 201.461 210.114C201.759 211.814 201.997 213.207 202.124 214.168C202.198 214.663 202.241 215.163 202.252 215.664Z" fill="#263238"/>
<path d="M198.766 159.177C193.794 162.806 182.923 163.469 178.325 163.172C172.129 162.738 165.431 160.189 159.482 158.591C153.286 156.967 147.583 157.069 141.404 157.953C135.224 158.837 127.856 163.053 124.218 168.05L126.768 170.779C126.768 170.779 135.267 163.716 143.018 162.679C150.447 161.701 155.037 163.282 163.757 165.586C173.684 168.212 185.685 167.634 189.468 166.614C193.107 165.592 196.585 164.067 199.803 162.084L198.766 159.177Z" fill="#455A64"/>
<path d="M178.614 170.779C178.881 170.921 179.129 171.095 179.354 171.298C179.804 171.646 180.45 172.148 181.249 172.819C182.838 174.12 185.014 175.947 187.394 177.978L187.522 178.089L187.165 178.208C187.573 176.312 187.964 174.536 188.304 172.981L188.372 172.666L188.61 172.862C189.969 173.967 191.091 174.893 191.873 175.547C192.301 175.872 192.696 176.236 193.055 176.635C192.585 176.375 192.141 176.07 191.729 175.726C190.879 175.122 189.748 174.239 188.372 173.176L188.678 173.066L187.598 178.31L187.522 178.675L187.233 178.429L187.105 178.318C184.725 176.287 182.583 174.426 181.045 173.066C180.272 172.386 179.66 171.825 179.235 171.434C179.001 171.243 178.792 171.023 178.614 170.779Z" fill="#263238"/>
<path d="M117.614 191.152C117.665 190.82 115.914 184.131 115.914 184.131L107.415 180.247L108.911 187.999C109.878 188.957 110.893 189.864 111.954 190.718C112.098 190.667 117.614 191.152 117.614 191.152Z" fill="#EB996E"/>
<path d="M130.389 176.898C130.579 179.133 130.103 181.374 129.019 183.337C127.936 185.301 126.295 186.899 124.303 187.93C122.311 188.961 120.059 189.378 117.83 189.128C115.601 188.879 113.497 187.974 111.782 186.528C110.068 185.083 108.821 183.161 108.199 181.006C107.576 178.852 107.607 176.561 108.287 174.424C108.967 172.287 110.265 170.399 112.017 169C113.77 167.601 115.898 166.753 118.133 166.563C121.128 166.309 124.102 167.255 126.401 169.193C128.699 171.131 130.134 173.903 130.389 176.898Z" fill="#BA68C8"/>
<g opacity="0.3">
<path d="M130.389 176.898C130.579 179.133 130.103 181.374 129.019 183.337C127.936 185.301 126.295 186.899 124.303 187.93C122.311 188.961 120.059 189.378 117.83 189.128C115.601 188.879 113.497 187.974 111.782 186.528C110.068 185.083 108.821 183.161 108.199 181.006C107.576 178.852 107.607 176.561 108.287 174.424C108.967 172.287 110.265 170.399 112.017 169C113.77 167.601 115.898 166.753 118.133 166.563C121.128 166.309 124.102 167.255 126.401 169.193C128.699 171.131 130.134 173.903 130.389 176.898Z" fill="black"/>
</g>
<path d="M130.389 175.428C130.579 177.663 130.103 179.903 129.019 181.867C127.936 183.831 126.295 185.429 124.303 186.46C122.311 187.491 120.059 187.908 117.83 187.658C115.601 187.409 113.497 186.504 111.782 185.058C110.068 183.612 108.821 181.691 108.199 179.536C107.576 177.382 107.607 175.091 108.287 172.954C108.967 170.817 110.265 168.929 112.017 167.53C113.77 166.131 115.898 165.283 118.133 165.093C121.128 164.839 124.102 165.785 126.401 167.723C128.699 169.661 130.134 172.433 130.389 175.428Z" fill="#BA68C8"/>
<g opacity="0.3">
<path d="M111.172 177.536C110.977 175.226 111.707 172.932 113.202 171.16C114.697 169.388 116.834 168.282 119.144 168.085H119.51C118.325 168.017 117.138 168.192 116.023 168.598C114.907 169.005 113.887 169.634 113.022 170.448C112.158 171.262 111.469 172.243 110.997 173.333C110.525 174.422 110.279 175.596 110.276 176.783C110.272 177.97 110.511 179.145 110.977 180.237C111.443 181.329 112.126 182.314 112.985 183.133C113.845 183.952 114.862 184.587 115.975 185C117.088 185.413 118.273 185.595 119.459 185.534C117.343 185.432 115.336 184.565 113.811 183.094C112.287 181.623 111.349 179.647 111.172 177.536Z" fill="black"/>
</g>
<g opacity="0.3">
<path d="M123.818 169.436L125.68 167.167L127.099 168.374L125.102 170.448L123.818 169.436Z" fill="white"/>
</g>
<path d="M127.796 176.048C127.662 175.347 127.486 174.655 127.27 173.974C126.599 172.143 125.341 170.586 123.691 169.546C122.478 168.788 121.095 168.345 119.667 168.257C118.239 168.17 116.812 168.44 115.515 169.045C114.769 169.387 114.078 169.84 113.467 170.388C112.818 170.949 112.264 171.612 111.826 172.351C110.879 173.896 110.451 175.703 110.604 177.509C110.757 179.315 111.483 181.025 112.676 182.389C113.234 183.04 113.891 183.599 114.622 184.046C115.318 184.486 116.078 184.816 116.875 185.023C118.032 185.334 119.242 185.401 120.426 185.219C121.611 185.037 122.745 184.611 123.756 183.967C124.767 183.324 125.633 182.477 126.299 181.481C126.966 180.485 127.418 179.362 127.626 178.181C127.728 177.475 127.785 176.762 127.796 176.048C127.912 176.766 127.912 177.498 127.796 178.215C127.609 179.446 127.163 180.623 126.489 181.67C125.814 182.717 124.927 183.609 123.884 184.289C122.84 184.968 121.665 185.42 120.436 185.614C119.206 185.808 117.949 185.74 116.747 185.414C115.038 184.96 113.502 184.008 112.336 182.678C111.069 181.242 110.299 179.437 110.14 177.529C109.98 175.621 110.441 173.713 111.452 172.087C111.909 171.32 112.482 170.629 113.152 170.039C113.796 169.466 114.524 168.996 115.311 168.645C116.762 167.981 118.364 167.716 119.952 167.88C121.638 168.059 123.237 168.72 124.558 169.784C125.878 170.848 126.864 172.271 127.397 173.881C127.651 174.576 127.786 175.308 127.796 176.048Z" fill="#263238"/>
<path d="M114.929 166.801C114.929 166.878 114.3 167.048 113.433 167.651C112.334 168.481 111.373 169.479 110.585 170.609C109.766 171.712 109.187 172.974 108.886 174.315C108.648 175.343 108.639 176.015 108.571 176.015C108.44 175.435 108.44 174.834 108.571 174.255C108.808 172.832 109.392 171.489 110.271 170.346C111.085 169.172 112.118 168.168 113.314 167.388C113.788 167.048 114.347 166.846 114.929 166.801Z" fill="white"/>
<path d="M117.087 166.037C117.087 166.156 116.917 166.309 116.628 166.394C116.339 166.479 116.076 166.394 116.042 166.317C116.008 166.241 116.22 166.037 116.509 165.96C116.798 165.884 117.062 165.918 117.087 166.037Z" fill="white"/>
<path d="M122.782 183.256C121.918 183.835 120.932 184.209 119.9 184.347C118.869 184.486 117.819 184.386 116.833 184.055C116.833 183.927 118.218 184.14 119.858 183.91C121.499 183.681 122.731 183.137 122.782 183.256Z" fill="white"/>
<path d="M127.822 180.392C127.72 180.324 127.907 179.831 128.068 179.21C128.23 178.59 128.298 178.063 128.425 178.054C128.553 178.046 128.68 178.624 128.493 179.321C128.306 180.018 127.924 180.46 127.822 180.392Z" fill="white"/>
<g filter="url(#filter0_d_269_730)">
<path d="M120.257 173.49V181.326H118.438V174.943H116.875V173.49H120.257Z" fill="#5C1D67"/>
</g>
<path d="M118.141 190.157C116.518 189.486 110.73 188.78 110.73 188.78L111.189 186.111C111.189 186.111 114.436 185.142 115.311 183.731C115.559 183.285 115.695 182.785 115.707 182.274C115.718 181.763 115.606 181.257 115.379 180.799L113.586 181.309C114.487 180.391 113.968 178.598 113.968 178.598L111.971 179.023C112.146 178.892 112.292 178.725 112.399 178.534C112.506 178.343 112.571 178.131 112.59 177.913C112.61 177.694 112.583 177.474 112.511 177.267C112.439 177.06 112.325 176.871 112.175 176.711L110.628 177.212C111.563 176.193 109.897 175.079 109.897 175.079C109.897 175.079 102.859 180.57 102.4 181.326C101.941 182.083 102.953 184.097 102.953 184.097C102.391 184.748 102.031 185.548 101.916 186.4C101.873 187.573 103.361 188.007 103.361 188.007C103.271 188.629 103.312 189.262 103.48 189.868C103.769 190.837 108.443 193.54 108.443 193.54L114.589 199.736L120.768 191.287C120.768 191.287 119.765 190.828 118.141 190.157Z" fill="#F0B9A5"/>
<path d="M115.285 180.885C114.818 181.186 114.299 181.397 113.755 181.505C112.489 181.821 111.246 182.219 110.032 182.695C109.387 182.973 108.79 183.352 108.264 183.817C107.78 184.259 107.414 184.667 107.032 185.075C106.335 185.823 105.782 186.163 105.748 186.112C105.714 186.061 106.173 185.661 106.802 184.871C107.168 184.397 107.563 183.945 107.984 183.52C108.527 183.003 109.157 182.586 109.845 182.287C111.085 181.802 112.368 181.437 113.678 181.199C114.204 181.049 114.741 180.944 115.285 180.885Z" fill="#EB996E"/>
<path d="M114.095 189.384C114.095 189.494 112.633 189.171 110.695 189.256H110.398L110.483 188.967C110.593 188.576 110.704 188.117 110.789 187.709C110.91 187.123 110.989 186.53 111.027 185.933V185.754H111.214C111.891 185.679 112.552 185.492 113.169 185.202C113.645 185.006 113.917 184.862 113.942 184.904C113.968 184.947 113.738 185.151 113.288 185.423C112.658 185.812 111.955 186.067 111.222 186.171L111.418 185.975C111.397 186.595 111.326 187.212 111.205 187.82C111.121 188.257 111.01 188.688 110.874 189.112L110.661 188.831C111.833 188.745 113.009 188.934 114.095 189.384Z" fill="#EB996E"/>
<path d="M104.925 183.401C105.208 182.984 105.548 182.609 105.936 182.287L107.126 181.114C107.357 180.864 107.617 180.642 107.9 180.451C108.208 180.258 108.532 180.09 108.869 179.95C110.03 179.499 111.227 179.146 112.447 178.896C112.942 178.749 113.452 178.663 113.968 178.641C113.523 178.904 113.038 179.094 112.532 179.202C111.631 179.491 110.356 179.823 109.047 180.358C108.732 180.485 108.427 180.639 108.138 180.817C107.873 180.988 107.628 181.188 107.407 181.412L106.157 182.508C105.79 182.862 105.376 183.163 104.925 183.401Z" fill="#EB996E"/>
<path d="M103.751 181.599C103.709 181.548 104.1 181.148 104.763 180.545L105.936 179.508L106.641 178.896L107.015 178.581L107.21 178.42C107.288 178.362 107.37 178.31 107.457 178.267C108.527 177.784 109.629 177.376 110.755 177.043C111.207 176.857 111.686 176.745 112.174 176.711C111.767 176.974 111.327 177.183 110.865 177.332C110.015 177.68 108.859 178.097 107.669 178.658L107.482 178.768L107.287 178.921L106.913 179.236L106.191 179.822L104.958 180.791C104.597 181.117 104.19 181.389 103.751 181.599Z" fill="#EB996E"/>
<path d="M129.828 132.625L130.142 131.843L130.627 132.532C131.016 133.086 131.556 133.516 132.182 133.773L132.964 134.096L132.276 134.58C131.72 134.963 131.288 135.501 131.035 136.127L130.712 136.909L130.227 136.22C129.838 135.666 129.299 135.236 128.672 134.98L127.89 134.657L128.587 134.172C129.139 133.784 129.569 133.248 129.828 132.625Z" fill="#BA68C8"/>
<path d="M235.781 222.455L236.095 221.673L236.58 222.362C236.969 222.916 237.508 223.346 238.135 223.603L238.917 223.926L238.22 224.41C237.668 224.802 237.238 225.341 236.979 225.966L236.665 226.739L236.18 226.051C235.791 225.497 235.251 225.066 234.625 224.81L233.843 224.487L234.54 224.002C235.091 223.614 235.521 223.078 235.781 222.455Z" fill="#BA68C8"/>
<path d="M254.063 186.197L254.378 185.424L254.862 186.112C255.253 186.664 255.793 187.095 256.418 187.353L257.2 187.676L256.511 188.161C255.957 188.546 255.527 189.083 255.27 189.708L254.947 190.489L254.463 189.801C254.074 189.247 253.534 188.816 252.907 188.56L252.125 188.237L252.822 187.753C253.376 187.364 253.807 186.824 254.063 186.197Z" fill="#BA68C8"/>
<path d="M99.3582 128.35L99.5452 127.9L99.8257 128.299C100.05 128.622 100.363 128.873 100.727 129.022L101.177 129.209L100.778 129.489C100.455 129.713 100.204 130.026 100.055 130.39L99.8682 130.841L99.5877 130.441C99.3636 130.118 99.0507 129.867 98.6868 129.719L98.2363 129.532L98.6358 129.251C98.9587 129.027 99.2097 128.714 99.3582 128.35Z" fill="#BA68C8"/>
<path d="M236.878 195.937L237.065 195.486L237.346 195.886C237.569 196.209 237.883 196.46 238.247 196.608L238.706 196.795L238.298 197.076C237.979 197.302 237.732 197.615 237.584 197.977L237.397 198.427L237.116 198.028C236.888 197.709 236.576 197.459 236.215 197.305L235.756 197.127L236.156 196.838C236.481 196.616 236.732 196.302 236.878 195.937Z" fill="#BA68C8"/>
<path d="M113.679 104.424L114.435 103.242L115.081 104.509C115.6 105.518 116.396 106.359 117.376 106.931L118.6 107.645L117.342 108.291C116.331 108.811 115.489 109.606 114.911 110.586L114.197 111.81L113.551 110.552C113.035 109.539 112.238 108.695 111.257 108.121L110.033 107.407L111.299 106.761C112.301 106.227 113.127 105.416 113.679 104.424Z" fill="#BA68C8"/>
<defs>
<filter id="filter0_d_269_730" x="112.875" y="173.49" width="11.3828" height="15.8364" filterUnits="userSpaceOnUse" color-interpolation-filters="sRGB">
<feFlood flood-opacity="0" result="BackgroundImageFix"/>
<feColorMatrix in="SourceAlpha" type="matrix" values="0 0 0 0 0 0 0 0 0 0 0 0 0 0 0 0 0 0 127 0" result="hardAlpha"/>
<feOffset dy="4"/>
<feGaussianBlur stdDeviation="2"/>
<feComposite in2="hardAlpha" operator="out"/>
<feColorMatrix type="matrix" values="0 0 0 0 0 0 0 0 0 0 0 0 0 0 0 0 0 0 0.25 0"/>
<feBlend mode="normal" in2="BackgroundImageFix" result="effect1_dropShadow_269_730"/>
<feBlend mode="normal" in="SourceGraphic" in2="effect1_dropShadow_269_730" result="shape"/>
</filter>
</defs>
</svg>
