<svg width="370" height="378" viewBox="0 0 370 378" fill="none" xmlns="http://www.w3.org/2000/svg">
<path d="M31.6758 190.077C32.1615 189.765 32.7138 189.591 33.2802 189.571C33.8465 189.552 34.4082 189.687 34.9118 189.965C35.4117 190.255 35.8853 190.583 36.3939 190.836C36.9166 191.065 37.402 191.381 37.8321 191.773C38.2406 192.191 38.5424 192.713 38.7091 193.29C38.8343 193.88 38.8903 194.484 38.8757 195.089L39.0073 198.742L52.7931 198.237L52.7142 198.321L52.5564 193.581C52.5719 192.754 52.8573 191.959 53.3632 191.332C53.9075 190.776 54.5213 190.303 55.1873 189.927L56.1168 189.299C56.4395 189.071 56.795 188.9 57.1692 188.794C57.9253 188.566 58.7323 188.629 59.4493 188.972L63.3869 191.173L63.115 191.267L69.5256 178.133L69.6484 178.564L65.7108 176.334C65.013 175.866 64.4843 175.16 64.2112 174.329C64.079 173.916 64.0109 173.483 64.0095 173.046V171.875L63.9569 170.695C63.9162 170.033 64.0333 169.372 64.2971 168.772C64.5609 168.173 64.9629 167.654 65.4653 167.266L69.245 164.737L69.1135 165.317L61.7557 152.839L62.3433 152.98L58.5548 155.5C57.8068 155.93 56.9417 156.07 56.1081 155.893C55.6963 155.802 55.3019 155.638 54.9417 155.406L53.9946 154.825L53.0212 154.301C52.6441 154.103 52.3003 153.841 52.0039 153.523C51.41 152.883 51.044 152.041 50.9691 151.144L50.8375 146.375L51.2497 146.797L37.455 147.218L37.8058 146.825L37.9111 151.593C37.8784 152.466 37.5692 153.302 37.0341 153.963C36.7619 154.289 36.4384 154.562 36.0782 154.769L35.1486 155.378L34.2103 155.987C33.709 156.351 33.128 156.569 32.524 156.622C31.92 156.674 31.3136 156.559 30.7638 156.287L26.8525 154.01L27.1683 153.907L20.5647 166.854L20.5033 166.657L24.397 168.933C25.0423 169.372 25.5281 170.033 25.7739 170.807C25.9437 171.586 26.0145 172.387 25.9844 173.186C26.0578 173.981 26.0253 174.782 25.8879 175.566C25.6946 176.351 25.2472 177.038 24.6251 177.505L20.8366 180.006V179.941L28.0803 192.485L31.6758 190.077ZM31.6758 190.077L28.0891 192.475L20.7752 180.006L24.5374 177.496C25.1334 177.042 25.5617 176.379 25.7476 175.622C25.8693 174.848 25.8899 174.06 25.809 173.28C25.8276 172.502 25.7509 171.724 25.5809 170.966C25.3432 170.236 24.8791 169.615 24.2655 169.205L20.363 166.891L20.2402 166.816L20.3016 166.685L26.7473 153.645L26.8525 153.42L27.063 153.542L30.9392 155.734C31.5663 156.027 32.2674 156.086 32.9299 155.902C33.2424 155.798 33.5381 155.643 33.8069 155.443L34.754 154.797L35.7099 154.16C36.0008 153.983 36.2618 153.755 36.4816 153.486C36.9187 152.938 37.1663 152.247 37.1832 151.528L37.0166 146.844V146.459H37.3761L51.162 145.954H51.5654V146.385L51.7145 151.069C51.7683 151.775 52.054 152.439 52.5213 152.942C52.7519 153.184 53.0186 153.384 53.3106 153.532L54.3191 154.066L55.3013 154.666C55.5738 154.836 55.8697 154.96 56.1782 155.031C56.8128 155.161 57.4699 155.052 58.0374 154.722L61.7996 152.258L62.1679 152.015L62.3871 152.408L69.6309 164.952L69.8326 165.308L69.4993 165.523L65.7459 168.006C65.2067 168.409 64.8184 169.003 64.6497 169.683C64.562 170.024 64.5264 170.379 64.5445 170.732V171.922V173.112C64.5471 173.469 64.6033 173.823 64.7111 174.161C64.9158 174.84 65.3341 175.422 65.895 175.81L69.7712 178.077L70.0343 178.226L69.894 178.508L63.2904 191.454L63.1852 191.641L63.0098 191.538L59.1248 189.281C58.4774 188.971 57.751 188.905 57.064 189.093C56.3837 189.354 55.7403 189.713 55.1522 190.161C54.5145 190.519 53.9246 190.966 53.3983 191.492C52.9182 192.066 52.642 192.802 52.6178 193.571L52.7142 198.255V198.34H52.6265L38.9722 198.742L38.8319 195.089C38.8459 194.491 38.7929 193.893 38.674 193.309C38.5053 192.735 38.2036 192.217 37.7971 191.801C37.37 191.41 36.8875 191.093 36.3676 190.864C35.859 190.602 35.3854 190.274 34.8943 189.983C34.3956 189.702 33.8374 189.563 33.2736 189.579C32.7098 189.596 32.1595 189.767 31.6758 190.077Z" fill="#EBEBEB"/>
<path d="M34.5262 168.25C35.3293 165.989 36.7377 164.032 38.5757 162.621C40.4137 161.21 42.5999 160.409 44.8615 160.317C47.1231 160.225 49.36 160.847 51.293 162.104C53.226 163.362 54.7696 165.199 55.7312 167.388C56.3864 168.875 56.7552 170.488 56.8157 172.131C56.8761 173.774 56.627 175.413 56.083 176.951C55.539 178.488 54.7114 179.894 53.6491 181.084C52.5869 182.273 51.3117 183.223 49.8994 183.876C48.5035 184.523 47.0018 184.869 45.4803 184.895C43.9588 184.921 42.4476 184.625 41.0333 184.025C39.6381 183.416 38.3621 182.532 37.2711 181.421C35.6665 179.747 34.5526 177.61 34.0653 175.271C33.5779 172.933 33.738 170.493 34.5262 168.25ZM34.5262 168.25C33.4956 171.244 33.6186 174.552 34.8682 177.449C35.7936 179.554 37.2788 181.322 39.1385 182.531C40.9983 183.74 43.1502 184.338 45.3258 184.249C47.5014 184.16 49.6043 183.388 51.3721 182.031C53.1399 180.673 54.4943 178.79 55.2664 176.615C56.2838 173.717 56.1992 170.508 55.0307 167.676C53.8622 164.843 51.7025 162.612 49.0136 161.458C46.2655 160.292 43.1964 160.339 40.4808 161.589C37.7562 162.891 35.6183 165.282 34.5262 168.25Z" fill="#EBEBEB"/>
<path d="M354.03 179.182L349.198 170.236L346.646 171.819C346.276 172.043 345.855 172.154 345.429 172.139C345.004 172.124 344.591 171.984 344.235 171.735C343.83 171.452 343.411 171.192 342.981 170.957C342.601 170.753 342.282 170.442 342.057 170.057C341.833 169.672 341.712 169.228 341.709 168.774V165.617H332.062V168.765C332.059 169.218 331.939 169.662 331.714 170.047C331.49 170.433 331.17 170.744 330.791 170.948C330.36 171.183 329.942 171.443 329.537 171.725C329.181 171.975 328.768 172.115 328.342 172.129C327.917 172.144 327.496 172.034 327.125 171.809L324.564 170.226L319.732 179.173L322.311 180.756C322.677 180.987 322.975 181.323 323.173 181.724C323.372 182.126 323.462 182.579 323.433 183.032C323.433 183.285 323.433 183.538 323.433 183.791C323.433 184.044 323.433 184.297 323.433 184.55C323.462 185.001 323.373 185.451 323.176 185.852C322.98 186.252 322.683 186.586 322.319 186.817L319.688 188.41L324.521 197.356L327.09 195.773C327.46 195.546 327.882 195.434 328.308 195.451C328.735 195.468 329.148 195.611 329.502 195.867C329.905 196.138 330.317 196.401 330.747 196.635C331.127 196.838 331.446 197.15 331.67 197.535C331.895 197.92 332.015 198.364 332.019 198.817V201.975H341.665V198.817C341.669 198.364 341.789 197.92 342.013 197.535C342.238 197.15 342.557 196.838 342.937 196.635C343.366 196.401 343.814 196.138 344.182 195.867C344.536 195.611 344.949 195.468 345.375 195.451C345.802 195.434 346.224 195.546 346.594 195.773L349.163 197.356L353.995 188.41L351.426 186.826C351.061 186.597 350.762 186.263 350.564 185.863C350.366 185.462 350.276 185.011 350.303 184.559C350.303 184.306 350.303 184.044 350.303 183.791C350.303 183.538 350.303 183.285 350.303 183.032C350.275 182.579 350.365 182.126 350.563 181.724C350.761 181.323 351.06 180.987 351.426 180.756L354.03 179.182ZM344.787 183.801C344.787 185.468 344.324 187.098 343.457 188.485C342.59 189.871 341.357 190.952 339.915 191.59C338.473 192.228 336.886 192.395 335.355 192.07C333.824 191.744 332.417 190.941 331.314 189.762C330.21 188.583 329.458 187.081 329.153 185.445C328.849 183.81 329.005 182.115 329.603 180.574C330.2 179.033 331.212 177.717 332.51 176.79C333.808 175.864 335.333 175.369 336.895 175.369C338.988 175.369 340.995 176.258 342.475 177.839C343.956 179.42 344.787 181.564 344.787 183.801Z" fill="#EBEBEB"/>
<path d="M101.973 99.8354L97.1413 90.8983L94.5806 92.4815C94.21 92.7063 93.7882 92.8166 93.3623 92.8001C92.9364 92.7835 92.5232 92.6408 92.1689 92.3878C91.7639 92.1082 91.3453 91.8518 90.9148 91.6196C90.5353 91.4161 90.2158 91.1046 89.9914 90.7194C89.767 90.3343 89.6466 89.8905 89.6433 89.4369V86.3267H80.0493V89.4837C80.046 89.9373 79.9255 90.3811 79.7011 90.7663C79.4767 91.1514 79.1572 91.4629 78.7777 91.6664C78.3472 91.8986 77.9286 92.1551 77.5236 92.4346C77.1693 92.6876 76.7561 92.8304 76.3302 92.8469C75.9043 92.8635 75.4825 92.7531 75.112 92.5283L72.5512 90.9451L67.7191 99.8822L70.2974 101.465C70.6641 101.698 70.9632 102.035 71.1613 102.439C71.3595 102.842 71.449 103.297 71.4199 103.751C71.4199 104.004 71.4199 104.257 71.4199 104.51C71.4199 104.763 71.4199 105.016 71.4199 105.269C71.4486 105.72 71.3597 106.17 71.163 106.571C70.9664 106.971 70.6698 107.305 70.3062 107.536L67.6753 109.128L72.5074 118.075L75.0769 116.492C75.4466 116.265 75.868 116.154 76.2939 116.168C76.7198 116.183 77.1334 116.324 77.4885 116.576C77.8904 116.859 78.3061 117.118 78.7338 117.354C79.1126 117.556 79.4319 117.865 79.6563 118.249C79.8807 118.632 80.0015 119.075 80.0054 119.527V122.693H89.652V119.527C89.6559 119.075 89.7768 118.632 90.0012 118.249C90.2256 117.865 90.5448 117.556 90.9236 117.354C91.3513 117.118 91.767 116.859 92.1689 116.576C92.524 116.324 92.9377 116.183 93.3635 116.168C93.7894 116.154 94.2108 116.265 94.5806 116.492L97.1501 118.075L101.982 109.128L99.4039 107.545C99.0409 107.311 98.745 106.975 98.5486 106.574C98.3522 106.172 98.2628 105.721 98.2901 105.269C98.2901 105.016 98.2901 104.763 98.2901 104.51C98.2901 104.257 98.2901 104.004 98.2901 103.751C98.261 103.297 98.3506 102.842 98.5487 102.439C98.7469 102.035 99.0459 101.698 99.4126 101.465L101.973 99.8354ZM92.7302 104.463C92.7302 106.131 92.2673 107.761 91.4 109.147C90.5327 110.534 89.3001 111.614 87.8579 112.253C86.4157 112.891 84.8287 113.058 83.2977 112.732C81.7667 112.407 80.3603 111.604 79.2565 110.425C78.1527 109.246 77.401 107.744 77.0965 106.108C76.7919 104.473 76.9482 102.777 77.5456 101.237C78.143 99.6961 79.1546 98.3793 80.4525 97.4529C81.7505 96.5264 83.2765 96.0319 84.8375 96.0319C85.8762 96.0282 86.9053 96.2436 87.866 96.6656C88.8266 97.0877 89.6998 97.7082 90.4355 98.4914C91.1712 99.2747 91.7549 100.205 92.1532 101.23C92.5515 102.255 92.7565 103.354 92.7565 104.463H92.7302Z" fill="#EBEBEB"/>
<path d="M308.525 30.1184H224.021C224.021 30.1184 232.395 5.67725 245.296 5.67725C258.196 5.67725 262.23 22.5397 262.23 22.5397C262.23 22.5397 270.929 13.3684 278.077 13.3684C285.224 13.3684 291.398 25.4344 291.398 25.4344C291.398 25.4344 301.535 18.9424 308.525 30.1184Z" fill="#EBEBEB"/>
<path d="M172.797 176.653H88.2842C88.2842 176.653 96.668 152.211 109.559 152.211C122.451 152.211 126.494 169.074 126.494 169.074C126.494 169.074 135.193 159.903 142.34 159.903C149.488 159.903 155.705 172.025 155.705 172.025C155.705 172.025 165.799 165.514 172.797 176.653Z" fill="#EBEBEB"/>
<path opacity="0.5" d="M360.362 111.292H320.899C320.899 111.292 329.721 97.6338 336.684 97.6338C343.647 97.6338 345.691 106.74 345.691 106.74C345.691 106.74 350.602 102.486 355.144 103.245C359.687 104.004 360.362 111.292 360.362 111.292Z" fill="#EBEBEB"/>
<path opacity="0.5" d="M250.768 136.67H211.305C211.305 136.67 220.136 123.012 227.09 123.012C234.044 123.012 236.096 132.117 236.096 132.117C236.096 132.117 241.007 127.874 245.55 128.633C250.093 129.391 250.768 136.67 250.768 136.67Z" fill="#EBEBEB"/>
<path d="M76.9185 136.408H0C0 136.408 10.5236 111.283 21.8013 109.709C33.0791 108.135 38.4637 128.379 38.4637 128.379C38.4637 128.379 45.7337 121.222 51.4515 121.222C57.1693 121.222 61.5804 130.646 61.5804 130.646C61.5804 130.646 73.0336 124.192 76.9185 136.408Z" fill="#EBEBEB"/>
<path opacity="0.5" d="M130.545 69.3047H78.5762C78.5762 69.3047 87.5037 51.112 97.1853 50.8403C106.867 50.5686 111.962 64.6207 111.962 64.6207C111.962 64.6207 127.02 51.6647 130.545 69.3047Z" fill="#EBEBEB"/>
<path d="M89.9592 306.972H23.4678V377.532H89.9592V306.972Z" fill="#BA68C8"/>
<path opacity="0.1" d="M43.0592 306.972H23.4678V377.532H43.0592V306.972Z" fill="black"/>
<path d="M176.261 274.511H109.77V377.531H176.261V274.511Z" fill="#BA68C8"/>
<path opacity="0.1" d="M129.361 274.511H109.77V377.531H129.361V274.511Z" fill="black"/>
<path d="M262.554 242.042H196.063V377.522H262.554V242.042Z" fill="#BA68C8"/>
<path opacity="0.1" d="M215.654 242.042H196.063V377.522H215.654V242.042Z" fill="black"/>
<path d="M348.856 209.582H282.365V377.532H348.856V209.582Z" fill="#BA68C8"/>
<path opacity="0.1" d="M301.956 209.582H282.365V377.532H301.956V209.582Z" fill="black"/>
<path d="M23.3711 216.364C24.9935 216.364 26.879 216.317 28.6329 216.27C30.3868 216.224 32.2197 216.149 34.0174 216.055C37.6218 215.896 41.2261 215.671 44.8392 215.409C52.0654 214.912 59.2915 214.191 66.509 213.376C80.9496 211.708 95.3377 209.482 109.673 206.696C124.009 203.911 138.221 200.56 152.311 196.644C166.395 192.672 180.316 188.085 194.072 182.883C207.822 177.686 221.316 171.745 234.5 165.084C247.733 158.463 260.583 151.002 272.981 142.741L282.225 136.445L291.205 129.71C294.239 127.527 297.098 125.082 299.974 122.693L304.307 119.096L306.481 117.297L308.569 115.424L316.9 107.77C318.32 106.533 319.601 105.128 320.934 103.788L324.915 99.7321L328.897 95.6664C330.212 94.2987 331.422 92.856 332.685 91.404L340.218 82.8135L340.718 83.2631L333.562 92.2565C332.352 93.746 331.203 95.2917 329.94 96.725L326.125 101.006L322.311 105.297C321.03 106.711 319.803 108.191 318.434 109.512L310.384 117.653L308.367 119.686L306.262 121.606L302.044 125.457C299.229 128.024 296.458 130.637 293.485 132.998L284.715 140.277L275.612 147.088C263.423 156.115 250.737 164.352 237.622 171.754C224.503 179.21 211.039 185.955 197.282 191.96C183.531 197.968 169.558 203.364 155.363 208.148C141.168 212.932 126.821 217.092 112.322 220.627C97.8283 224.218 83.2122 227.247 68.4734 229.714C61.1069 230.922 53.7228 232.046 46.2949 232.946C42.5766 233.405 38.8583 233.826 35.1136 234.191C33.2457 234.379 31.369 234.538 29.4923 234.697C27.6156 234.857 25.7564 234.988 23.7043 235.1L23.3711 216.364Z" fill="#BA68C8"/>
<path d="M342.937 93.9518L338.631 85.2957L329.809 82.6071L348.953 71.6465L342.937 93.9518Z" fill="#BA68C8"/>
<path d="M321.609 204.279H309.051C309.051 204.279 308.077 201.253 311.682 189.599C315.286 177.946 317.54 166.947 312.69 155.509C307.841 144.071 304.675 129.859 309.91 115.526C315.83 99.3384 317.461 99.6007 309.761 76.5366C309.086 74.5225 309.761 74.4382 310.638 75.731C311.515 77.0238 317.242 92.2749 317.917 96.4531C317.917 96.4531 323.433 86.6635 325.459 86.523C327.485 86.3824 326.783 86.7572 325.459 88.3966C315.988 100.069 310.778 119.039 310.507 128.389C310.235 137.738 314.821 147.809 314.821 147.809C314.821 147.809 321.013 137.738 325.055 133.569C329.098 129.4 331.79 123.068 329.633 117.456C327.476 111.845 336.412 120.192 330.396 129.391C330.396 129.391 339.464 127.517 341.621 131.405C343.779 135.293 335.693 126.805 327.748 134.431C323.009 138.952 319.437 144.697 317.373 151.116C317.373 151.116 325.117 169.936 322.635 180.466C318.654 197.59 321.609 204.279 321.609 204.279Z" fill="#BA68C8"/>
<path opacity="0.5" d="M321.609 204.279H309.051C309.051 204.279 308.077 201.253 311.682 189.599C315.286 177.946 317.54 166.947 312.69 155.509C307.841 144.071 304.675 129.859 309.91 115.526C315.83 99.3384 317.461 99.6007 309.761 76.5366C309.086 74.5225 309.761 74.4382 310.638 75.731C311.515 77.0238 317.242 92.2749 317.917 96.4531C317.917 96.4531 323.433 86.6635 325.459 86.523C327.485 86.3824 326.783 86.7572 325.459 88.3966C315.988 100.069 310.778 119.039 310.507 128.389C310.235 137.738 314.821 147.809 314.821 147.809C314.821 147.809 321.013 137.738 325.055 133.569C329.098 129.4 331.79 123.068 329.633 117.456C327.476 111.845 336.412 120.192 330.396 129.391C330.396 129.391 339.464 127.517 341.621 131.405C343.779 135.293 335.693 126.805 327.748 134.431C323.009 138.952 319.437 144.697 317.373 151.116C317.373 151.116 325.117 169.936 322.635 180.466C318.654 197.59 321.609 204.279 321.609 204.279Z" fill="black"/>
<path d="M319.153 148.774C319.153 148.774 330.422 145.448 336.535 157.205C336.535 157.242 325.047 159.491 319.153 148.774Z" fill="#37474F"/>
<path d="M291.511 84.3023C291.511 84.3023 301.842 78.4473 310.199 88.546C310.199 88.546 299.43 93.3987 291.511 84.3023Z" fill="#37474F"/>
<path d="M322.021 145.532C323.742 143.749 325.973 142.632 328.357 142.361C330.741 142.089 333.142 142.678 335.176 144.033C335.176 144.033 329.055 149.691 322.021 145.532Z" fill="#37474F"/>
<path d="M316.935 85.2111C317.277 82.6809 318.403 80.346 320.132 78.5786C321.861 76.8112 324.095 75.713 326.476 75.459C326.476 75.459 324.88 83.9183 316.935 85.2111Z" fill="#37474F"/>
<path d="M294.133 114.599C296.49 114.16 298.916 114.575 301.026 115.779C303.137 116.982 304.81 118.905 305.779 121.241C305.779 121.241 297.764 122.253 294.133 114.599Z" fill="#37474F"/>
<path d="M301.027 173.018L301.737 182.048L303.921 209.581H327.301L329.484 182.048L330.195 173.018H301.027Z" fill="#455A64"/>
<path d="M301.027 173.018L301.737 182.048H329.484L330.195 173.018H301.027Z" fill="#263238"/>
<path d="M298.729 178.058H332.492V169.393H298.729V178.058Z" fill="#455A64"/>
<path d="M222.345 234.341H236.868C236.868 234.341 227.598 220.542 225.467 213.141C222.363 202.19 227.782 191.594 235.158 185.749C238.508 183.088 241.954 186.976 246.804 185.749C252.776 184.212 252.636 178.873 252.399 178.348C252.162 177.823 251.329 183.032 248.47 184.025C241.91 186.376 239.7 181.074 233.807 183.219C234.035 180.989 234.068 178.74 233.904 176.503C233.632 172.755 237.297 161.851 247.058 162.966C248.312 163.116 247.549 162.198 245.252 162.029C243.629 161.99 242.017 162.309 240.516 162.966C241.745 161.423 242.528 159.532 242.77 157.523C242.998 154.488 244.708 152.605 244.524 152.127C244.339 151.649 242.893 152.708 242.261 155.874C242.261 155.874 240.823 160.839 239.104 162.432C237.385 164.024 233.842 168.418 232.965 172.737C232.965 172.737 232.711 170.048 232.281 164.877C231.966 161.083 229.799 158.029 229.256 158.272C228.712 158.516 231.334 161.842 231.466 165.401C231.597 168.961 230.966 172.821 231.615 175.781C232.667 180.512 231.553 185.683 229.44 188.288C227.326 190.892 221.819 196.204 221.547 205.74C221.275 215.277 224.599 230.359 222.345 234.341Z" fill="#BA68C8"/>
<g opacity="0.5">
<path d="M222.345 234.341H236.868C236.868 234.341 227.598 220.542 225.467 213.141C222.363 202.19 227.782 191.594 235.158 185.749C238.508 183.088 241.954 186.976 246.804 185.749C252.776 184.212 252.636 178.873 252.399 178.348C252.162 177.823 251.329 183.032 248.47 184.025C241.91 186.376 239.7 181.074 233.807 183.219C234.035 180.989 234.068 178.74 233.904 176.503C233.632 172.755 237.297 161.851 247.058 162.966C248.312 163.116 247.549 162.198 245.252 162.029C243.629 161.99 242.017 162.309 240.516 162.966C241.745 161.423 242.528 159.532 242.77 157.523C242.998 154.488 244.708 152.605 244.524 152.127C244.339 151.649 242.893 152.708 242.261 155.874C242.261 155.874 240.823 160.839 239.104 162.432C237.385 164.024 233.842 168.418 232.965 172.737C232.965 172.737 232.711 170.048 232.281 164.877C231.966 161.083 229.799 158.029 229.256 158.272C228.712 158.516 231.334 161.842 231.466 165.401C231.597 168.961 230.966 172.821 231.615 175.781C232.667 180.512 231.553 185.683 229.44 188.288C227.326 190.892 221.819 196.204 221.547 205.74C221.275 215.277 224.599 230.359 222.345 234.341Z" fill="black"/>
</g>
<path d="M231.106 181.534C231.106 181.534 221.126 183.248 216.925 172.493C216.925 172.512 227.002 171.735 231.106 181.534Z" fill="#37474F"/>
<path d="M230.501 184.025C229.343 185.854 227.644 187.217 225.677 187.897C223.709 188.576 221.586 188.532 219.644 187.772C219.644 187.772 223.871 181.88 230.501 184.025Z" fill="#37474F"/>
<path d="M261.317 189.646C259.305 190.148 257.192 189.916 255.317 188.988C253.442 188.059 251.911 186.487 250.969 184.522C250.969 184.522 257.836 183.229 261.317 189.646Z" fill="#37474F"/>
<path d="M240.279 159.19C238.246 158.787 236.397 157.669 235.028 156.014C233.658 154.359 232.845 152.262 232.72 150.057C232.72 150.057 239.499 151.818 240.279 159.19Z" fill="#37474F"/>
<path d="M215.917 205.609L216.627 214.64L218.811 242.172H242.2L244.374 214.64L245.094 205.609H215.917Z" fill="#455A64"/>
<path d="M215.917 205.609L216.627 214.64H244.374L245.094 205.609H215.917Z" fill="#263238"/>
<path d="M213.619 210.649H247.382V201.984H213.619V210.649Z" fill="#455A64"/>
<path d="M132.904 264.318H144.672C144.672 264.318 137.157 253.133 135.464 247.137C132.947 238.266 137.341 229.685 143.313 224.945C146.032 222.79 148.82 225.938 152.749 224.945C157.59 223.689 157.476 219.324 157.283 218.94C157.09 218.556 156.406 222.687 154.1 223.549C148.785 225.422 146.979 221.15 142.217 222.893C142.139 221.088 142.171 219.279 142.313 217.478C142.796 211.089 147.689 206.471 147.689 206.471C148.683 205.219 149.316 203.686 149.513 202.058C149.697 199.595 151.083 198.077 150.934 197.684C150.785 197.29 149.618 198.152 149.11 200.728C149.11 200.728 147.943 204.747 146.549 206.04C145.155 207.333 142.287 210.892 141.559 214.368C141.559 214.368 140.41 224.851 138.691 226.968C136.973 229.085 132.553 233.376 132.298 241.104C132.044 248.833 134.728 261.133 132.904 264.318Z" fill="#BA68C8"/>
<g opacity="0.5">
<path d="M132.904 264.318H144.672C144.672 264.318 137.157 253.133 135.464 247.137C132.947 238.266 137.341 229.685 143.313 224.945C146.032 222.79 148.82 225.938 152.749 224.945C157.59 223.689 157.476 219.324 157.283 218.94C157.09 218.556 156.406 222.687 154.1 223.549C148.785 225.422 146.979 221.15 142.217 222.893C142.139 221.088 142.171 219.279 142.313 217.478C142.796 211.089 147.689 206.471 147.689 206.471C148.683 205.219 149.316 203.686 149.513 202.058C149.697 199.595 151.083 198.077 150.934 197.684C150.785 197.29 149.618 198.152 149.11 200.728C149.11 200.728 147.943 204.747 146.549 206.04C145.155 207.333 142.287 210.892 141.559 214.368C141.559 214.368 140.41 224.851 138.691 226.968C136.973 229.085 132.553 233.376 132.298 241.104C132.044 248.833 134.728 261.133 132.904 264.318Z" fill="black"/>
</g>
<path d="M140.235 217.591C138.164 217.522 136.174 216.713 134.585 215.293C132.995 213.874 131.897 211.925 131.466 209.76C131.466 209.76 138.438 210.425 140.235 217.591Z" fill="#37474F"/>
<path d="M167.115 213.731C166.379 215.795 165.019 217.537 163.25 218.681C161.482 219.825 159.407 220.305 157.354 220.045C157.354 220.045 160.178 213.197 167.115 213.731Z" fill="#37474F"/>
<path d="M149.917 197.853C148.068 196.863 146.583 195.24 145.697 193.244C144.812 191.247 144.578 188.991 145.032 186.836C145.032 186.836 151.083 190.536 149.917 197.853Z" fill="#37474F"/>
<path d="M123.59 237.948L124.3 246.979L126.484 274.511H149.864L152.047 246.979L152.758 237.948H123.59Z" fill="#455A64"/>
<path d="M123.59 237.948L124.3 246.979H152.047L152.758 237.948H123.59Z" fill="#263238"/>
<path d="M121.293 242.988H155.056V234.322H121.293V242.988Z" fill="#455A64"/>
<path d="M52.9596 285.294H62.2554C62.2554 285.294 56.3184 276.451 54.9766 271.71C52.9947 264.703 57.2392 256.89 60.8435 254.445C63.1061 252.928 65.5352 254.96 68.6397 254.155C72.4633 253.218 72.3756 249.752 72.2265 249.415C72.0774 249.077 71.5425 252.394 69.7096 253.049C65.5089 254.558 64.0795 251.176 60.3173 252.534C60.3173 252.534 60.4576 247.119 56.5464 244.618C55.8448 244.168 58.16 246.745 58.7739 249.789C59.048 250.812 59.0768 251.892 58.8576 252.93C58.6385 253.968 58.1784 254.93 57.5198 255.729C56.178 257.415 52.6439 260.797 52.4685 266.914C52.2931 273.031 54.3978 282.765 52.9596 285.294Z" fill="#BA68C8"/>
<g opacity="0.5">
<path d="M52.9596 285.294H62.2554C62.2554 285.294 56.3184 276.451 54.9766 271.71C52.9947 264.703 57.2392 256.89 60.8435 254.445C63.1061 252.928 65.5352 254.96 68.6397 254.155C72.4633 253.218 72.3756 249.752 72.2265 249.415C72.0774 249.077 71.5425 252.394 69.7096 253.049C65.5089 254.558 64.0795 251.176 60.3173 252.534C60.3173 252.534 60.4576 247.119 56.5464 244.618C55.8448 244.168 58.16 246.745 58.7739 249.789C59.048 250.812 59.0768 251.892 58.8576 252.93C58.6385 253.968 58.1784 254.93 57.5198 255.729C56.178 257.415 52.6439 260.797 52.4685 266.914C52.2931 273.031 54.3978 282.765 52.9596 285.294Z" fill="black"/>
</g>
<path d="M42.1289 270.408L42.8392 279.439L45.0229 306.971H68.4028L70.5864 279.439L71.2967 270.408H42.1289Z" fill="#455A64"/>
<path d="M42.1289 270.408L42.8392 279.439H70.5864L71.2967 270.408H42.1289Z" fill="#263238"/>
<path d="M39.8316 275.448H73.5947V266.783H39.8316V275.448Z" fill="#455A64"/>
<path d="M2.32373 377.532L48.2854 377.298L94.2383 377.223L186.162 377.063L278.085 377.213L324.047 377.298L370 377.532L324.047 377.757L278.085 377.841L186.162 378L94.2383 377.841L48.2854 377.757L2.32373 377.532Z" fill="#263238"/>
<path d="M197.938 48.5451C197.938 48.6387 198.069 48.6294 198.069 48.5451C198.192 44.1234 202.27 41.1818 202.138 36.6758C202.024 34.6863 201.382 32.7726 200.288 31.158C199.565 30.1184 198.78 29.1295 197.938 28.1977L197.605 27.7106C196.88 26.7015 196.24 25.6263 195.693 24.4973C195.134 23.1682 194.799 21.7444 194.702 20.2911C194.43 17.4807 194.342 14.6703 192.527 12.4969C190.937 10.7303 188.882 9.52156 186.634 9.03072C181.67 7.73793 175.759 8.66537 172.471 13.2089C171.894 14.0114 171.432 14.9019 171.103 15.8506C169.315 17.3327 168.003 19.3725 167.349 21.6869C166.578 24.8721 168.568 27.4764 168.384 29.0689C168.226 30.4648 167.419 31.6639 166.893 32.9192C166.327 33.9812 165.834 35.0865 165.42 36.2261C164.931 37.8276 164.891 39.5471 165.306 41.1724C165.611 42.6639 166.252 44.0531 167.174 45.2194C168.1 46.2665 169.287 47.0105 170.594 47.3647C170.901 47.4677 171.217 47.5614 171.532 47.6457C172.62 48.2828 173.804 48.7605 174.847 49.5193C175.987 50.3349 176.807 51.5679 177.154 52.9855C177.513 54.297 177.636 55.6648 177.908 56.995C178.148 58.2347 178.613 59.4122 179.276 60.4612C180.638 62.5126 182.595 64.0271 184.845 64.7705C187.47 65.595 190.249 65.6981 192.922 65.0703C194.116 64.9025 195.265 64.4721 196.296 63.8062C197.327 63.1403 198.217 62.2533 198.911 61.2013C199.487 60.2226 199.863 59.125 200.014 57.9804C200.165 56.8358 200.088 55.67 199.788 54.5593C199.319 53.2521 198.732 51.9971 198.034 50.8121C197.393 49.6075 197.12 48.2187 197.254 46.8401C197.85 42.2966 201.946 38.7461 200.884 33.8654C200.575 32.6252 200.071 31.4501 199.394 30.3898C200.659 31.9644 201.488 33.8851 201.788 35.9357C201.946 38.1562 201.396 40.3686 200.227 42.2123C199.166 44.1702 197.911 46.1937 197.938 48.5451ZM170.752 47.1773C168.956 46.6673 167.424 45.4174 166.49 43.7018C165.466 41.7795 165.059 39.552 165.332 37.3596C165.536 36.324 165.875 35.3242 166.341 34.39C166.339 34.365 166.339 34.34 166.341 34.315C166.167 34.9831 166.049 35.6666 165.99 36.3573C165.833 38.5774 166.242 40.8015 167.174 42.7931C167.996 44.5792 169.245 46.1015 170.796 47.2054L170.752 47.1773Z" fill="#263238"/>
<path d="M180.216 49.6132C183.653 68.1057 192.405 84.3312 197.544 85.5958C204.911 87.3945 224.564 84.9963 233.5 82.1671C236.131 81.3334 229.668 59.6839 226.861 60.5364C223.476 61.6043 203.788 66.5132 203.438 66.5038C202.675 66.5038 190.844 49.7069 188.012 45.3602C182.811 37.3973 178.348 39.552 180.216 49.6132Z" fill="#F0B9A5"/>
<path d="M244.506 78.6817C240.77 81.0986 231.351 82.8598 228.904 82.3446C226.458 81.8293 223.143 64.7889 224.791 62.7279C226.44 60.6669 239.595 53.5379 244.041 54.1749C248.487 54.8119 248.364 76.1804 244.506 78.6817Z" fill="#F0B9A5"/>
<path d="M288.293 63.7676L286.609 72.1145L293.23 76.4051L288.293 63.7676Z" fill="#37474F"/>
<path d="M269.832 77.5299L264.886 88.4156L288.547 73.3893L286.933 70.6538L269.832 77.5299Z" fill="#455A64"/>
<path d="M254.249 65.801C254.249 65.801 250.18 50.0908 246.234 49.154C242.288 48.2172 234.561 73.2767 241.849 81.1271C244.173 83.6564 248.812 82.6915 248.812 82.6915L254.249 65.801ZM243.164 79.0474C237.508 72.9394 243.305 51.9831 246.383 52.7045C249.461 53.4258 252.811 67.1125 252.811 67.1125L248.558 80.2278C248.558 80.2278 244.971 81.0053 243.164 79.0474Z" fill="#455A64"/>
<path d="M270.868 95.5256L244.752 90.2982L256.258 49.8564L272.981 53.3695L270.868 95.5256Z" fill="#37474F"/>
<path d="M256.257 49.8565L254.109 46.3154L275.568 50.353L272.981 53.3696L256.257 49.8565Z" fill="#455A64"/>
<path d="M291.511 65.3044C291.511 65.3044 293.791 62.0537 294.536 63.4308C295.282 64.8079 291.511 65.3044 291.511 65.3044Z" fill="#455A64"/>
<path d="M292.274 70.4944C292.274 70.4944 295.028 67.684 295.545 69.2016C296.062 70.7192 292.274 70.4944 292.274 70.4944Z" fill="#455A64"/>
<path d="M296.764 66.9907C296.764 66.9907 300.211 65.295 300.272 66.8876C300.333 68.4802 296.764 66.9907 296.764 66.9907Z" fill="#455A64"/>
<path d="M298.694 71.0189C298.694 71.0189 302.263 69.6325 302.202 71.2344C302.14 72.8363 298.694 71.0189 298.694 71.0189Z" fill="#455A64"/>
<path d="M298.597 63.5622C298.597 63.5622 301.702 61.2201 302.017 62.7846C302.333 64.3491 298.597 63.5622 298.597 63.5622Z" fill="#455A64"/>
<path d="M302.885 66.8317C302.885 66.8317 306.516 65.6232 306.393 67.2158C306.27 68.8084 302.885 66.8317 302.885 66.8317Z" fill="#455A64"/>
<path d="M294.028 76.0215C294.028 76.0215 297.79 76.621 297.001 77.9794C296.211 79.3378 294.028 76.0215 294.028 76.0215Z" fill="#455A64"/>
<path d="M302.026 82.7661C302.026 82.7661 304.894 85.436 303.544 86.1292C302.193 86.8225 302.026 82.7661 302.026 82.7661Z" fill="#455A64"/>
<path d="M297.737 80.2188C297.737 80.2188 301.035 82.2423 299.833 83.1978C298.632 84.1533 297.737 80.2188 297.737 80.2188Z" fill="#455A64"/>
<path d="M295.379 73.7636C295.379 73.7636 299.124 73.1079 298.764 74.7004C298.404 76.293 295.379 73.7636 295.379 73.7636Z" fill="#455A64"/>
<path d="M300.167 77.0049C300.167 77.0049 303.674 78.4663 302.666 79.6092C301.657 80.7521 300.167 77.0049 300.167 77.0049Z" fill="#455A64"/>
<path d="M237.025 54.6903C235.956 56.8731 238.981 56.9667 238.981 56.9667C238.981 56.9667 234.596 57.9035 234.307 60.714C234.017 63.5244 237.692 63.3089 237.955 63.3089C237.727 63.3651 233.719 64.3768 233.693 67.1404C233.667 69.904 237.341 69.3044 237.578 69.2576C237.367 69.3887 234.702 71.1312 235.131 73.1828C235.859 76.7895 242.796 72.6488 245.453 73.5856C245.453 73.5856 244.488 78.5788 244.488 78.7287C244.488 78.7287 251.162 74.9815 252.136 71.0375C252.287 70.4736 252.253 69.8713 252.039 69.331C251.825 68.7907 251.444 68.3449 250.96 68.0679C250.96 68.0679 253.241 67.1311 253.328 64.9296C253.328 63.8148 251.732 62.7468 251.732 62.7468C252.239 62.4967 252.671 62.1018 252.98 61.6058C253.29 61.1099 253.465 60.5321 253.486 59.9364C253.486 58.3907 251.82 57.5757 251.82 57.5757C251.82 57.5757 253.188 55.8988 252.697 54.3249C251.697 51.1305 239.341 50.0063 237.025 54.6903Z" fill="#F0B9A5"/>
<path d="M251.819 62.6812C251.863 62.6812 251.881 62.6063 251.819 62.5875C247.249 60.9787 242.291 61.168 237.841 63.1215C237.691 63.1965 237.621 63.4307 237.841 63.3557C240.892 62.1847 247.864 61.9693 251.819 62.6812Z" fill="#263238"/>
<path d="M237.323 69.4641C241.708 67.5905 246.181 67.4219 250.811 67.9371C250.872 67.9371 250.881 67.8528 250.811 67.8341C248.61 66.8973 245.619 66.8972 243.295 67.1221C241.136 67.2788 239.051 68.0308 237.244 69.3048C237.192 69.3704 237.236 69.5203 237.323 69.4641Z" fill="#263238"/>
<path d="M238.998 56.9668C238.175 57.2417 237.376 57.5961 236.613 58.0254C235.855 58.4063 235.204 58.9945 234.727 59.7304C234.528 60.0844 234.456 60.5042 234.526 60.9107C234.607 61.3158 234.782 61.6927 235.034 62.0068C235.31 62.2976 235.64 62.5229 236.002 62.6682C236.365 62.8135 236.752 62.8754 237.139 62.8499H239.033L237.279 63.59C236.49 63.9094 235.755 64.3652 235.104 64.939C234.792 65.1879 234.531 65.504 234.339 65.867C234.147 66.2301 234.029 66.6319 233.991 67.0468C233.96 67.4335 234.054 67.8199 234.259 68.1408C234.463 68.4616 234.765 68.6973 235.113 68.808C235.894 69.0426 236.718 69.062 237.507 68.8642L239.709 68.3864L237.788 69.5949C237.253 69.9363 236.758 70.3452 236.315 70.8127C235.882 71.2433 235.577 71.8004 235.438 72.4147C235.386 72.693 235.409 72.9812 235.503 73.2464C235.598 73.5115 235.761 73.7428 235.973 73.9136C236.506 74.2358 237.116 74.3825 237.727 74.3351C239.026 74.2726 240.32 74.1003 241.594 73.8199C242.243 73.7075 242.892 73.5857 243.55 73.5014C244.202 73.3807 244.871 73.4062 245.514 73.5763C244.867 73.4855 244.209 73.5268 243.576 73.6981C242.936 73.8292 242.296 73.9979 241.655 74.1665C240.373 74.5464 239.061 74.7973 237.735 74.9159C237.018 74.9878 236.297 74.8382 235.657 74.485C235.327 74.2506 235.068 73.9183 234.912 73.5289C234.756 73.1394 234.71 72.7098 234.78 72.2929C234.936 71.5268 235.299 70.8264 235.824 70.2788C236.305 69.749 236.847 69.2863 237.437 68.9017L237.718 69.6417C236.787 69.9038 235.808 69.9038 234.876 69.6417C234.366 69.4694 233.927 69.1157 233.631 68.6394C233.36 68.1605 233.229 67.6059 233.254 67.0468C233.301 66.5222 233.451 66.0141 233.694 65.5557C233.938 65.0972 234.269 64.6988 234.666 64.3863C235.371 63.7587 236.168 63.2587 237.025 62.9061L237.157 63.6087C236.674 63.622 236.195 63.5224 235.753 63.3168C235.311 63.1113 234.916 62.8049 234.596 62.419C234.302 62.0122 234.112 61.5314 234.043 61.0231C233.973 60.505 234.085 59.9774 234.359 59.543C234.905 58.7716 235.644 58.1806 236.49 57.838C237.292 57.4449 238.133 57.1526 238.998 56.9668Z" fill="#263238"/>
<path d="M226.835 61.0984C226.835 61.0984 237.613 45.0134 241.41 52.6016C242.55 54.8499 244.699 65.5482 242.69 66.0447C240.06 66.6911 238.428 62.4099 237.779 59.5433C237.779 59.5433 234.833 65.5669 230.299 64.6207C229.474 64.4318 228.713 64.0028 228.102 63.3812C227.491 62.7596 227.052 61.9695 226.835 61.0984Z" fill="#F0B9A5"/>
<path d="M241.077 51.9829C241.617 52.8096 242.042 53.7151 242.34 54.6715C242.665 55.6214 242.926 56.5951 243.12 57.585C243.552 59.5573 243.816 61.567 243.91 63.5899C243.938 64.1279 243.894 64.6674 243.778 65.1918C243.707 65.4934 243.575 65.7747 243.392 66.0162C243.292 66.147 243.174 66.2607 243.041 66.3535C242.903 66.4359 242.756 66.4988 242.603 66.5408C242.048 66.6646 241.471 66.575 240.972 66.2879C240.518 66.0178 240.112 65.666 239.77 65.248C239.145 64.4404 238.652 63.5248 238.315 62.5407C237.954 61.5911 237.661 60.6141 237.438 59.6179L238.043 59.6834C237.687 60.3508 237.27 60.9785 236.797 61.557C236.343 62.1555 235.832 62.7018 235.271 63.1871C234.7 63.6567 234.068 64.0353 233.395 64.3112C232.73 64.5883 232.021 64.725 231.308 64.7141C232.002 64.6255 232.678 64.4133 233.307 64.0864C233.922 63.7588 234.491 63.3427 235 62.8498C235.516 62.3626 235.983 61.8195 236.394 61.2292C236.81 60.6436 237.171 60.0161 237.473 59.3556L237.85 58.5499L238.087 59.4305C238.322 60.3863 238.615 61.3251 238.963 62.2409C239.296 63.1316 239.754 63.9626 240.323 64.7047C240.555 65.0508 240.866 65.3274 241.227 65.5078C241.588 65.6883 241.986 65.7666 242.384 65.7352C243.015 65.6321 243.138 64.5361 243.138 63.5993C243.124 62.6129 243.062 61.628 242.954 60.6483C242.866 59.7115 242.761 58.6717 242.603 57.688C242.375 55.7132 241.86 53.7884 241.077 51.9829Z" fill="#263238"/>
<path d="M211.926 64.1438L213.347 87.0673C213.347 87.0673 199.21 89.1002 195.308 85.6434C191.405 82.1866 182.399 65.193 180.207 51.7405C178.014 38.288 182.539 36.2364 189.915 47.6654C197.29 59.0944 203.174 66.1111 203.525 66.0923C203.876 66.0736 211.926 64.1438 211.926 64.1438Z" fill="#BA68C8"/>
<path d="M208.085 65.9792C208.085 65.9618 208.079 65.9451 208.067 65.9328C208.056 65.9205 208.04 65.9136 208.024 65.9136C208.008 65.9136 207.992 65.9205 207.981 65.9328C207.969 65.9451 207.963 65.9618 207.963 65.9792C207.952 72.7263 208.289 79.4689 208.971 86.1766C208.971 86.2516 209.094 86.2422 209.094 86.1766C209.1 79.4296 208.763 72.6872 208.085 65.9792Z" fill="#263238"/>
<path opacity="0.1" d="M201.744 87.5544C199.061 87.3483 196.623 86.7955 195.316 85.6808C191.414 82.2146 182.407 65.2397 180.206 51.7779C178.61 42.0538 180.539 38.2879 184.512 41.2669L201.744 87.5544Z" fill="black"/>
<path d="M167.815 276.779C166.131 276.985 121.134 266.736 119.652 265.181C119.082 264.61 120.099 257.518 121.555 248.984C121.559 248.896 121.559 248.809 121.555 248.721C121.853 246.96 129.781 217.535 129.781 217.535L159.106 224.917L150.705 254.951L150.582 255.476C150.582 255.476 166.166 267.654 167.63 269.528C169.095 271.401 169.498 276.572 167.815 276.779Z" fill="#F0B9A5"/>
<path d="M120.845 253.228C119.793 259.785 119.179 264.703 119.652 265.181C121.134 266.746 166.131 276.985 167.824 276.779C169.517 276.573 169.078 271.43 167.631 269.547C166.754 268.394 160.615 263.439 155.95 259.729C159.072 262.427 163.562 268.882 144.304 262.277C132.421 258.193 124.993 255.101 120.845 253.228Z" fill="#263238"/>
<path d="M184.845 79.769C184.845 79.769 187.362 102.739 182.925 107.976C182.925 107.976 176.093 160.044 173.278 175.285C169.569 195.389 154.59 246.623 154.59 246.623L122.502 238.332C122.502 238.332 142.777 173.065 142.935 171.754C143.812 164.316 149.074 112.67 148.653 111.396C143.19 94.9265 150.451 79.769 150.451 79.769H184.845Z" fill="#37474F"/>
<path d="M153.976 237.405C149.503 236.094 150.81 236.375 146.32 235.129C144.128 234.52 129.658 230.52 127.527 230.445C127.474 230.445 127.457 230.557 127.527 230.576C129.474 231.597 143.987 235.26 146.197 235.794C150.714 236.918 149.433 236.525 153.967 237.583C154.011 237.611 154.055 237.433 153.976 237.405Z" fill="#263238"/>
<path d="M150.539 231.737L160.255 195.202L162.658 186.059L163.833 181.478C164.239 179.968 164.556 178.431 164.78 176.878C165.657 170.62 166.394 164.335 167.166 158.058L171.893 120.408L173.077 110.993L173.682 106.309C173.796 105.513 173.875 104.754 174.006 103.929C174.079 103.556 174.123 103.177 174.138 102.796V101.616C174.26 95.2921 174.225 88.95 174.199 82.6172C174.331 88.95 174.48 95.2828 174.462 101.616C174.462 102.018 174.462 102.412 174.462 102.815C174.441 103.223 174.398 103.63 174.331 104.033C174.217 104.763 174.129 105.588 174.024 106.356L173.445 111.04L172.314 120.455L167.806 158.142C166.999 164.419 166.21 170.686 165.307 176.953C165.075 178.536 164.747 180.1 164.324 181.637L163.123 186.218L160.668 195.343L155.669 213.573L150.539 231.737Z" fill="#263238"/>
<path d="M182.916 107.957C182.916 107.957 180.233 128.427 177.541 147.444L150.442 79.769H184.846C184.846 79.769 187.354 102.721 182.916 107.957Z" fill="#263238"/>
<path d="M237.903 242.183C236.298 242.745 190.284 242.361 188.547 241.152C187.881 240.712 192.827 197.047 192.827 197.047L222.223 198.396L217.031 225.039C217.031 225.039 234.57 233.601 236.324 235.138C238.078 236.674 239.499 241.62 237.903 242.183Z" fill="#F0B9A5"/>
<path d="M237.902 242.173C237.192 242.426 227.914 242.492 217.583 242.389H215.531L210.225 242.314L208.173 242.267L206.156 242.22L203.139 242.145L201.254 242.089L199.447 242.033C198.57 242.033 197.693 241.976 196.913 241.93L195.317 241.864C194.317 241.817 193.405 241.761 192.598 241.705C192.186 241.705 191.8 241.649 191.449 241.62C190.573 241.545 189.862 241.471 189.38 241.386C189.12 241.359 188.866 241.29 188.626 241.18C188.389 241.03 188.538 235.709 188.827 228.796C193.265 229.91 201.394 231.653 213.821 233.564C234.254 236.702 228.159 230.828 224.695 228.833L224.59 228.777L225.239 229.105L225.353 229.152L226.537 229.76L227.835 230.416C228.545 230.782 229.264 231.147 229.948 231.512C230.632 231.878 231.308 232.215 231.93 232.552L233.018 233.124L233.517 233.405L234.175 233.77C234.631 234.023 235.052 234.257 235.385 234.473C235.472 234.51 235.554 234.557 235.631 234.613C235.911 234.779 236.18 234.963 236.438 235.166C238.113 236.665 239.498 241.62 237.902 242.173Z" fill="#263238"/>
<path d="M220.871 212.795L190.072 213.198C190.072 213.198 197.701 153.523 196.903 150.694C196.596 149.589 159.194 113.391 159.194 113.391C145.794 99.2824 150.424 79.7407 150.424 79.7407H184.845C184.845 79.7407 185.31 85.474 187.116 87.6473C197.465 100.051 223.87 125.672 227.878 137.101C232.947 151.406 220.871 212.795 220.871 212.795Z" fill="#37474F"/>
<path d="M150.539 92.4067C150.645 94.5964 151.025 96.761 151.67 98.8426C152.284 100.916 153.092 102.919 154.082 104.819C156.07 108.627 158.53 112.131 161.396 115.237C164.202 118.412 167.263 121.335 170.306 124.277C171.832 125.751 173.369 127.206 174.918 128.642L179.558 132.98C177.891 131.696 176.269 130.338 174.638 128.998C173.007 127.659 171.446 126.188 169.858 124.829C166.719 122.019 163.649 119.04 160.764 115.874C157.869 112.695 155.42 109.085 153.494 105.157C151.522 101.239 150.506 96.8544 150.539 92.4067Z" fill="#263238"/>
<path d="M176.856 82.5801C176.785 83.9927 176.882 85.4092 177.146 86.7957C177.263 87.4844 177.476 88.1506 177.777 88.7723C178.154 89.3438 178.601 89.8778 179.031 90.4118C180.785 92.5289 182.539 94.5899 184.389 96.6602L195.229 109.064C198.853 113.192 202.44 117.354 205.989 121.551C209.549 125.748 213.092 129.982 216.512 134.31C217.389 135.406 218.187 136.512 218.977 137.664C219.363 138.245 219.748 138.826 220.099 139.463C220.288 139.786 220.432 140.136 220.529 140.503C220.623 140.853 220.696 141.21 220.748 141.571C221.047 144.407 221.106 147.266 220.924 150.114C220.66 155.735 220.117 161.412 219.468 167.023C218.161 178.265 216.512 189.441 214.653 200.57C215.478 194.987 216.243 189.391 216.951 183.783C217.688 178.162 218.372 172.541 218.959 166.92C219.547 161.3 220.09 155.679 220.327 150.058C220.495 147.247 220.427 144.425 220.126 141.627C220.076 141.289 220.009 140.954 219.924 140.624C219.837 140.314 219.71 140.017 219.547 139.744C219.222 139.154 218.845 138.582 218.459 138.011C217.679 136.887 216.846 135.79 216.013 134.704C209.251 126.02 201.981 117.748 194.895 109.41L184.188 96.8757C182.434 94.7679 180.68 92.6601 178.926 90.4961C178.505 89.9527 178.049 89.4187 177.698 88.8286C177.397 88.1887 177.19 87.503 177.084 86.7957C176.843 85.4062 176.766 83.9899 176.856 82.5801Z" fill="#263238"/>
<path d="M218.469 204.991C214.163 204.851 215.399 204.804 211.093 204.738C208.989 204.738 195.133 204.523 193.168 205.019C193.124 205.019 193.124 205.141 193.168 205.151C195.141 205.638 208.953 205.46 211.093 205.432C215.399 205.366 214.163 205.31 218.469 205.179C218.556 205.179 218.556 204.991 218.469 204.991Z" fill="#263238"/>
<path d="M186.757 73.9614L185.056 79.7695C185.056 79.7695 161.834 82.4019 150.539 79.7695C150.539 79.7695 158.51 50.2883 171.586 42.1382C178.11 38.0631 183.74 40.377 186.266 45.5481C186.906 46.8596 191.528 59.4409 191.528 64.7245C191.519 70.3266 186.757 73.9614 186.757 73.9614Z" fill="#BA68C8"/>
<path d="M186.494 71.3849C184.955 71.2305 183.409 71.1649 181.864 71.1882C181.083 71.1882 180.32 71.2725 179.549 71.3568L178.444 71.5067C178.049 71.5629 177.646 71.6753 177.242 71.7315C177.242 71.7315 177.242 71.8065 177.242 71.7971C177.619 71.7971 178.014 71.7971 178.391 71.7971H179.549L181.864 71.7128C183.407 71.6472 184.942 71.591 186.485 71.5723C186.582 71.5161 186.573 71.3943 186.494 71.3849Z" fill="#263238"/>
<path d="M170.375 42.9996C154.529 52.9203 139.945 65.614 139.682 71.6096C139.375 79.6848 146.829 97.025 151.477 105.644C152.845 108.182 171.077 96.4348 169.621 93.7181C167.867 90.4487 158.501 73.6611 158.422 73.2958C158.264 72.4995 170.524 54.1194 173.559 49.8101C178.68 42.6061 177.391 38.5966 170.375 42.9996Z" fill="#F0B9A5"/>
<path d="M183.004 118C182.583 118.55 182.014 118.948 181.374 119.14C180.734 119.333 180.054 119.311 179.426 119.077C179.32 120.279 178.824 121.402 178.023 122.253C176.549 123.687 173.805 121.841 173.805 121.841C173.452 123.06 172.764 124.137 171.831 124.932C170.288 126.15 167.271 124.708 167.271 124.708C166.364 125.637 165.176 126.188 163.921 126.263C160.571 126.319 157.782 121.71 156.028 118.768C154.275 115.827 151.696 105.822 151.03 103.957L168.402 91.5073C168.402 91.5073 179.917 102.103 181.557 105.84C182.934 109.026 184.547 115.836 183.004 118Z" fill="#F0B9A5"/>
<path d="M179.628 118.75C178.9 115.003 177.181 111.724 175.637 108.333C175.637 108.258 175.488 108.333 175.523 108.398C177.093 111.752 178.023 115.396 179.47 118.806C179.481 118.822 179.496 118.833 179.514 118.839C179.531 118.845 179.55 118.845 179.568 118.839C179.585 118.832 179.6 118.821 179.611 118.805C179.622 118.789 179.628 118.769 179.628 118.75Z" fill="#263238"/>
<path d="M173.997 121.616C173.756 120.785 173.414 119.992 172.98 119.256C172.559 118.45 172.103 117.654 171.691 116.867C170.814 115.274 169.937 113.719 168.946 112.183C168.902 112.117 168.797 112.183 168.841 112.239C169.718 113.822 170.594 115.415 171.375 117.035C171.778 117.841 172.182 118.656 172.576 119.471C172.9 120.269 173.306 121.026 173.787 121.729C173.805 121.749 173.829 121.763 173.855 121.768C173.881 121.773 173.907 121.769 173.931 121.756C173.955 121.744 173.974 121.723 173.986 121.698C173.998 121.673 174.002 121.644 173.997 121.616Z" fill="#263238"/>
<path d="M167.236 124.643C167.006 123.896 166.659 123.196 166.21 122.572C165.798 121.86 165.386 121.148 164.982 120.427C164.167 118.994 163.351 117.56 162.58 116.09C162.58 116.015 162.439 116.09 162.474 116.146C163.246 117.645 164 119.144 164.781 120.633L165.991 122.863C166.295 123.559 166.711 124.193 167.219 124.736C167.219 124.736 167.245 124.68 167.236 124.643Z" fill="#263238"/>
<path d="M163.439 81.6426L142.944 90.8608C142.944 90.8608 138.077 75.0663 139.875 69.9888C141.672 64.9113 156.212 50.7843 167.394 44.1705C178.575 37.5567 179.952 41.6224 172.252 52.7985C164.552 63.9745 159.098 72.8461 159.264 73.1927C159.431 73.5393 163.439 81.6426 163.439 81.6426Z" fill="#BA68C8"/>
<path d="M160.176 77.4651C160.238 77.4651 160.176 77.3152 160.124 77.3434C154.166 79.5919 148.329 82.1877 142.637 85.1188C142.576 85.1188 142.637 85.2593 142.69 85.2406C148.646 82.988 154.483 80.3924 160.176 77.4651Z" fill="#263238"/>
<path d="M163.439 81.6425C162.676 80.2748 161.939 78.8977 161.203 77.5206L159.019 73.3612L158.975 73.2113L159.072 73.0614L162.115 68.1807C163.132 66.5506 164.184 64.9487 165.219 63.3374C166.254 61.7261 167.315 60.1241 168.376 58.5409C169.437 56.9578 170.525 55.3652 171.621 53.8569C170.665 55.5244 169.7 57.192 168.709 58.8314C167.718 60.4708 166.727 62.1195 165.701 63.7402C164.675 65.3609 163.693 67.0003 162.65 68.6116L159.536 73.4361V73.1363L161.536 77.3894C162.158 78.7478 162.816 80.1811 163.439 81.6425Z" fill="#263238"/>
<path d="M168.621 58.5035C169.012 57.9097 169.461 57.3631 169.963 56.8735C170.456 56.3752 170.987 55.9209 171.55 55.5151C171.39 55.8512 171.193 56.1657 170.963 56.4519C170.745 56.7277 170.514 56.9904 170.27 57.2389C169.771 57.7308 169.217 58.1555 168.621 58.5035Z" fill="#263238"/>
<path d="M177.522 41.1351C177.61 41.9595 180.592 47.6178 184.03 47.8895C185.152 47.9738 185.871 41.463 185.871 41.463L186.029 40.9946L188.204 34.437L181.381 28.3946L180.381 27.5796C180.381 27.5796 179.899 29.4532 179.311 31.7109L179.233 32.0388C179.233 32.1699 179.162 32.2823 179.127 32.4041L178.864 33.444C178.794 33.7157 178.733 33.9686 178.671 34.2496L178.487 35.0927C178.04 37.0818 177.718 39.1004 177.522 41.1351Z" fill="#F0B9A5"/>
<path d="M179.312 31.7109C179.739 33.684 180.561 35.5352 181.72 37.1376C182.88 38.74 184.35 40.0557 186.03 40.9946L188.204 34.437L181.382 28.3946L180.382 27.5796C180.382 27.5796 179.9 29.4157 179.312 31.7109Z" fill="#263238"/>
<path d="M197.693 22.8309C199.447 34.8875 192.887 37.3794 190.449 37.8197C188.239 38.1851 180.671 39.1219 177.75 27.3275C174.83 15.5332 179.504 10.8398 184.538 9.71565C189.572 8.59149 195.93 10.7649 197.693 22.8309Z" fill="#F0B9A5"/>
<path d="M195.133 19.8131C194.861 19.8131 194.607 19.8131 194.344 19.8131C194.063 19.8337 193.783 19.7582 193.546 19.5976C193.481 19.5313 193.438 19.4442 193.424 19.3495C193.409 19.2548 193.425 19.1577 193.467 19.073C193.577 18.9218 193.723 18.8042 193.889 18.7319C194.055 18.6596 194.236 18.6351 194.414 18.6608C194.782 18.6585 195.138 18.802 195.413 19.0637C195.463 19.1272 195.495 19.2039 195.508 19.2856C195.52 19.3672 195.511 19.4509 195.482 19.5276C195.453 19.6044 195.406 19.6715 195.344 19.7217C195.283 19.7719 195.21 19.8035 195.133 19.8131Z" fill="#263238"/>
<path d="M187.836 22.1277C188.1 22.1202 188.363 22.0983 188.625 22.0621C188.904 22.0841 189.182 22.0049 189.414 21.8373C189.478 21.7698 189.519 21.6822 189.531 21.5875C189.544 21.4929 189.528 21.3964 189.484 21.3127C189.373 21.1611 189.225 21.0445 189.057 20.9752C188.889 20.906 188.706 20.8866 188.528 20.9192C188.161 20.9244 187.808 21.0745 187.537 21.3408C187.481 21.406 187.442 21.4873 187.427 21.5749C187.412 21.6626 187.421 21.753 187.452 21.8357C187.483 21.9183 187.536 21.9897 187.604 22.0414C187.672 22.0931 187.752 22.1231 187.836 22.1277Z" fill="#263238"/>
<path d="M189.889 24.5439C189.889 24.5439 189.836 24.6002 189.845 24.6283C190.003 25.4433 190.064 26.3988 189.415 26.811C190.257 26.5581 190.16 25.284 189.889 24.5439Z" fill="#263238"/>
<path d="M189.064 23.8233C187.81 23.9638 188.187 26.6337 189.318 26.4932C190.45 26.3527 190.108 23.7109 189.064 23.8233Z" fill="#263238"/>
<path d="M188.59 24.0392C188.388 24.2171 188.213 24.5169 187.959 24.5825C187.704 24.6481 187.389 24.4232 187.161 24.1797C187.222 24.6949 187.476 25.1821 187.994 25.1821C188.511 25.1821 188.748 24.6855 188.801 24.1516C188.792 24.0954 188.669 23.9642 188.59 24.0392Z" fill="#263238"/>
<path d="M194.055 23.626C194.055 23.626 194.116 23.626 194.116 23.6822C194.195 24.5159 194.414 25.4434 195.151 25.6214C194.318 25.6588 194.055 24.4223 194.055 23.626Z" fill="#263238"/>
<path d="M194.668 22.6236C195.896 22.3519 196.325 24.9937 195.185 25.2466C194.045 25.4996 193.633 22.8953 194.668 22.6236Z" fill="#263238"/>
<path d="M195.212 22.7457C195.431 22.8488 195.668 23.0642 195.896 23.0361C196.124 23.008 196.325 22.6801 196.457 22.3804C196.457 22.3804 196.457 22.3804 196.501 22.3804C196.597 22.8862 196.501 23.439 196.08 23.617C195.659 23.7949 195.308 23.4109 195.115 22.9237C195.08 22.8581 195.124 22.6989 195.212 22.7457Z" fill="#263238"/>
<path d="M190.783 31.055C190.985 31.2237 191.186 31.4766 191.476 31.4766C191.764 31.4366 192.041 31.3346 192.291 31.1768C192.291 31.1768 192.335 31.1768 192.291 31.1768C192.194 31.35 192.054 31.4918 191.888 31.5874C191.721 31.6831 191.533 31.7289 191.344 31.7202C191.185 31.6868 191.038 31.607 190.919 31.4896C190.799 31.3722 190.713 31.2218 190.669 31.055C190.669 31.0389 190.675 31.0234 190.686 31.012C190.696 31.0006 190.711 30.9941 190.726 30.9941C190.741 30.9941 190.756 31.0006 190.766 31.012C190.777 31.0234 190.783 31.0389 190.783 31.055Z" fill="#263238"/>
<path d="M193.572 27.5513C193.572 27.5513 193.905 28.7504 193.984 29.3312C193.984 29.3874 193.87 29.4343 193.686 29.4717C193.236 29.6315 192.754 29.6584 192.29 29.5496C191.827 29.4407 191.4 29.2002 191.055 28.8534C191.011 28.8066 191.055 28.7317 191.125 28.7598C191.887 29.1539 192.749 29.2723 193.58 29.097C193.58 28.9284 192.949 27.0642 193.028 27.0454C193.457 27.0136 193.887 27.0451 194.308 27.1391C193.677 24.6191 192.677 22.2209 192.081 19.7009C192.081 19.6072 192.186 19.5604 192.221 19.6353C193.369 22.1676 194.277 24.8164 194.931 27.5419C194.975 27.8604 193.8 27.6075 193.572 27.5513Z" fill="#263238"/>
<path d="M177.76 28.2453C179.707 28.1704 179.698 23.7861 179.698 23.7861C179.698 23.7861 183.627 23.3271 184.276 17.1442C184.359 18.9637 183.938 20.7691 183.065 22.3341C183.065 22.3341 189.906 20.7134 192.168 14.1745C192.168 14.1745 191.291 17.4721 190.37 18.718C192.065 17.9362 193.459 16.5619 194.326 14.8209C194.326 14.8209 195.922 18.2403 196.956 19.1115C196.956 19.1115 195.299 6.21172 184.223 8.94718C184.223 8.94718 177.251 10.2868 175.357 16.5353C173.463 22.7838 177.76 28.2453 177.76 28.2453Z" fill="#263238"/>
<path d="M180.022 27.7205C180.022 27.7205 177.453 23.9733 175.856 24.9101C174.26 25.8469 176.234 31.3741 178.145 32.086C178.385 32.1952 178.643 32.2516 178.903 32.252C179.163 32.2524 179.421 32.1967 179.661 32.0883C179.901 31.9799 180.118 31.8209 180.299 31.621C180.48 31.421 180.621 31.1841 180.715 30.9244L180.022 27.7205Z" fill="#F0B9A5"/>
<path d="M176.514 26.5117C176.514 26.5117 176.514 26.5117 176.514 26.5679C177.141 26.8716 177.699 27.3144 178.153 27.8669C178.607 28.4193 178.945 29.0687 179.145 29.7718C179.065 29.6316 178.958 29.5116 178.83 29.4201C178.702 29.3286 178.558 29.2679 178.406 29.242C178.254 29.2162 178.099 29.2259 177.951 29.2705C177.803 29.315 177.666 29.3934 177.549 29.5001C177.549 29.5001 177.549 29.5844 177.549 29.5751C177.781 29.4895 178.033 29.4832 178.268 29.5571C178.504 29.6309 178.712 29.7813 178.864 29.9873C179.115 30.3347 179.333 30.7082 179.513 31.1021C179.575 31.2332 179.794 31.1583 179.741 31.0084C179.68 29.1816 178.312 26.6522 176.514 26.5117Z" fill="#263238"/>
<path d="M185.872 41.5756L183.285 46.7093L177.751 39.2148L175.752 41.1821C175.752 41.1821 180.733 52.7048 180.821 52.227L183.382 47.8428L186.012 51.4214L186.626 43.3087L185.872 41.5756Z" fill="white"/>
<path d="M186.547 47.3837C186.599 46.0347 186.696 44.6857 186.696 43.3461C186.696 43.2993 186.625 43.2618 186.617 43.3461C186.231 44.6108 186.029 49.7445 185.898 50.9623C185.784 50.8031 183.416 47.7959 183.389 47.8334C182.863 48.5173 180.987 51.7024 180.855 52.0022C180.066 50.1286 177.014 43.4866 176.041 41.6973C176.041 41.6411 175.944 41.6973 175.962 41.6973C176.628 43.571 180.645 52.5924 180.724 52.5736C181.693 51.0629 182.589 49.4994 183.407 47.8896C184.246 49.2254 185.172 50.4964 186.178 51.693C186.368 50.2641 186.491 48.8258 186.547 47.3837Z" fill="#263238"/>
</svg>
