<svg width="303" height="280" viewBox="0 0 303 280" fill="none" xmlns="http://www.w3.org/2000/svg">
<path d="M44.9059 258.955C103.778 287.011 199.223 287.019 258.094 258.955C316.966 230.89 316.958 185.406 258.094 157.35C199.231 129.294 103.778 129.294 44.9059 157.35C-13.9657 185.406 -13.9572 230.899 44.9059 258.955Z" fill="#F5F5F5"/>
<path d="M257.89 238.22C268.732 238.22 277.522 234.032 277.522 228.865C277.522 223.699 268.732 219.51 257.89 219.51C247.047 219.51 238.257 223.699 238.257 228.865C238.257 234.032 247.047 238.22 257.89 238.22Z" fill="#EBEBEB"/>
<path d="M40.4375 230.207L47.3832 226.2C51.2611 223.036 54.2127 218.883 55.9264 214.18C58.0708 208.268 57.7718 203.774 56.234 201.519C54.3459 198.742 49.4506 199.229 49.2542 205.073C48.8441 216.589 45.4866 224.577 40.4375 230.207Z" fill="#BA68C8"/>
<path opacity="0.2" d="M40.4375 230.207L47.3832 226.2C51.2611 223.036 54.2127 218.883 55.9264 214.18C58.0708 208.268 57.7718 203.774 56.234 201.519C54.3459 198.742 49.4506 199.229 49.2542 205.073C48.8441 216.589 45.4866 224.577 40.4375 230.207Z" fill="black"/>
<path d="M40.438 230.635C40.3476 230.633 40.2598 230.604 40.1874 230.55C40.115 230.495 40.0616 230.42 40.035 230.333C40.0084 230.247 40.0099 230.154 40.0394 230.068C40.0688 229.983 40.1246 229.909 40.1988 229.857C56.2602 218.751 53.1504 203.262 53.1162 203.108C53.1045 203.052 53.1038 202.994 53.1144 202.938C53.125 202.882 53.1466 202.828 53.1779 202.78C53.2093 202.732 53.2497 202.691 53.2971 202.658C53.3444 202.626 53.3976 202.603 53.4537 202.591C53.5098 202.58 53.5677 202.579 53.624 202.59C53.6803 202.6 53.734 202.622 53.782 202.653C53.83 202.684 53.8714 202.725 53.9037 202.772C53.9361 202.819 53.9588 202.873 53.9706 202.929C53.9706 203.091 57.2512 219.11 40.7114 230.558C40.6312 230.613 40.5351 230.64 40.438 230.635Z" fill="white"/>
<path d="M26.5204 238.246C26.5204 238.246 24.1027 236.281 24.6836 233.615C25.2645 230.95 26.828 229.036 24.1539 225.602C21.4799 222.167 20.7366 217.588 23.9318 215.111C26.3666 213.188 30.1684 215.905 31.5353 210.839C32.5434 207.131 32.2017 198.921 36.9261 196.187C41.6505 193.453 44.615 197.571 43.8718 203.142C43.2225 208.122 42.2998 212.915 43.0174 214.248C44.4014 216.811 46.7679 216.461 46.6569 221.142C46.5629 225.499 42.4365 229.105 42.4365 229.105L26.5204 238.246Z" fill="#BA68C8"/>
<path d="M34.4576 234.068C34.3532 234.067 34.2526 234.028 34.1742 233.959C34.0958 233.89 34.0448 233.796 34.0304 233.692C32.8087 223.568 35.7391 206.089 38.1312 200.895C38.1513 200.837 38.1836 200.784 38.2258 200.74C38.268 200.696 38.3191 200.662 38.3758 200.639C38.4325 200.616 38.4933 200.606 38.5543 200.609C38.6153 200.612 38.6749 200.628 38.7292 200.655C38.7802 200.678 38.8261 200.711 38.8642 200.752C38.9022 200.793 38.9317 200.841 38.9508 200.894C38.9699 200.947 38.9783 201.002 38.9754 201.058C38.9726 201.114 38.9586 201.169 38.9343 201.219C36.5678 206.345 33.74 223.876 34.9104 233.556C34.9224 233.668 34.8896 233.78 34.8192 233.868C34.7488 233.956 34.6465 234.012 34.5345 234.025L34.4576 234.068Z" fill="white"/>
<path d="M34.227 226.183C34.1616 226.186 34.0966 226.171 34.039 226.14C31.0745 224.696 29.195 219.545 29.1181 219.305C29.0972 219.252 29.0871 219.196 29.0885 219.138C29.0899 219.081 29.1027 219.025 29.1262 218.973C29.1497 218.921 29.1835 218.874 29.2254 218.835C29.2673 218.797 29.3165 218.767 29.3702 218.747C29.424 218.728 29.481 218.719 29.538 218.722C29.5951 218.725 29.6509 218.74 29.7023 218.765C29.7537 218.79 29.7995 218.825 29.8371 218.868C29.8747 218.911 29.9033 218.961 29.9212 219.015C29.9212 219.066 31.758 224.055 34.4149 225.346C34.5021 225.388 34.5723 225.458 34.6141 225.546C34.6559 225.633 34.6667 225.732 34.6449 225.826C34.6231 225.921 34.5698 226.005 34.4939 226.065C34.4179 226.125 34.3238 226.158 34.227 226.157V226.183Z" fill="white"/>
<path d="M34.1756 229.6C34.09 229.6 34.0064 229.574 33.9361 229.525C33.8659 229.476 33.8123 229.407 33.7826 229.326C33.7401 229.222 33.7405 229.105 33.7837 229.001C33.8269 228.897 33.9094 228.815 34.0133 228.771C39.0025 226.772 42.1123 220.834 42.1464 220.766C42.1986 220.665 42.2886 220.589 42.3967 220.555C42.5049 220.52 42.6223 220.53 42.7231 220.582C42.8239 220.635 42.8999 220.725 42.9344 220.833C42.9688 220.941 42.9589 221.058 42.9068 221.159C42.7701 221.415 39.6176 227.447 34.3635 229.566C34.305 229.593 34.2401 229.605 34.1756 229.6Z" fill="white"/>
<path d="M208.569 183.638C208.569 183.638 204.836 177.589 204.468 171.019C204.101 164.449 205.545 161.716 207.527 160.93C209.509 160.144 209.663 162.561 210.679 163.988C211.696 165.415 213.772 164.603 214.541 160.152C215.31 155.701 218.112 148.192 223.939 146.731C230.346 145.142 226.912 152.66 225.297 155.59C223.682 158.52 222.435 162.519 223.494 163.604C224.554 164.689 226.202 162.681 227.766 164.543C229.671 166.79 223.751 174.881 220.35 176.837L208.569 183.638Z" fill="#BA68C8"/>
<path d="M213.686 181.1C213.63 181.098 213.575 181.085 213.524 181.061C213.473 181.038 213.427 181.005 213.389 180.963C213.351 180.922 213.322 180.874 213.302 180.821C213.283 180.768 213.274 180.712 213.276 180.656C213.855 170.088 217.15 159.847 222.845 150.926C222.877 150.879 222.918 150.84 222.966 150.81C223.014 150.78 223.068 150.759 223.124 150.751C223.18 150.742 223.237 150.745 223.291 150.758C223.346 150.772 223.398 150.797 223.443 150.832C223.532 150.898 223.592 150.997 223.61 151.107C223.627 151.217 223.601 151.33 223.537 151.421C217.944 160.212 214.708 170.295 214.139 180.699C214.136 180.755 214.122 180.81 214.097 180.86C214.072 180.911 214.038 180.956 213.996 180.994C213.954 181.031 213.905 181.06 213.852 181.078C213.799 181.096 213.742 181.104 213.686 181.1Z" fill="white"/>
<path d="M214.174 176.051C214.102 176.05 214.032 176.033 213.969 176C211.577 174.676 210.252 170.746 210.201 170.583C210.182 170.53 210.174 170.474 210.177 170.417C210.181 170.361 210.195 170.306 210.219 170.255C210.244 170.204 210.279 170.158 210.321 170.121C210.363 170.084 210.413 170.055 210.466 170.037C210.574 170.002 210.691 170.011 210.792 170.062C210.893 170.113 210.969 170.202 211.004 170.31C211.004 170.31 212.286 174.095 214.422 175.248C214.518 175.305 214.589 175.398 214.62 175.506C214.65 175.614 214.637 175.73 214.584 175.829C214.545 175.902 214.486 175.963 214.413 176.002C214.34 176.042 214.257 176.059 214.174 176.051Z" fill="white"/>
<path d="M214.593 173.463C214.498 173.462 214.406 173.429 214.332 173.371C214.258 173.312 214.205 173.23 214.182 173.138C214.168 173.084 214.165 173.028 214.173 172.973C214.181 172.918 214.2 172.865 214.229 172.817C214.257 172.77 214.295 172.728 214.34 172.695C214.385 172.662 214.436 172.639 214.49 172.626C220.658 171.062 222.794 167.833 222.811 167.799C222.841 167.751 222.881 167.71 222.927 167.677C222.973 167.645 223.025 167.622 223.081 167.609C223.136 167.597 223.193 167.596 223.248 167.606C223.304 167.615 223.357 167.636 223.405 167.666C223.453 167.696 223.494 167.736 223.526 167.782C223.559 167.828 223.582 167.881 223.594 167.936C223.606 167.991 223.608 168.048 223.598 168.103C223.588 168.159 223.568 168.212 223.537 168.26C223.443 168.405 221.222 171.797 214.704 173.454L214.593 173.463Z" fill="white"/>
<path d="M115.618 170.361C115.618 170.361 107.425 168.362 106.998 153.018C106.546 136.461 109.006 117.136 99.3094 115.573C89.6128 114.01 84.2305 125.825 84.3501 139.622C84.4612 151.702 89.3308 177.93 115.584 183.073L115.618 170.361Z" fill="#BA68C8"/>
<path opacity="0.2" d="M115.618 170.361C115.618 170.361 107.425 168.362 106.998 153.018C106.546 136.461 109.006 117.136 99.3094 115.573C89.6128 114.01 84.2305 125.825 84.3501 139.622C84.4612 151.702 89.3308 177.93 115.584 183.073L115.618 170.361Z" fill="black"/>
<path d="M115.618 181.502H115.542C109.638 180.426 104.828 177.171 101.249 171.84C90.6379 156.009 93.9783 126.449 95.0804 121.289C95.105 121.179 95.1713 121.083 95.2653 121.021C95.3593 120.959 95.4737 120.936 95.5844 120.956C95.695 120.982 95.7912 121.05 95.8532 121.146C95.9152 121.241 95.9383 121.357 95.9176 121.469C94.8326 126.594 91.5093 155.778 101.958 171.361C103.479 173.778 105.485 175.852 107.85 177.452C110.215 179.052 112.886 180.143 115.695 180.656C115.751 180.666 115.804 180.688 115.852 180.719C115.899 180.75 115.94 180.79 115.972 180.837C116.004 180.884 116.026 180.936 116.037 180.992C116.048 181.047 116.048 181.105 116.037 181.16C116.019 181.258 115.967 181.345 115.89 181.408C115.814 181.47 115.717 181.504 115.618 181.502Z" fill="white"/>
<path d="M115.618 220.878C107.152 222.023 93.4056 222.006 85.4689 215.752C77.5322 209.498 79.1896 204.116 82.2395 201.869C85.2895 199.622 87.9379 197.059 82.6924 192.07C77.4468 187.081 69.0231 179.067 66.2893 167.047C63.5554 155.027 64.9053 147.509 70.2704 145.005C75.4733 142.579 76.8488 146.441 80.0354 154.403C83.222 162.365 90.3898 155.539 96.5239 158.025C102.658 160.511 102.41 165.432 102.795 169.661C103.179 173.89 105.204 175.061 108.681 175.061C112.158 175.061 115.618 177.06 115.618 181.041V220.878Z" fill="#BA68C8"/>
<path d="M115.618 206.918C115.582 206.926 115.544 206.926 115.507 206.918C115.14 206.816 106.383 204.27 93.6278 192.557C80.044 180.084 73.6365 161.374 73.5682 161.186C73.5354 161.078 73.5456 160.962 73.5966 160.862C73.6475 160.762 73.7353 160.685 73.8416 160.648C73.9481 160.612 74.0643 160.62 74.165 160.67C74.2657 160.719 74.3429 160.807 74.3798 160.913C74.4396 161.101 80.7872 179.605 94.2087 191.925C106.784 203.484 115.644 206.072 115.738 206.098C115.792 206.114 115.842 206.14 115.886 206.175C115.929 206.21 115.966 206.253 115.993 206.303C116.02 206.352 116.037 206.406 116.043 206.462C116.049 206.517 116.044 206.574 116.028 206.628C116 206.714 115.946 206.789 115.872 206.841C115.798 206.894 115.709 206.921 115.618 206.918Z" fill="white"/>
<path d="M97.1903 195.529C97.1044 195.53 97.0203 195.505 96.9497 195.456C96.8792 195.407 96.8259 195.337 96.7973 195.256C94.0549 188.216 93.4312 173.154 93.38 172.514C93.3776 172.401 93.419 172.292 93.4954 172.209C93.5719 172.126 93.6775 172.076 93.7901 172.069C93.9016 172.071 94.0087 172.114 94.0907 172.189C94.1726 172.265 94.2238 172.368 94.2343 172.479C94.2343 172.633 94.875 188.037 97.5662 194.948C97.5868 195.001 97.5967 195.057 97.5953 195.114C97.594 195.17 97.5814 195.226 97.5584 195.278C97.5353 195.329 97.5023 195.376 97.4611 195.415C97.4199 195.453 97.3714 195.484 97.3184 195.503C97.2772 195.518 97.234 195.527 97.1903 195.529Z" fill="white"/>
<path d="M97.1222 205.653C96.3345 205.659 95.5472 205.619 94.7642 205.533C94.7081 205.527 94.6539 205.509 94.6047 205.481C94.5554 205.454 94.5121 205.416 94.4772 205.372C94.4423 205.328 94.4165 205.277 94.4012 205.222C94.386 205.168 94.3816 205.111 94.3883 205.055C94.395 204.999 94.4128 204.945 94.4404 204.895C94.4681 204.846 94.5053 204.803 94.5497 204.768C94.5941 204.733 94.645 204.707 94.6994 204.692C94.7538 204.677 94.8107 204.672 94.8668 204.679C94.9436 204.679 102.897 205.585 106.545 201.868C106.583 201.823 106.63 201.787 106.683 201.761C106.736 201.735 106.793 201.72 106.852 201.717C106.911 201.715 106.97 201.724 107.025 201.745C107.08 201.766 107.13 201.798 107.172 201.84C107.214 201.881 107.246 201.931 107.268 201.985C107.29 202.04 107.301 202.099 107.299 202.157C107.297 202.216 107.283 202.274 107.258 202.327C107.232 202.38 107.196 202.428 107.152 202.466C104.512 205.192 99.9073 205.653 97.1222 205.653Z" fill="white"/>
<path d="M90.9708 43.8784L90.0481 38.5559L85.298 41.6828C84.864 40.8285 84.2488 40.0792 83.4954 39.4872L85.7679 33.336L81.4963 32.3877L78.3695 38.368C77.2382 38.5588 76.1414 38.9158 75.1145 39.4273L73.7561 34.9165L68.6814 38.9062L69.0146 44.203C67.9812 45.3606 67.044 46.6007 66.2124 47.9108L62.0262 47.6972L59.0873 54.2841L62.684 55.8219C62.3085 57.1843 62.071 58.581 61.9749 59.991L57.4043 64.1943L58.3184 69.5253L63.077 66.3984C63.5086 67.2519 64.1243 67.9989 64.8797 68.5855L62.6499 74.7452L66.9215 75.685L71.3982 71.3279C72.4319 71.1656 72.1756 69.2177 73.3033 68.6624L74.6617 73.1561L79.7278 69.175L79.5997 67.0904C80.6249 65.9456 84.5035 63.4254 85.3408 62.1097L86.3916 60.4011L89.3305 53.8142L87.9635 51.3367L86.4428 48.1073L90.9708 43.8784ZM75.4648 61.4006C71.569 64.4591 70.3388 65.134 69.681 61.0418C69.0231 56.9496 71.2529 50.7301 75.1487 47.663C79.0444 44.596 80.5309 44.3824 81.2315 48.4661C81.932 52.5498 79.369 58.3763 75.4648 61.4006Z" fill="#E0E0E0"/>
<path d="M81.5311 32.3877L87.0757 35.5829L83.9489 41.5461L78.4043 38.3509L81.5311 32.3877Z" fill="#F5F5F5"/>
<path d="M95.5925 41.7508L90.8424 44.8777L85.2979 41.6825L90.0479 38.5557L95.5925 41.7508Z" fill="#F5F5F5"/>
<path d="M94.8327 56.9837L91.236 55.4544L85.6914 52.2593L89.2881 53.7885L94.8327 56.9837Z" fill="#E0E0E0"/>
<path d="M62.6416 74.7451L68.1862 77.9318L70.4587 71.7806L64.9141 68.5854L62.6416 74.7451Z" fill="#E0E0E0"/>
<path d="M80.1552 76.351L74.6191 73.1559L73.2607 68.6621L78.8053 71.8573L80.1552 76.351Z" fill="#E0E0E0"/>
<path d="M96.5072 47.0732L95.593 41.7508L90.843 44.8776C90.4058 44.0229 89.7878 43.2737 89.0318 42.682L91.3043 36.5308L87.0754 35.5825L83.94 41.5628C82.8088 41.7537 81.7119 42.1106 80.685 42.6222L79.3352 38.1284L74.2605 42.1181L74.5937 47.4149C73.5591 48.5807 72.6219 49.8294 71.7915 51.1483L67.5968 50.9348L64.6579 57.5216L68.2546 59.0594C67.8825 60.4255 67.645 61.8247 67.5455 63.2371L62.9834 67.3805L63.8975 72.7115L68.6476 69.5847C69.0849 70.4369 69.703 71.1833 70.4588 71.7718L68.1862 77.9229L72.4579 78.8712L75.5847 72.8909C76.7203 72.7022 77.8207 72.3422 78.8482 71.823L80.1981 76.3168L85.2728 72.3356L84.9396 67.0388C85.973 65.8812 86.9102 64.6412 87.7418 63.331L91.9365 63.5361L94.8754 56.9492L91.2274 55.42C91.6056 54.0549 91.846 52.6554 91.9451 51.2423L96.5072 47.0732ZM81.0182 64.6296C77.131 67.6881 73.4062 66.8594 72.6971 62.7757C71.988 58.692 74.5766 52.8912 78.4723 49.8327C82.3681 46.7742 86.0844 47.6114 86.7935 51.6951C87.5026 55.7788 84.914 61.5711 81.0182 64.6296Z" fill="#EBEBEB"/>
<path d="M79.3351 38.1117L73.7905 34.9165L68.7158 38.9062L74.2604 42.1014L79.3351 38.1117Z" fill="#F5F5F5"/>
<path d="M68.7158 38.9058L69.049 44.2026L74.5936 47.3978L74.2604 42.1009L68.7158 38.9058Z" fill="#E0E0E0"/>
<path d="M71.7918 51.1058L66.2472 47.9106L62.061 47.7056L67.5971 50.9008L71.7918 51.1058Z" fill="#F5F5F5"/>
<path d="M62.0605 47.7056L59.1216 54.2839L64.6576 57.4791L67.5965 50.9008L62.0605 47.7056Z" fill="#E0E0E0"/>
<path d="M67.5456 63.1859L62.0096 59.9907L57.439 64.194L62.975 67.3892L67.5456 63.1859Z" fill="#F5F5F5"/>
<path d="M63.8977 72.72L58.3531 69.5248L57.439 64.1938L62.975 67.389L63.8977 72.72Z" fill="#E0E0E0"/>
<path d="M87.0758 35.5829L81.5312 32.3877L85.7687 33.336L91.3047 36.5312L87.0758 35.5829Z" fill="#F5F5F5"/>
<path d="M66.1447 19.7179V11.7641L59.8142 14.6175C59.4788 13.2681 58.8998 11.9912 58.1055 10.8499L62.0952 2.81073L57.2255 0L52.2534 7.47535C50.8677 7.3543 49.4717 7.49043 48.1355 7.87689L47.435 0.965393L40.5491 4.94655L39.8571 12.6355C38.3585 13.9634 36.9805 15.4214 35.7392 16.9925L30.7671 15.2839L25.8974 23.7246L29.8786 27.1419C29.1429 29.0022 28.5712 30.9232 28.1699 32.883L21.8394 37.3341V45.2964L28.1699 42.4429C28.5052 43.7924 29.0843 45.0692 29.8786 46.2105L25.9145 54.2583L30.7841 57.069L35.7563 49.5936C37.142 49.7143 38.538 49.5782 39.8742 49.1921L40.5662 56.1036L47.4521 52.1224L48.1526 44.4335C50.3018 43.6494 52.2057 42.3113 53.6716 40.5549L57.2426 41.8107L62.1123 33.3785L59.1221 30.8155C59.7713 28.6783 60.0118 26.4379 59.8312 24.2116L66.1447 19.7179ZM43.992 39.5895C38.7123 42.6394 35.4488 40.4438 35.4488 34.3695C35.4488 28.2953 39.8144 20.7858 45.1027 17.7358C50.3909 14.6859 53.5861 16.8815 53.5861 23.007C53.5861 29.1325 49.2803 36.531 43.992 39.5895Z" fill="#E0E0E0"/>
<path d="M62.7611 3.18664L57.2251 0L52.2529 7.47535L57.789 10.6705L62.7611 3.18664Z" fill="#F5F5F5"/>
<path d="M71.6891 14.9593L66.1445 11.7642L59.814 14.6176L65.3585 17.8128L71.6891 14.9593Z" fill="#F5F5F5"/>
<path d="M46.085 59.2986L40.5489 56.1034L39.8569 49.1919L45.393 52.3871L46.085 59.2986Z" fill="#E0E0E0"/>
<path d="M25.8887 54.258L31.4332 57.4531L35.4229 49.4139L29.8784 46.2188L25.8887 54.258Z" fill="#E0E0E0"/>
<path d="M71.6887 22.9561V15.0024L65.3581 17.8302C65.0263 16.4795 64.447 15.202 63.6494 14.0626L67.6392 6.02338L62.7695 3.2041L57.7973 10.688C56.4117 10.5627 55.0148 10.6989 53.6795 11.0895L52.9789 4.16095L46.093 8.14211L45.3925 15.831C43.896 17.1612 42.5182 18.619 41.2746 20.1881L36.3025 18.4795L31.4328 26.9202L35.4225 30.3375C34.683 32.1965 34.1112 34.1178 33.7139 36.0786L27.3833 40.5296V48.4919L33.7139 45.6385C34.0455 46.9892 34.6248 48.2667 35.4225 49.4061L31.4328 57.4453L36.3025 60.256L41.2746 52.7807C42.6603 52.9017 44.0564 52.7656 45.3925 52.3791L46.093 59.2906L52.9789 55.3095L53.6709 47.6205C55.1695 46.2926 56.5475 44.8346 57.7888 43.2635L62.761 44.9721L67.6306 36.5399L63.6409 33.1226C64.3802 31.2636 64.952 29.3423 65.3496 27.3815L71.6887 22.9561ZM49.536 42.8278C44.2477 45.8777 39.959 43.4001 39.959 37.3003C39.959 31.2004 44.2306 23.7763 49.536 20.7178C54.8413 17.6593 59.1044 20.1454 59.1044 26.2453C59.1044 32.3452 54.8157 39.7266 49.536 42.785V42.8278Z" fill="#EBEBEB"/>
<path d="M35.7388 17.0099L41.2748 20.2051L36.3026 18.4708L30.7666 15.2671L35.7388 17.0099Z" fill="#F0F0F0"/>
<path d="M30.766 15.2756L25.895 23.7192L31.4377 26.9168L36.3087 18.4732L30.766 15.2756Z" fill="#F5F5F5"/>
<path d="M25.8887 23.707L31.4332 26.9022L35.4229 30.3366L29.8784 27.15L25.8887 23.707Z" fill="#E0E0E0"/>
<path d="M28.1699 32.8916L33.7145 36.0868L27.3839 40.5378L21.8394 37.3426L28.1699 32.8916Z" fill="#F5F5F5"/>
<path d="M21.8394 37.3433L27.3839 40.5384V48.5008L21.8394 45.3056V37.3433Z" fill="#E0E0E0"/>
<path d="M52.9788 4.16002L47.4342 0.964844L40.5483 4.946L46.0844 8.14119L52.9788 4.16002Z" fill="#F5F5F5"/>
<path d="M124.06 232.309L204.366 185.936C204.543 185.873 204.696 185.758 204.805 185.605C204.913 185.452 204.971 185.269 204.971 185.081C204.971 184.894 204.913 184.711 204.805 184.558C204.696 184.405 204.543 184.289 204.366 184.227L196.942 179.955C196.482 179.724 195.975 179.604 195.46 179.604C194.945 179.604 194.437 179.724 193.978 179.955L113.645 226.286C113.468 226.348 113.315 226.463 113.207 226.616C113.098 226.769 113.04 226.952 113.04 227.14C113.04 227.327 113.098 227.51 113.207 227.663C113.315 227.816 113.468 227.932 113.645 227.994L121.095 232.266C121.552 232.504 122.057 232.632 122.572 232.639C123.087 232.647 123.596 232.533 124.06 232.309Z" fill="#E0E0E0"/>
<path d="M202.162 6.89392L129.749 48.7046C128.673 49.4071 127.777 50.3533 127.134 51.4665C126.491 52.5797 126.12 53.8286 126.05 55.1121V226.891C126.05 229.249 127.707 230.206 129.749 229.027L202.162 187.217C203.24 186.516 204.137 185.57 204.779 184.456C205.422 183.343 205.793 182.093 205.861 180.809V9.02973C205.861 6.67179 204.212 5.71495 202.162 6.89392Z" fill="#455A64"/>
<path d="M129.749 48.7055L202.161 6.89481C203.99 5.83544 205.502 6.49328 205.809 8.33008C205.639 7.17524 205.225 6.06965 204.596 5.08603C203.968 4.10242 203.138 3.26306 202.161 2.62318L199.154 0.914524C198.008 0.3329 196.74 0.0297852 195.455 0.0297852C194.169 0.0297852 192.902 0.3329 191.756 0.914524L119.334 42.6911C118.244 43.375 117.344 44.3245 116.72 45.4506L127.134 51.4308C127.758 50.3136 128.658 49.3753 129.749 48.7055Z" fill="#37474F"/>
<path d="M115.618 220.877C115.688 222.161 116.06 223.409 116.702 224.523C117.345 225.636 118.241 226.582 119.317 227.285L122.333 228.993C123.377 229.515 124.519 229.811 125.685 229.861C126.851 229.911 128.015 229.714 129.099 229.284C127.391 229.95 126.032 228.968 126.032 226.857V55.1121C126.075 53.8232 126.449 52.567 127.117 51.4642L116.703 45.4839C116.044 46.5783 115.671 47.8211 115.618 49.0977V220.877Z" fill="#263238"/>
<path d="M131.74 71.5933L200.197 32.0807C201.427 31.3801 202.418 31.9525 202.418 33.3622V160.503C202.377 161.274 202.154 162.023 201.768 162.692C201.382 163.36 200.844 163.927 200.197 164.347L131.765 203.86C130.535 204.569 129.544 203.997 129.544 202.579V75.4377C129.583 74.6696 129.802 73.9214 130.183 73.2536C130.565 72.5858 131.098 72.017 131.74 71.5933Z" fill="white"/>
<path d="M165.955 34.3096C165.577 34.5576 165.263 34.8909 165.038 35.2827C164.812 35.6744 164.682 36.1136 164.657 36.565C164.657 37.4193 165.238 37.7354 165.955 37.3168C166.335 37.0702 166.65 36.7373 166.876 36.3452C167.102 35.9532 167.231 35.5132 167.254 35.0614C167.254 34.2327 166.673 33.8995 165.955 34.3096Z" fill="#37474F"/>
<path d="M165.955 190.181C164.462 191.158 163.219 192.473 162.329 194.02C161.438 195.566 160.924 197.301 160.829 199.083C160.829 202.355 163.127 203.688 165.955 202.048C167.448 201.07 168.69 199.755 169.581 198.209C170.471 196.662 170.985 194.928 171.081 193.146C171.098 189.874 168.791 188.541 165.955 190.181Z" fill="#37474F"/>
<path d="M153.662 47.5345C152.911 48.0329 152.288 48.7008 151.842 49.4844C151.397 50.2679 151.142 51.1452 151.099 52.0453C151.099 53.7027 152.261 54.3776 153.662 53.5489C154.42 53.0553 155.052 52.3894 155.505 51.6056C155.957 50.8217 156.219 49.942 156.267 49.0381C156.267 47.3807 155.105 46.7058 153.662 47.5345Z" fill="#37474F"/>
<path d="M160.043 46.9708C160.043 48.0814 160.897 48.5001 161.897 47.9106L178.983 38.026C179.513 37.6955 179.956 37.2446 180.279 36.7102C180.601 36.1758 180.792 35.5728 180.837 34.9504C180.837 33.8484 179.983 33.4297 178.983 34.0192L161.897 43.9038C161.369 44.2335 160.926 44.683 160.604 45.2158C160.281 45.7487 160.089 46.3499 160.043 46.9708Z" fill="#37474F"/>
<path d="M121.394 77.094C122 77.4889 122.505 78.0212 122.867 78.6475C123.229 79.2739 123.439 79.9768 123.478 80.6993C123.478 82.032 122.547 82.5703 121.394 81.9039C120.79 81.5075 120.287 80.9748 119.926 80.3486C119.566 79.7223 119.357 79.0202 119.318 78.2986C119.318 76.9744 120.249 76.4362 121.394 77.094Z" fill="#37474F"/>
<path d="M121.394 93.1384C122 93.5333 122.505 94.0655 122.867 94.6919C123.229 95.3183 123.439 96.0212 123.478 96.7436C123.478 98.0678 122.547 98.6061 121.394 97.9482C120.79 97.5519 120.287 97.0191 119.926 96.3929C119.566 95.7667 119.357 95.0645 119.318 94.343C119.318 93.0102 120.249 92.472 121.394 93.1384Z" fill="#37474F"/>
<path d="M120.744 77.4196C121.35 77.8145 121.855 78.3467 122.217 78.9731C122.58 79.5995 122.789 80.3024 122.829 81.0249C122.829 82.3491 121.898 82.8873 120.744 82.2295C120.138 81.8346 119.633 81.3023 119.271 80.676C118.909 80.0496 118.699 79.3467 118.66 78.6242C118.668 77.2915 119.599 76.7789 120.744 77.4196Z" fill="#455A64"/>
<path d="M120.744 93.4549C121.352 93.8506 121.857 94.3842 122.219 95.0121C122.581 95.6401 122.79 96.3447 122.829 97.0687C122.829 98.3929 121.898 98.9311 120.744 98.2647C120.137 97.8713 119.631 97.3395 119.268 96.7128C118.906 96.0861 118.697 95.3824 118.66 94.6595C118.668 93.3353 119.599 92.797 120.744 93.4549Z" fill="#455A64"/>
<path d="M216.275 37.3855C216.275 35.9673 215.284 35.3949 214.054 36.104L205.861 40.8284L145.623 75.6166C144.976 76.037 144.437 76.6044 144.051 77.2725C143.665 77.9407 143.442 78.6906 143.401 79.4611V206.568C143.401 207.986 144.392 208.558 145.623 207.849L205.887 173.053L214.054 168.337C214.701 167.916 215.24 167.349 215.626 166.681C216.012 166.013 216.234 165.263 216.275 164.492V37.3855Z" fill="white"/>
<path d="M217.129 37.3855C217.183 36.9571 217.109 36.5223 216.917 36.1356C216.725 35.7489 216.423 35.4273 216.05 35.2112C215.676 34.9951 215.247 34.8941 214.816 34.9207C214.385 34.9473 213.971 35.1004 213.627 35.3608L205.81 39.8802L145.195 74.9075C144.415 75.4001 143.766 76.0751 143.304 76.8744C142.843 77.6736 142.583 78.5731 142.547 79.4953V206.568C142.512 206.994 142.594 207.422 142.784 207.806C142.973 208.189 143.264 208.514 143.623 208.746C143.929 208.924 144.277 209.016 144.631 209.011C145.132 208.995 145.62 208.851 146.049 208.593L206.707 173.565L214.507 169.063C215.283 168.565 215.928 167.889 216.389 167.091C216.85 166.293 217.112 165.396 217.155 164.475L217.129 37.3855ZM205.827 172.104L205.126 172.514L145.229 207.097C145.129 207.175 145.012 207.229 144.888 207.255C144.764 207.282 144.635 207.281 144.512 207.251C144.401 207.183 144.289 206.944 144.289 206.551V79.4611C144.334 78.8408 144.518 78.2386 144.829 77.6999C145.14 77.1613 145.569 76.7002 146.084 76.3513L205.921 41.7511L214.464 36.8046C214.565 36.7273 214.681 36.6733 214.805 36.6467C214.929 36.6201 215.058 36.6215 215.182 36.6508C215.293 36.7192 215.404 36.9584 215.404 37.3514V164.492C215.359 165.113 215.175 165.715 214.864 166.253C214.553 166.792 214.124 167.253 213.61 167.602L205.81 172.104H205.827Z" fill="#BA68C8"/>
<path d="M179.838 66.9197C187.527 62.4943 193.721 66.0654 193.721 74.9419C193.721 83.8183 187.502 94.5914 179.838 98.9826C172.175 103.374 165.956 99.8369 165.956 90.969C165.956 82.1011 172.175 71.3537 179.838 66.9197Z" fill="#BA68C8"/>
<path d="M179.838 73.8908C182.324 72.4556 184.34 73.6175 184.34 76.4538C184.256 78.0164 183.804 79.537 183.022 80.8922C182.239 82.2475 181.149 83.3991 179.838 84.2538C177.352 85.6891 175.335 84.5272 175.335 81.6908C175.42 80.1283 175.872 78.6077 176.654 77.2525C177.436 75.8972 178.527 74.7455 179.838 73.8908Z" fill="#BA68C8"/>
<path d="M188.612 89.2001C188.612 84.4842 185.306 82.5705 181.214 84.9285L178.651 86.4065C174.567 88.7644 171.252 94.5055 171.252 99.2213V100.494C173.619 101.272 176.592 100.853 179.796 98.9821C183.345 96.793 186.346 93.821 188.57 90.2936L188.612 89.2001Z" fill="#BA68C8"/>
<path opacity="0.7" d="M179.838 73.8908C182.324 72.4556 184.34 73.6175 184.34 76.4538C184.256 78.0164 183.804 79.537 183.022 80.8922C182.239 82.2475 181.149 83.3991 179.838 84.2538C177.352 85.6891 175.335 84.5272 175.335 81.6908C175.42 80.1283 175.872 78.6077 176.654 77.2525C177.436 75.8972 178.527 74.7455 179.838 73.8908Z" fill="white"/>
<path opacity="0.7" d="M188.612 89.2001C188.612 84.4842 185.306 82.5705 181.214 84.9285L178.651 86.4065C174.567 88.7644 171.252 94.5055 171.252 99.2213V100.494C173.619 101.272 176.592 100.853 179.796 98.9821C183.345 96.793 186.346 93.821 188.57 90.2936L188.612 89.2001Z" fill="white"/>
<path d="M152.978 118.504L170.842 108.192C171.696 107.722 172.32 108.098 172.32 109.046V109.636C172.293 110.149 172.145 110.649 171.888 111.094C171.631 111.54 171.273 111.918 170.842 112.199L152.978 122.51C152.166 122.98 151.5 122.596 151.5 121.656V121.067C151.528 120.553 151.676 120.054 151.933 119.608C152.19 119.163 152.548 118.785 152.978 118.504Z" fill="#BA68C8"/>
<path opacity="0.1" d="M152.978 118.504L170.842 108.192C171.696 107.722 172.32 108.098 172.32 109.046V109.636C172.293 110.149 172.145 110.649 171.888 111.094C171.631 111.54 171.273 111.918 170.842 112.199L152.978 122.51C152.166 122.98 151.5 122.596 151.5 121.656V121.067C151.528 120.553 151.676 120.054 151.933 119.608C152.19 119.163 152.548 118.785 152.978 118.504Z" fill="black"/>
<path d="M152.243 130.951L206.288 99.7512C206.689 99.5119 207.023 99.6999 207.023 100.178V106.483C207.008 106.739 206.933 106.988 206.806 107.21C206.678 107.433 206.501 107.622 206.288 107.765L152.243 138.965C151.833 139.204 151.5 139.007 151.5 138.538V132.233C151.515 131.976 151.59 131.726 151.719 131.503C151.848 131.281 152.028 131.091 152.243 130.951Z" fill="#BA68C8"/>
<path opacity="0.2" d="M152.243 130.951L206.288 99.7512C206.689 99.5119 207.023 99.6999 207.023 100.178V106.483C207.008 106.739 206.933 106.988 206.806 107.21C206.678 107.433 206.501 107.622 206.288 107.765L152.243 138.965C151.833 139.204 151.5 139.007 151.5 138.538V132.233C151.515 131.976 151.59 131.726 151.719 131.503C151.848 131.281 152.028 131.091 152.243 130.951Z" fill="white"/>
<path d="M152.978 146.551L170.842 136.239C171.696 135.769 172.32 136.154 172.32 137.093V137.683C172.294 138.197 172.146 138.697 171.889 139.142C171.632 139.588 171.273 139.966 170.842 140.246L152.978 150.558C152.166 151.036 151.5 150.652 151.5 149.703V149.114C151.529 148.601 151.678 148.102 151.935 147.657C152.191 147.212 152.549 146.833 152.978 146.551Z" fill="#BA68C8"/>
<path opacity="0.1" d="M152.978 146.551L170.842 136.239C171.696 135.769 172.32 136.154 172.32 137.093V137.683C172.294 138.197 172.146 138.697 171.889 139.142C171.632 139.588 171.273 139.966 170.842 140.246L152.978 150.558C152.166 151.036 151.5 150.652 151.5 149.703V149.114C151.529 148.601 151.678 148.102 151.935 147.657C152.191 147.212 152.549 146.833 152.978 146.551Z" fill="black"/>
<path d="M152.243 158.998L206.288 127.798C206.689 127.559 207.023 127.756 207.023 128.226V134.531C207.008 134.786 206.933 135.035 206.806 135.258C206.678 135.48 206.501 135.67 206.288 135.812L152.243 167.012C151.833 167.251 151.5 167.063 151.5 166.585V160.28C151.515 160.023 151.59 159.773 151.719 159.55C151.848 159.328 152.028 159.139 152.243 158.998Z" fill="#BA68C8"/>
<path opacity="0.2" d="M152.243 158.998L206.288 127.798C206.689 127.559 207.023 127.756 207.023 128.226V134.531C207.008 134.786 206.933 135.035 206.806 135.258C206.678 135.48 206.501 135.67 206.288 135.812L152.243 167.012C151.833 167.251 151.5 167.063 151.5 166.585V160.28C151.515 160.023 151.59 159.773 151.719 159.55C151.848 159.328 152.028 159.139 152.243 158.998Z" fill="white"/>
<path d="M173.798 162.579L195.156 150.268C196.01 149.789 196.642 150.174 196.642 151.122V157.718C196.614 158.232 196.465 158.732 196.207 159.177C195.948 159.623 195.588 160.001 195.156 160.281L173.798 172.6C172.943 173.07 172.32 172.685 172.32 171.746V165.142C172.35 164.629 172.499 164.13 172.755 163.685C173.012 163.24 173.369 162.861 173.798 162.579Z" fill="#BA68C8"/>
<path opacity="0.1" d="M173.798 162.579L195.156 150.268C196.01 149.789 196.642 150.174 196.642 151.122V157.718C196.614 158.232 196.465 158.732 196.207 159.177C195.948 159.623 195.588 160.001 195.156 160.281L173.798 172.6C172.943 173.07 172.32 172.685 172.32 171.746V165.142C172.35 164.629 172.499 164.13 172.755 163.685C173.012 163.24 173.369 162.861 173.798 162.579Z" fill="black"/>
<path d="M224.374 134.744C224.374 134.744 213.883 120.272 213.268 118.512C212.781 117.214 213.268 115.283 213.422 114.386C213.575 113.489 213.712 111.49 213.866 110.969C214.122 109.995 212.866 110.191 212.157 111.08C211.448 111.968 211.209 113.745 210.841 114.036C210.474 114.326 207.68 110.251 206.22 108.371C204.759 106.492 203.845 105.347 202.947 106.048C202.307 106.552 202.785 107.645 203.845 109.251C204.463 110.116 205.034 111.015 205.553 111.942C205.715 112.293 204.844 112.318 204.374 113.045C204.007 113.608 204.374 114.523 203.862 114.958C203.546 115.198 203.33 115.546 203.254 115.935C203.179 116.324 203.249 116.728 203.452 117.068C204.403 118.562 205.629 119.861 207.065 120.896C208.637 121.981 209.269 122.365 210.201 123.843C211.132 125.321 219.487 140.417 220.051 141.323C220.615 142.228 221.7 144.074 223.349 144.125C224.998 144.176 238.496 132.557 239.188 131.976C241.409 130.123 242.118 129.858 242.494 131.524C242.624 132.116 242.721 132.715 242.785 133.318C243.05 135.436 244.493 143.006 244.493 143.006C244.493 143.006 251.328 146.312 256.941 144.714C262.554 143.117 264.45 140.733 264.45 140.733L261.64 136.154C262.4 134.266 265.911 126.611 267.048 121.255L249.448 118.41C249.09 118.333 248.509 118.188 247.74 117.991C246.774 117.735 244.323 116.889 242.469 118.512C236.42 123.783 224.391 134.744 224.391 134.744" fill="#F0B9A0"/>
<path d="M259.265 223.543L256.112 227.926C257.545 228.595 259.11 228.931 260.691 228.909C263.519 229.011 264.297 228.054 264.399 227.866C264.878 226.841 264.134 224.996 263.929 223.407L259.265 223.543Z" fill="#37474F"/>
<path d="M256.292 225.824C256.292 225.824 252.465 225.577 249.825 225.252C247.185 224.927 245.092 226.209 245.707 227.294C246.322 228.379 247.783 229.284 250.055 230.045C251.995 230.703 254.327 231.172 256.343 231.753C258.359 232.334 259.76 233.095 260.931 232.685C262.238 232.232 262.802 231.711 262.691 230.754C262.406 229.393 262.052 228.047 261.631 226.721L256.292 225.824Z" fill="#37474F"/>
<path d="M264.4 219.143C264.4 219.143 263.921 223.124 263.887 223.979C263.853 224.833 260 225.106 259.265 223.543L259.146 218.673L264.4 219.143Z" fill="#F0BBA0"/>
<path d="M260.521 221.587L261.896 227.636C261.896 227.636 262.025 228.37 258.881 228.84C255.737 229.31 250.799 227.191 249.953 226.764C249.107 226.337 249.013 225.474 252.106 225.645C255.198 225.816 256.292 225.824 256.292 225.824L255.284 223.15L260.521 221.587Z" fill="#F0B9A0"/>
<path d="M266.997 121.203L269.175 120.597C269.175 120.597 273.729 135.009 274.233 136.402C274.737 137.794 275.309 139.264 274.327 140.981C273.156 143.023 266.997 151.233 266.997 151.233L263.084 147.405L267.526 139.272L263.597 131.327L266.997 121.203Z" fill="#F0BBA0"/>
<path d="M244.621 102.485C244.111 101.526 243.851 100.454 243.868 99.3674C243.884 98.2812 244.176 97.2169 244.715 96.274C246.885 92.2501 251.721 90.2937 257.479 91.037C260.145 91.3873 263.288 93.6 265.006 96.9062C266.902 100.571 267.082 107.953 267.569 110.746L244.621 102.485Z" fill="#37474F"/>
<path d="M244.468 104.065C244.468 104.065 243.101 106.671 243.341 106.91C243.695 107.117 244.082 107.262 244.485 107.338L244.468 104.065Z" fill="#F0B9A0"/>
<path d="M248.62 95.8293C247.134 96.7947 244.571 98.5717 244.459 104.424C244.34 110.404 245.194 112.378 246.083 113.07C246.681 113.539 250.192 113.3 251.696 112.95C253.199 112.6 257.531 110.455 259.094 107.2C260.931 103.373 260.555 97.8028 257.83 96.0941C256.443 95.2739 254.87 94.8193 253.259 94.773C251.648 94.7267 250.052 95.0901 248.62 95.8293Z" fill="#F0B9A0"/>
<path d="M264.399 140.699C267.031 144.8 269.525 148.388 270.072 153.019C271.2 162.749 267.509 173.873 266.714 181.075C268.209 183.123 269.07 185.565 269.192 188.097C269.192 191.079 264.399 219.143 264.399 219.143C264.399 219.143 260.914 220.203 259.145 218.674L255.856 167.047L257.565 160.759L264.399 140.699Z" fill="#BA68C8"/>
<path opacity="0.2" d="M264.399 140.699C267.031 144.8 269.525 148.388 270.072 153.019C271.2 162.749 267.509 173.873 266.714 181.075C268.209 183.123 269.07 185.565 269.192 188.097C269.192 191.079 264.399 219.143 264.399 219.143C264.399 219.143 260.914 220.203 259.145 218.674L255.856 167.047L257.565 160.759L264.399 140.699Z" fill="black"/>
<path d="M255.856 167.047L257.565 160.759C260.836 159.898 263.992 158.644 266.962 157.025C266.962 157.025 265.185 160.263 260.076 162.04L257.436 170.114L257.214 188.61L255.856 167.047Z" fill="#BA68C8"/>
<path opacity="0.3" d="M255.856 167.047L257.565 160.759C260.836 159.898 263.992 158.644 266.962 157.025C266.962 157.025 265.185 160.263 260.076 162.04L257.436 170.114L257.214 188.61L255.856 167.047Z" fill="black"/>
<path d="M264.4 140.699C265.809 143.006 269.175 146.936 268.458 150.72C267.603 155.3 265.126 158.52 257.591 160.759L250.517 186.389C250.517 186.389 254.199 189.806 255.327 193.112C256.454 196.418 260.521 221.604 260.521 221.604C260.521 221.604 259.257 223.663 255.284 223.167C255.284 223.167 241.435 191.557 240.461 189.498C239.279 187.413 238.865 184.98 239.291 182.621C239.727 179.306 244.417 143.023 244.417 143.023L264.4 140.699Z" fill="#BA68C8"/>
<path opacity="0.2" d="M264.4 140.699C265.809 143.006 269.175 146.936 268.458 150.72C267.603 155.3 265.126 158.52 257.591 160.759L250.517 186.389C250.517 186.389 254.199 189.806 255.327 193.112C256.454 196.418 260.521 221.604 260.521 221.604C260.521 221.604 259.257 223.663 255.284 223.167C255.284 223.167 241.435 191.557 240.461 189.498C239.279 187.413 238.865 184.98 239.291 182.621C239.727 179.306 244.417 143.023 244.417 143.023L264.4 140.699Z" fill="black"/>
<path d="M266.996 121.203L249.397 118.359C249.038 118.282 248.457 118.136 247.688 117.94C247.688 117.94 246.936 128.978 242.417 131.507C242.528 132.036 242.622 132.626 242.707 133.301C242.972 135.419 244.416 142.989 244.416 142.989C244.416 142.989 251.251 146.295 256.864 144.697C262.477 143.1 264.373 140.716 264.373 140.716L261.562 136.137C262.348 134.232 265.885 126.577 266.996 121.203Z" fill="#BA68C8"/>
<path opacity="0.7" d="M266.996 121.203L249.397 118.359C249.038 118.282 248.457 118.136 247.688 117.94C247.688 117.94 246.936 128.978 242.417 131.507C242.528 132.036 242.622 132.626 242.707 133.301C242.972 135.419 244.416 142.989 244.416 142.989C244.416 142.989 251.251 146.295 256.864 144.697C262.477 143.1 264.373 140.716 264.373 140.716L261.562 136.137C262.348 134.232 265.885 126.577 266.996 121.203Z" fill="white"/>
<path d="M262.357 134.317C260.02 135.721 257.571 136.93 255.036 137.931C257.337 137.885 259.59 137.263 261.588 136.12L262.357 134.317Z" fill="#BA68C8"/>
<path d="M248.185 96.1206C248.185 96.1206 247.33 101.674 249.347 104.937C249.347 104.937 250.098 102.725 251.969 103.143C253.84 103.562 253.943 106.031 252.627 107.415C252.293 107.803 251.856 108.089 251.366 108.24C250.876 108.391 250.354 108.401 249.859 108.269C249.859 108.269 249.56 112.284 249.398 115.651C249.235 119.017 248.347 126.355 252.132 129.32C255.916 132.284 265.416 133.327 269.867 127.107C272.345 123.647 269.056 117.53 267.527 110.67C266.117 104.365 265.322 95.0185 258.633 93.5149C251.944 92.0113 248.185 96.1206 248.185 96.1206Z" fill="#37474F"/>
<path d="M272.729 20.2473L271.32 21.1017C271.438 20.6001 271.504 20.0876 271.516 19.5724C271.516 16.7104 269.509 15.5571 267.031 17.0094C266.277 17.4643 265.604 18.0417 265.04 18.7181C265.04 14.8736 262.341 13.3102 259.009 15.2324C257.253 16.3775 255.792 17.9203 254.744 19.7356C253.696 21.551 253.091 23.5878 252.977 25.6809C252.977 25.8774 252.977 26.0653 252.977 26.2533C252.119 26.1453 251.25 26.345 250.525 26.8171C249.22 27.6678 248.133 28.8143 247.354 30.1637C246.575 31.513 246.125 33.027 246.04 34.5829C246.04 34.9446 246.077 35.3054 246.151 35.6594L245.399 36.0951C243.358 37.2741 241.7 39.5722 241.7 41.2211C241.7 42.8699 243.358 43.2629 245.399 42.0754L272.738 26.3131C274.78 25.1341 276.437 22.836 276.437 21.1871C276.437 19.5383 274.771 19.0598 272.729 20.2473Z" fill="#EBEBEB"/>
</svg>
